<svg width="100" height="56" viewBox="0 0 100 56" fill="none" xmlns="http://www.w3.org/2000/svg">
<path d="M23.7859 55.3611C22.7867 55.0985 21.8672 54.5944 21.1084 53.8932C20.7306 53.5254 20.4054 53.1071 20.1421 52.6503C19.9278 52.1883 19.7841 51.6969 19.7155 51.1924L19.6189 50.3693H22.9145L23.3311 51.244C23.6643 51.9355 23.9025 52.1954 24.4974 52.492C25.0355 52.7636 25.532 52.8669 26.2968 52.8669C27.823 52.8669 28.761 52.5886 29.2709 51.9821C29.6041 51.5756 29.6824 51.3523 29.6041 50.9041C29.5619 50.6077 29.4568 50.3236 29.2959 50.0711C29.028 49.8318 28.7216 49.6397 28.3895 49.5029C28.0096 49.3363 26.7233 48.9747 25.5254 48.7032C24.5763 48.5008 23.6386 48.2483 22.7163 47.9467C21.6283 47.4935 20.8952 46.8804 20.4386 46.044C20.0887 45.4009 20.0004 45.011 20.0004 44.1279C20.0004 43.3632 20.0987 42.8267 20.317 42.4001C20.529 42.0116 20.7955 41.6553 21.1084 41.3421C21.4761 41.0293 21.8787 40.7598 22.3081 40.5391C23.2178 40.0825 24.9605 39.706 26.1835 39.706C26.7939 39.714 27.4028 39.7697 28.0046 39.8726C28.5987 40.0003 29.1782 40.1885 29.734 40.4341C30.2481 40.6848 30.7238 41.0073 31.1469 41.3921C31.7684 42.0103 32.4915 43.4065 32.4948 43.9946V44.3695H29.0793L28.746 43.7447C28.5149 43.334 28.1669 43.0011 27.7463 42.7884C27.2732 42.5534 26.765 42.4551 25.9969 42.4701C25.4165 42.4749 24.8403 42.5699 24.2891 42.7517C23.9459 42.9 23.5793 43.2066 23.476 43.4332C23.3689 43.6971 23.34 43.9863 23.3927 44.2662C23.5148 44.5791 23.7263 44.8491 24.0009 45.0426C24.2774 45.2393 25.3088 45.5891 26.2918 45.8207C29.3658 46.5422 30.7704 47.0154 31.5268 47.5852C31.9695 47.9393 32.3405 48.3748 32.6198 48.8681C32.8947 49.4146 32.9947 49.8995 32.9947 50.7109C32.9947 51.5823 32.8981 52.0005 32.5365 52.7102C32.2515 53.2632 31.8543 53.7507 31.3702 54.1415C30.8505 54.5055 30.2916 54.8101 29.7041 55.0495C28.9076 55.3611 28.3628 55.4344 26.575 55.471C25.3887 55.4977 24.1308 55.4477 23.7859 55.3611Z" fill="white"/>
<path d="M48.5213 39.7379C47.4915 39.7331 46.4725 39.9478 45.5323 40.3677C44.8207 40.732 44.1607 41.1892 43.5695 41.7273C42.9987 42.2728 42.5203 42.9076 42.1533 43.6067C41.8229 44.3334 41.5683 45.0921 41.3936 45.871C41.2107 46.7031 41.1545 47.558 41.2269 48.4069C41.299 49.196 41.4434 49.9768 41.6585 50.7395C41.8925 51.432 42.2144 52.0917 42.6165 52.7022C43.034 53.2751 43.5241 53.7914 44.0744 54.2384C44.6378 54.6414 45.2546 54.9638 45.9071 55.1964C46.7102 55.4613 47.285 55.5213 48.8279 55.488L50.7439 55.4463L51.8636 54.8998C52.5393 54.554 53.1648 54.1179 53.723 53.6036C54.4828 52.8438 55.3208 51.3243 55.3208 50.7095V50.3646H53.7797H52.2385L51.7386 51.2227C51.4054 51.8025 51.0255 52.1907 50.5723 52.4206C49.7676 52.8338 48.0831 52.9654 47.24 52.6855C46.8056 52.5178 46.4024 52.2785 46.0471 51.9774C45.6832 51.64 45.3761 51.2462 45.1374 50.8111C44.9229 50.3439 44.7787 49.8476 44.7092 49.3382L44.6109 48.5152H55.6541V47.3855C55.6426 46.6901 55.5588 45.9977 55.4041 45.3195C55.2306 44.6986 55.0025 44.0942 54.7227 43.5134C54.3989 42.923 54.0075 42.3722 53.5564 41.8723C53.0521 41.3663 52.4809 40.9318 51.8586 40.581C51.2379 40.2676 50.5825 40.0282 49.9059 39.8679C49.4499 39.7779 48.986 39.7344 48.5213 39.7379ZM48.5313 42.4238C48.7758 42.4239 49.0191 42.4576 49.2544 42.5237C49.6933 42.6522 50.1122 42.8411 50.499 43.0852C50.9031 43.397 51.2488 43.7777 51.5204 44.2099C51.7876 44.6598 51.9789 45.1507 52.0869 45.6627L52.1968 46.3708H44.6575V45.9027C44.6575 45.6461 44.8541 45.0379 45.0941 44.5547C45.3579 44.0287 45.7331 43.5665 46.1937 43.2002C46.6572 42.894 47.1693 42.6686 47.7082 42.5337C47.9778 42.4674 48.2538 42.4305 48.5313 42.4238Z" fill="white"/>
<path d="M75.2614 55.2164C74.6988 55.0285 74.1584 54.7793 73.6503 54.4733C72.8839 53.949 72.2842 53.2158 71.9225 52.3606C71.7644 51.9451 71.6461 51.5155 71.5693 51.0777L71.4526 50.3696H74.9432L75.0465 50.9227C75.1619 51.3277 75.3847 51.6939 75.6913 51.9824C76.0147 52.2794 76.3889 52.5159 76.796 52.6805C77.5107 52.9188 79.1969 52.9238 80.0416 52.6889C80.4258 52.5739 80.7809 52.3779 81.0829 52.114C81.2198 51.9797 81.3261 51.8175 81.3945 51.6383C81.463 51.4592 81.4919 51.2674 81.4795 51.076C81.4946 50.8726 81.4609 50.6685 81.3812 50.4807C81.3015 50.2929 81.1781 50.1269 81.0213 49.9964C80.7512 49.744 80.4416 49.5374 80.1049 49.3849C79.8533 49.2899 78.617 48.9783 77.3558 48.6918C76.0945 48.4052 74.6733 47.9853 74.1901 47.7604C73.646 47.4862 73.1547 47.1178 72.7389 46.6724C72.0508 45.8677 71.7126 44.6097 71.8825 43.4801C72.0001 42.9249 72.2193 42.3962 72.529 41.9206C72.9322 41.3191 73.3254 40.9925 74.1451 40.5793C74.9438 40.179 75.8088 39.9277 76.6977 39.8379C78.4048 39.573 80.152 39.7984 81.7361 40.4877C82.2607 40.7461 82.74 41.0876 83.1556 41.499C83.7417 42.1703 84.1633 42.969 84.3869 43.8316L84.5035 44.3731H80.848L80.7497 43.9833C80.6359 43.6699 80.4544 43.3855 80.2182 43.1502C79.94 42.8736 79.4518 42.6503 78.8553 42.5237C78.2468 42.381 77.614 42.3782 77.0042 42.5154C76.5044 42.617 75.9112 42.8636 75.6996 43.0619C75.5793 43.1738 75.4832 43.3092 75.4171 43.4597C75.3511 43.6102 75.3165 43.7726 75.3156 43.9369C75.3147 44.1013 75.3474 44.2641 75.4117 44.4153C75.476 44.5665 75.5706 44.703 75.6896 44.8163C75.9167 45.0187 76.1647 45.1963 76.4294 45.3462C76.631 45.4495 77.8306 45.7644 79.0952 46.0476C80.3598 46.3308 81.826 46.7507 82.3525 46.984C82.9543 47.2639 83.5011 47.6493 83.967 48.122C84.3481 48.5353 84.6381 49.024 84.8184 49.5565C85.0727 50.5955 84.9597 51.6904 84.4985 52.6555C84.2061 53.1537 83.8379 53.6034 83.4072 53.9884C82.8883 54.4169 82.311 54.7692 81.6928 55.0348C80.8913 55.353 80.3482 55.428 78.4804 55.4763C76.6127 55.5246 76.0695 55.483 75.2614 55.2164Z" fill="white"/>
<path d="M37.4333 55.1845C37.0363 55.0845 36.653 54.9362 36.292 54.743C35.9378 54.4925 35.645 54.165 35.4356 53.785L35.0774 53.1185L35.0241 47.9118L34.9724 42.7051H32.4949V40.2059H34.9941V35.7073H38.3164L38.363 37.915L38.4097 40.1226L39.8676 40.1709L41.3254 40.2193V42.7051H38.298L38.353 47.2837L38.4097 51.8606L38.7896 52.2405C39.1061 52.557 39.3444 52.6187 40.2474 52.617H41.3254V55.1496L40.5523 55.2562C39.5277 55.4028 38.2264 55.3712 37.4333 55.1845Z" fill="white"/>
<path d="M11.5797 34.4326C11.3081 34.4326 10.8183 34.4526 9.91355 34.4526H7.95583L4.31198 43.9496C2.31261 49.1729 0.516504 53.8431 0.333229 54.3263L0 55.2077L1.94772 55.1594L3.90044 55.1127L4.84681 52.4469L5.79484 49.7811L9.87689 49.7394L13.9589 49.6928L14.6521 51.6555C15.0336 52.7335 15.4718 53.9697 15.6251 54.4046L15.9067 55.196H17.8844C20.0137 55.1827 19.9704 55.3526 19.7854 54.9045C19.6005 54.4563 12.1562 35.0174 11.9912 34.6875C11.8746 34.4559 12.0329 34.4242 11.5797 34.4326ZM9.90355 38.253C9.93354 38.223 10.1985 38.8928 10.4967 39.7426C10.7949 40.5923 11.4764 42.545 12.0112 44.0745L12.9859 46.8653H6.85618L7.33603 45.4957C8.34737 42.5417 9.8519 38.3047 9.90355 38.253Z" fill="white"/>
<path d="M57.1538 47.7036V40.2059H60.3195V42.7435L60.861 41.9337C61.2326 41.4125 61.6881 40.9564 62.2089 40.5842C62.6635 40.2811 63.1566 40.0402 63.6751 39.8677C64.1481 39.7601 64.6334 39.7169 65.118 39.7394L65.9011 39.7894L65.9477 41.4056L65.996 43.0217L64.8531 43.0017C63.975 42.9851 63.5318 43.0667 62.927 43.36C62.4669 43.5907 62.056 43.9087 61.7174 44.2963C61.4063 44.7461 61.1469 45.2296 60.9443 45.7375C60.6277 46.534 60.5861 47.0438 60.5211 50.9109L60.4494 55.2012H57.1538V47.7036Z" fill="white"/>
<path d="M66.8174 47.7038V40.2061H70.3163V55.2014H66.8174V47.7038Z" fill="white"/>
<path d="M86.018 44.8295L86.0613 34.4578H89.3936L89.4369 40.2743L89.4803 46.0908L92.326 43.1534L95.1701 40.211L97.2795 40.221L99.3905 40.2293L96.5697 42.9651L93.7473 45.7009L96.8613 50.3661C98.5724 52.9336 99.9736 55.0729 99.9736 55.1179C99.9736 55.1629 100.388 55.2012 97.9309 55.2012H95.8882L93.7223 51.7623L91.438 48.1385C91.363 48.0235 90.9765 48.2917 90.3966 48.8649L89.4769 49.7763V55.2012H85.978L86.018 44.8295Z" fill="white"/>
<path d="M39.4926 0.000260817C36.8268 -0.00973604 34.9107 0.266844 32.7597 0.96829C32.0366 1.20488 30.8786 1.65974 30.1889 1.97964C29.2053 2.46515 28.2537 3.01275 27.3397 3.61912C26.3139 4.3187 25.3251 5.07115 24.3773 5.87341C23.4761 6.67464 22.6227 7.52806 21.8215 8.42928C21.0951 9.27819 20.4138 10.1647 19.7805 11.0851C19.3123 11.7916 18.9024 12.343 18.8691 12.3097C18.7308 12.1714 20.0121 9.70054 20.9051 8.38262L21.8631 6.9664L20.8318 7.96609C20.031 8.7891 19.2815 9.66047 18.5875 10.5753C17.868 11.5339 17.2076 12.5354 16.6098 13.5743C16.1068 14.5343 15.6698 15.5274 15.3019 16.5467L14.7554 18.1296V23.7944L15.2086 25.1274C15.4999 25.9597 15.8605 26.7662 16.2866 27.5383C17.3404 29.2021 18.7096 30.6438 20.317 31.7819C22.1214 32.9816 23.9491 33.6997 26.2468 34.1145C27.3718 34.2735 28.5062 34.357 29.6424 34.3645C30.9164 34.3639 32.1892 34.2821 33.4528 34.1195C34.7028 33.9117 35.9404 33.6353 37.16 33.2915C38.4053 32.921 39.629 32.4816 40.8255 31.9752L42.5483 31.2204L43.643 31.5537C44.8859 31.9302 50.5458 33.2198 50.6241 33.1365C50.6524 33.1099 50.0093 31.7486 49.1929 30.1125L47.7083 27.1334L49.0263 25.5506C49.7527 24.6808 50.7674 23.3379 51.2756 22.5682C51.9084 21.5746 52.4836 20.5454 52.9983 19.4858C53.4491 18.5366 53.8321 17.5567 54.1447 16.5534C54.3735 15.6573 54.5438 14.7474 54.6545 13.8292C54.7745 12.861 54.7745 11.8817 54.6545 10.9135C54.5368 10.0376 54.3434 9.17348 54.0763 8.33097C53.7622 7.49959 53.388 6.69216 52.9567 5.91507C52.0486 4.30058 50.1143 2.33286 48.713 1.59309C48.3484 1.38531 47.9692 1.20433 47.5784 1.0516C47.5151 1.0516 47.84 1.35484 48.3082 1.71805C49.3802 2.62234 50.2828 3.71004 50.974 4.93038L51.3489 5.62849L50.974 5.12865C50.769 4.85373 50.0343 4.05898 49.3378 3.3642C48.3748 2.40117 47.7367 1.93465 46.657 1.40149C45.6769 0.926325 44.6415 0.57485 43.5746 0.355149C42.3434 0.101895 41.277 0.000260817 39.4926 0.000260817ZM39.4093 1.84301C41.242 1.84301 42.0218 1.92632 43.0381 2.1979C43.8644 2.4281 44.672 2.72051 45.4541 3.07263C46.2455 3.44751 46.9436 3.97235 47.8383 4.86873C48.8113 5.84009 49.2629 6.46323 49.796 7.54955C50.1971 8.3762 50.5131 9.24149 50.7391 10.1321C50.8913 10.9377 50.9749 11.7548 50.989 12.5746C50.989 14.7823 50.3775 17.2715 49.2395 19.6291C48.856 20.4018 48.4299 21.1528 47.9633 21.8784C47.3538 22.7372 46.6822 23.5503 45.9539 24.311C45.2425 25.0524 44.6626 25.7088 44.6626 25.7622C44.6626 25.8155 45.2624 26.7768 45.9955 27.8982C46.7287 29.0195 47.3285 29.9992 47.3285 30.0741C47.3285 30.1491 47.2901 30.2091 47.2402 30.2091C47.1902 30.2091 46.0739 29.7976 44.7659 29.2927C43.458 28.7879 42.1934 28.3763 41.9601 28.3763C41.7269 28.3763 41.1354 28.5546 40.6439 28.7729C39.0177 29.491 35.9787 30.3857 34.3525 30.6306C33.3801 30.7711 32.3993 30.8463 31.4168 30.8556C28.771 30.8172 26.7799 30.3557 24.5023 29.2611C23.1694 28.6196 22.6945 28.2747 21.4883 27.0651C20.3953 25.9704 19.9088 25.3306 19.4472 24.3776C19.0986 23.6548 18.811 22.9041 18.5875 22.1333C18.2293 20.7254 18.2643 18.3811 18.6658 16.7817C18.9678 15.7433 19.358 14.7328 19.8321 13.7609C20.3639 12.7102 20.9766 11.7025 21.6649 10.7469C22.4322 9.77899 23.2638 8.86387 24.1541 8.00774C25.7679 6.47247 27.5951 5.1784 29.579 4.16562C31.4261 3.27749 33.3734 2.61514 35.3789 2.1929C36.6602 1.92965 37.6598 1.84135 39.4093 1.84301Z" fill="#F68F1E"/>
<path d="M32.4665 23.0398L32.5348 19.8741L29.829 21.5503C28.3411 22.475 27.1031 23.2081 27.0765 23.1798C26.9365 23.0332 24.8289 19.4476 24.8289 19.3576C24.8289 19.2993 26.0651 18.5496 27.5763 17.6915C29.0875 16.8334 30.3288 16.0937 30.3288 16.047C30.3288 16.0004 29.0925 15.2623 27.5813 14.4042C26.0701 13.5461 24.8305 12.7964 24.8305 12.7381C24.8305 12.6481 26.9382 9.07254 27.0765 8.91759C27.1015 8.88927 28.2311 9.58405 29.5857 10.4738C30.9403 11.3635 32.1582 12.1232 32.2932 12.1732C32.5014 12.2549 32.5264 11.8217 32.4598 9.07587L32.3915 5.88354H37.035L36.9167 9.13919L36.7984 12.3932L37.9397 11.6634L40.4923 10.0222C41.2704 9.5224 41.9918 9.05921 42.1051 8.99423C42.2184 8.92925 42.7099 9.55572 43.4747 10.827C44.1178 11.9 44.6293 12.7914 44.6093 12.8064C44.5893 12.8214 43.4913 13.4562 42.1584 14.2109C40.8255 14.9657 39.5642 15.6971 39.346 15.8337L38.9511 16.082L41.5953 17.5815C43.0498 18.4046 44.3327 19.1294 44.4444 19.1944C44.5893 19.276 44.3027 19.8891 43.478 21.2654C42.4783 22.9182 42.2617 23.1948 42.0168 23.0648C41.8585 22.9798 40.7205 22.2817 39.4859 21.5153L37.0217 19.9841C36.8417 19.8741 36.8234 20.4156 36.9217 23.0332L37.0417 26.2155H32.3981L32.4665 23.0398Z" fill="#F68F1E"/>
<path d="M18.8324 12.6315C18.832 12.6095 18.823 12.5886 18.8075 12.573C18.792 12.5575 18.771 12.5486 18.7491 12.5482C18.727 12.5482 18.7058 12.5569 18.6902 12.5726C18.6745 12.5882 18.6658 12.6094 18.6658 12.6315C18.6658 12.6536 18.6745 12.6747 18.6902 12.6904C18.7058 12.706 18.727 12.7148 18.7491 12.7148C18.7712 12.7148 18.7924 12.706 18.808 12.6904C18.8236 12.6747 18.8324 12.6536 18.8324 12.6315Z" fill="white"/>
<path d="M96.2632 38.1736H97.5778V38.5951H97.1412V39.883H96.7097V38.5951H96.2682L96.2632 38.1736ZM97.7627 38.1736H98.3309L98.5508 39.2133L98.7691 38.1736H99.3356V39.883H98.9907V38.5801L98.7158 39.883H98.3959L98.1226 38.5801V39.883H97.7694L97.7627 38.1736Z" fill="white"/>
<path fill-rule="evenodd" clip-rule="evenodd" d="M15.2136 24.8607C14.6271 23.2895 14.4172 22.2698 14.4105 20.7569C14.4039 19.2441 14.6671 18.6609 15.3586 16.6616L15.2136 24.8607Z" fill="#F68F1E" stroke="#F68F1E"/>
<path fill-rule="evenodd" clip-rule="evenodd" d="M14.7088 22.8747C14.4772 21.7355 14.4428 20.565 14.6071 19.4141C14.6271 19.3092 14.6654 19.1292 14.6938 19.0143L14.7471 18.8027V19.8673C14.7471 20.4522 14.7471 21.4085 14.7471 21.9933V23.0547L14.7088 22.8747Z" fill="#F68F1E"/>
</svg>
