<svg width="280" height="236" viewBox="0 0 280 236" fill="none" xmlns="http://www.w3.org/2000/svg">
<path opacity="0.5" d="M50.5262 193.34C50.5262 193.34 16.7166 169.264 6.98343 128.291C-2.74978 87.3182 12.1067 37.6222 40.2796 12.5393C68.4526 -12.5436 119.169 4.34277 141.708 25.3458L164.248 46.3489C164.248 46.3489 185.764 58.1287 213.937 57.1054C242.11 56.0821 267.213 94.5016 273.873 124.724C280.533 154.947 264.65 194.904 264.65 194.904L50.5262 193.34Z" fill="white"/>
<path opacity="0.5" d="M35.1564 199.487C35.1564 199.487 11.6068 186.67 5.44677 156.971C-0.713233 127.271 25.9365 100.108 28.4998 85.2515C31.0631 70.395 25.4232 51.9553 48.9895 37.6088C72.5559 23.2623 114.559 28.3889 130.438 24.8023C146.318 21.2157 164.761 -3.38074 196.534 2.26257C228.307 7.90588 259.017 24.8056 260.557 61.6885C262.097 98.5713 250.31 99.6013 262.093 119.574C273.877 139.547 278.487 153.384 272.85 173.874C267.213 194.363 255.433 200 255.433 200L35.1564 199.487Z" fill="white"/>
<path opacity="0.5" d="M87.976 193.612C86.6809 192.27 67.7111 154.283 88.8383 119.464C109.965 84.6442 162.986 88.724 184.124 102.285C205.261 115.847 215.598 133.488 217.755 152.012C219.913 170.535 205.677 199.473 205.677 199.473L87.976 193.612Z" fill="white"/>
<path d="M135.146 164.013C134.446 171.039 133.744 178.064 133.042 185.09H133.062C136.36 182.963 138.407 179.289 139.37 175.487C140.309 171.797 140.329 167.915 140.323 164.08L135.146 164.013Z" fill="#0C1B41"/>
<path d="M123.567 195.41H132.009C132.353 191.968 132.698 188.528 133.042 185.09C133.74 178.064 134.441 171.039 135.146 164.013L124.607 163.855C124.258 174.367 123.889 184.882 123.567 195.41Z" fill="#0C1B41"/>
<path d="M133.042 185.09C132.695 188.53 132.351 191.97 132.009 195.41H152.388C152.669 185.036 152.95 174.662 153.23 164.288L140.326 164.094C140.326 167.918 140.326 171.783 139.373 175.501C138.41 179.302 136.354 182.976 133.066 185.103L133.042 185.09Z" fill="#0C1B41"/>
<path d="M156.447 39.4138C158.393 40.6226 159.978 42.3324 161.037 44.3641C162.095 46.3958 162.588 48.6747 162.463 50.9622C162.433 51.9394 162.175 52.8962 161.712 53.757C161.475 54.1845 161.143 54.5519 160.742 54.8306C160.34 55.1093 159.88 55.2918 159.397 55.3641C158.323 55.4681 157.32 54.8876 156.377 54.3911C155.2 53.7533 153.931 53.3007 152.616 53.049C151.293 52.7985 149.927 52.9252 148.674 53.4147C147.694 53.8241 146.788 54.5152 145.731 54.5555C145.203 54.5464 144.685 54.4092 144.221 54.1556C143.758 53.9019 143.363 53.5395 143.07 53.0994C142.494 52.2126 142.123 51.2086 141.983 50.1603C141.633 48.3506 141.657 46.4881 142.054 44.6881C142.462 42.8832 143.421 41.2498 144.798 40.0144C146.081 38.9575 147.623 38.2625 149.264 38.0013C150.9 37.7408 152.564 37.7182 154.206 37.9342L156.447 39.4138Z" fill="#463E40"/>
<path d="M141.115 60.4739C140.838 60.4739 140.567 60.5559 140.337 60.7097C140.107 60.8634 139.928 61.0819 139.822 61.3376C139.716 61.5932 139.688 61.8745 139.742 62.1459C139.796 62.4173 139.93 62.6666 140.125 62.8623C140.321 63.0579 140.57 63.1912 140.842 63.2452C141.113 63.2992 141.394 63.2714 141.65 63.1656C141.906 63.0597 142.124 62.8803 142.278 62.6502C142.432 62.4202 142.514 62.1497 142.514 61.873C142.514 61.6892 142.477 61.5073 142.407 61.3376C142.337 61.1678 142.234 61.0136 142.104 60.8836C141.974 60.7537 141.82 60.6507 141.65 60.5804C141.48 60.5101 141.298 60.4739 141.115 60.4739Z" fill="#211E1F"/>
<path d="M142.725 55.3607C143.02 55.5049 143.362 55.572 143.581 55.2265C143.648 55.1059 143.683 54.9702 143.683 54.8323C143.683 54.6943 143.648 54.5586 143.581 54.438L143.564 54.4146C143.295 54.74 143.017 55.0554 142.725 55.3607Z" fill="#211E1F"/>
<path d="M162.614 130.066C162.574 133.448 163.503 136.81 166.026 139.266C166.793 140.033 167.792 140.523 168.868 140.661C169.315 134.622 169.62 128.576 169.781 122.524C169.861 119.361 169.9 116.197 169.898 113.032C169.888 112.4 169.822 111.77 169.704 111.15C169.522 112.626 168.955 113.894 168.502 115.3C168.094 116.593 167.531 117.832 166.825 118.991C165.406 121.319 163.597 123.52 163.023 126.248C162.763 127.504 162.626 128.783 162.614 130.066Z" fill="#010101"/>
<path d="M136.297 115.387L138.91 115.485L141.52 115.582C141.665 115.582 141.829 115.582 142.004 115.582C142.02 115.287 142.037 114.991 142.051 114.699C142.064 114.408 142.235 113.867 141.943 113.693C141.803 113.627 141.648 113.6 141.494 113.612H139.363C138.82 113.612 137.977 113.438 137.535 113.83C137.072 114.308 136.658 114.829 136.297 115.387Z" fill="white"/>
<path d="M138.887 54.1092C138.863 54.2156 138.871 54.3264 138.908 54.4286C138.945 54.5309 139.011 54.6203 139.098 54.6863C139.366 54.891 139.769 54.7467 140.081 54.7232C140.433 54.6963 140.787 54.7132 141.135 54.7735C141.648 54.8589 142.142 55.0338 142.594 55.2902L142.725 55.3607C143.017 55.0554 143.295 54.74 143.567 54.4146C143.258 53.8576 142.467 53.6563 141.889 53.5154C141.196 53.3415 140.472 53.3266 139.772 53.4717C139.39 53.5556 138.971 53.7402 138.887 54.1092Z" fill="#211E1F"/>
<path d="M159.199 91.9584C159.621 89.8312 159.41 87.5967 159.306 85.426C159.281 84.9585 159.265 84.4921 159.256 84.0269C159.158 80.1396 159.417 76.2516 160.027 72.4114C160.329 70.4923 160.721 68.5911 161.202 66.7077C161.389 65.9629 161.48 65.0302 161.936 64.3927C162.335 63.8991 162.836 63.4983 163.406 63.2184C164.05 62.8415 164.66 62.408 165.228 61.9233C166.372 60.95 167.354 59.8004 168.137 58.5179C169.76 56.0013 170.453 52.997 170.097 50.0237C169.741 47.0503 168.358 44.2945 166.187 42.2321C163.983 40.0379 161.41 38.9441 158.414 38.3805C157.941 38.3076 157.494 38.1224 157.108 37.8403C154.437 35.4842 151.224 33.8247 147.757 33.0092C144.289 32.1937 140.674 32.2475 137.232 33.1658C133.79 34.0841 130.628 35.8384 128.028 38.273C125.428 40.7074 123.469 43.7467 122.326 47.1205C120.413 52.7739 120.897 59.0346 118.904 64.6611C117.931 67.4022 116.401 69.9085 115.092 72.5054C113.784 75.1022 112.676 77.8971 112.653 80.8059C112.633 83.4196 113.636 86.154 115.652 87.7611C117.37 87.314 119.133 87.063 120.907 87.0129C120.608 89.2978 121.242 92.1396 123.004 93.6125C123.667 94.167 124.438 94.5782 125.268 94.8203C125.902 95.0262 126.574 95.0881 127.235 95.0016C127.896 94.9152 128.53 94.6824 129.09 94.3204C131.019 92.9985 131.636 90.7539 131.613 88.4791C131.593 86.7076 131.14 84.8187 130.824 83.0774C130.509 81.3361 130.153 79.6417 129.915 77.9105C129.677 76.1792 129.663 74.4178 129.516 72.6832C129.415 71.5056 129.224 68.9926 129.667 68.0162H129.643C127.936 68.4658 125.711 66.7614 124.705 65.416C123.876 64.3088 123.581 62.6581 124.272 61.4167C125.681 58.8836 129.734 59.4674 130.147 62.2689C130.965 61.8797 131.123 60.9269 131.734 60.2558C132.26 59.6821 133.223 59.2795 133.975 58.7293C135.527 58.8935 137.096 58.7206 138.575 58.2226C140.164 57.6052 141.589 56.6293 142.738 55.3708L142.608 55.3003C142.155 55.0439 141.661 54.8691 141.148 54.7836C140.8 54.7233 140.446 54.7064 140.095 54.7333C139.786 54.7568 139.38 54.9011 139.112 54.6964C139.025 54.6304 138.959 54.541 138.921 54.4388C138.884 54.3365 138.877 54.2257 138.9 54.1193C138.984 53.7503 139.403 53.5657 139.776 53.4886C140.479 53.3397 141.206 53.3523 141.903 53.5255C142.48 53.6664 143.272 53.861 143.581 54.4246C144.121 53.7536 144.631 53.0826 145.117 52.3814C147.013 49.6537 148.392 46.6408 150.422 43.9936C151.955 42.004 153.891 40.0044 156.461 41.5813C158.326 42.7287 159.749 45.0068 160.319 47.087C161.661 52.0391 159.94 56.6591 159.467 61.5643C158.97 66.701 157.833 72.1028 154.079 75.9511C152.641 77.4521 150.917 78.6492 149.008 79.4716C147.099 80.294 145.045 80.725 142.967 80.7389C142.608 80.7389 142.245 80.7389 141.883 80.6919C141.755 81.9064 141.627 83.1199 141.497 84.3322C141.46 84.6979 141.423 85.0636 141.383 85.4293H141.4C144.386 88.2745 146.06 92.0557 148.801 95.0854C149.386 95.7401 150.065 96.3054 150.814 96.7629C151.732 97.3472 152.807 97.6385 153.894 97.5983C156.374 97.4507 158.313 95.2162 159.007 92.834C159.071 92.5422 159.142 92.2536 159.199 91.9584Z" fill="#010101"/>
<path d="M180.92 111.113C181.171 110.769 181.457 110.453 181.775 110.17C184.521 107.675 186.392 104.362 187.11 100.722C187.174 100.386 187.237 100.084 187.301 99.7657L187.174 99.7389C186.701 98.2552 185.952 96.8743 184.966 95.6691C182.926 93.1266 180.001 91.4488 176.776 90.972C176.169 90.8948 175.468 90.8881 175.045 91.3309C173.367 93.089 177.92 94.3975 178.88 94.9411C180.9 96.0803 182.595 97.7183 183.802 99.6986C180.697 97.7062 177.034 96.7652 173.354 97.0145C172.716 97.0582 171.948 97.2427 171.757 97.8533C171.707 98.1039 171.742 98.3638 171.854 98.593C171.967 98.8222 172.152 99.0079 172.381 99.1216C173.089 99.5208 174.122 99.4872 174.911 99.5946C177.746 99.9872 180.363 100.823 182.483 102.735C179.641 101.798 176.632 101.474 173.656 101.786C173.149 101.839 172.549 101.99 172.394 102.457C172.352 102.67 172.384 102.891 172.485 103.084C172.585 103.277 172.749 103.429 172.948 103.517C173.352 103.677 173.785 103.751 174.219 103.735C176.91 103.852 179.543 104.553 181.936 105.788C181.926 105.955 181.869 106.115 181.773 106.25C181.676 106.386 181.543 106.492 181.389 106.556C180.99 106.689 180.563 106.714 180.151 106.627L169.828 105.365C169.56 105.338 169.295 105.295 169.032 105.238V105.275C168.65 107.288 169.341 109.177 169.703 111.113C169.822 111.733 169.887 112.363 169.898 112.995C169.898 116.158 169.859 119.322 169.781 122.487C169.626 128.539 169.322 134.585 168.868 140.624C169.42 140.691 169.98 140.617 170.495 140.41C172.27 139.685 172.988 137.605 173.515 135.759C174.797 131.188 176.079 126.613 177.363 122.037L179.266 115.256C179.698 113.73 180.034 112.331 180.92 111.113Z" fill="#FCC095"/>
<path d="M135.146 164.013L140.326 164.094L153.23 164.288L153.381 158.766C153.894 139.806 154.387 120.668 151.646 101.953C142.944 102.742 134.171 102.027 125.711 99.8396C126.047 104.899 126 109.932 125.889 114.995L127.902 115.072L133.565 115.283L136.29 115.387C136.65 114.824 137.065 114.297 137.528 113.814C137.971 113.421 138.813 113.592 139.356 113.596H141.487C141.641 113.583 141.796 113.611 141.936 113.676C142.228 113.847 142.061 114.408 142.044 114.683C142.027 114.958 142.014 115.27 141.997 115.565C142.567 115.531 143.235 115.485 143.607 115.844C143.858 116.109 144.006 116.455 144.027 116.82C144.046 117.182 144.018 117.545 143.943 117.9C143.923 118.065 143.874 118.225 143.799 118.373C143.748 118.449 143.681 118.512 143.603 118.558C143.524 118.604 143.436 118.632 143.346 118.638H143.128L142.554 118.618C142.042 123.092 141.529 127.565 141.017 132.039L140.259 138.692C140.135 139.792 140.007 140.89 139.883 141.987C139.819 142.537 139.746 143.084 139.695 143.634C139.645 144.184 139.538 144.537 138.917 144.563C138.128 144.597 137.333 144.563 136.545 144.563H128.086C127.677 144.563 127.013 144.694 126.744 144.349C126.181 143.644 126.318 142.44 126.218 141.604C126.087 140.554 125.959 139.507 125.832 138.457L125.748 138.383C125.62 138.524 125.493 138.665 125.359 138.799C125.135 147.147 124.886 155.493 124.611 163.839L135.146 164.013Z" fill="#00BF63"/>
<path d="M115.639 87.7611C114.298 88.1066 112.98 88.5324 111.69 89.0361C106.842 90.9664 102.482 93.9454 98.9205 97.7594C93.5523 103.463 90.0395 110.542 87.2245 117.763C84.2049 125.506 81.1853 133.139 77.951 140.806C76.8438 143.436 76.364 145.063 76.5586 147.875C76.7202 150.056 77.1936 152.203 77.9644 154.25C80.9001 162.174 88.4324 170.056 97.5415 169.207C98.4949 169.117 99.4403 168.957 100.37 168.727C106.849 167.14 112.579 162.631 119.159 161.242C118.943 161.128 118.747 160.981 118.578 160.805C117.276 159.494 116.974 157.856 116.833 156.081C116.462 151.394 116.384 146.687 116.602 141.99C116.686 140.215 116.81 138.437 116.974 136.665C117.119 135.145 117.112 133.404 117.605 131.968C118.397 131.394 119.079 130.683 119.618 129.868C121.011 127.734 122.396 125.604 123.98 123.624C123.756 121.741 123.526 119.856 123.289 117.971C122.819 117.971 122.38 117.867 122.222 117.363C122.156 117.126 122.126 116.881 122.131 116.635C122.109 116.328 122.126 116.019 122.182 115.716C122.238 115.41 122.41 115.138 122.661 114.954C122.997 114.723 123.282 114.891 123.638 114.954C124.107 115.001 124.579 115.018 125.05 115.005C125.319 115.005 125.59 115.028 125.862 115.035C125.973 109.972 126.013 104.939 125.684 99.8798C125.577 98.209 125.425 96.5314 125.228 94.8471C124.398 94.6051 123.627 94.1938 122.963 93.6393C121.188 92.1664 120.568 89.3246 120.866 87.0398C119.102 87.0831 117.349 87.3251 115.639 87.7611Z" fill="#454546"/>
<path d="M142.004 115.572C141.829 115.572 141.668 115.588 141.52 115.572L138.91 115.474L136.296 115.377L133.572 115.273L127.909 115.062L125.896 114.985C125.624 114.985 125.352 114.985 125.084 114.954C124.612 114.968 124.14 114.951 123.671 114.904C123.316 114.844 123.044 114.676 122.695 114.904C122.443 115.087 122.272 115.36 122.215 115.666C122.16 115.969 122.143 116.278 122.165 116.585C122.159 116.831 122.19 117.076 122.255 117.313C122.413 117.816 122.852 117.91 123.322 117.92C123.594 117.92 123.876 117.904 124.117 117.92L126.835 118.024L132.27 118.229L142.567 118.615L143.141 118.635H143.359C143.45 118.628 143.538 118.601 143.616 118.555C143.695 118.509 143.762 118.446 143.812 118.37C143.887 118.222 143.936 118.062 143.956 117.897C144.031 117.542 144.059 117.179 144.04 116.816C144.02 116.452 143.871 116.106 143.621 115.84C143.242 115.491 142.574 115.542 142.004 115.572Z" fill="white"/>
<path d="M119.169 161.235C120.296 161.819 121.396 160.899 122.01 159.745C122.863 158.162 122.651 155.957 122.745 154.179C122.987 149.668 123.049 145.151 122.933 140.628C120.954 141.597 118.783 141.738 116.612 141.97C116.394 146.667 116.472 151.374 116.844 156.061C116.984 157.836 117.286 159.474 118.588 160.785C118.756 160.966 118.952 161.118 119.169 161.235Z" fill="#010101"/>
<path d="M123.332 117.934C123.556 119.819 123.786 121.704 124.023 123.587C124.201 123.366 124.386 123.144 124.57 122.916C126.302 120.873 128.352 120.209 130.844 119.507C131.168 119.397 131.509 119.343 131.851 119.35C132.448 119.39 133.146 120.021 132.982 120.692C132.867 121.011 132.653 121.285 132.371 121.473C131.627 122.049 130.766 122.454 129.848 122.661C129.037 122.807 128.292 123.205 127.721 123.799C127.091 124.551 126.521 125.352 126.016 126.194C126.344 125.836 126.723 125.529 127.14 125.282C128.301 124.61 136.021 122.809 135.112 125.701C134.777 126.761 133.814 126.872 132.898 126.801C131.925 126.731 130.512 126.734 129.616 127.17C128.721 127.607 127.905 128.704 127.184 129.519C129.488 129.165 131.812 128.956 134.142 128.895C134.547 128.855 134.955 128.925 135.323 129.096C135.602 129.279 135.797 129.564 135.865 129.89C135.934 130.215 135.871 130.555 135.689 130.834C135.203 131.445 133.834 131.472 133.129 131.505C131.935 131.586 130.747 131.717 129.569 131.908C128.976 132.009 128.388 132.119 127.801 132.243C127.53 132.304 127.13 132.284 126.892 132.461C126.305 132.921 127.563 132.824 127.815 132.827C129.412 132.867 131.009 132.948 132.599 133.082C132.933 133.093 133.264 133.151 133.582 133.253C134.314 133.522 134.746 134.508 133.951 135.018C133.64 135.182 133.296 135.273 132.945 135.286C131.452 135.444 128.758 135.065 127.657 136.226C126.986 136.937 126.392 137.685 125.765 138.383L125.849 138.457C125.976 139.507 126.104 140.554 126.234 141.604C126.335 142.44 126.198 143.644 126.761 144.349C127.033 144.684 127.697 144.563 128.103 144.563H136.562C137.35 144.563 138.145 144.597 138.934 144.563C139.554 144.537 139.658 144.201 139.712 143.634C139.766 143.067 139.836 142.537 139.9 141.987C140.024 140.89 140.151 139.792 140.276 138.692L141.041 132.029C141.551 127.555 142.063 123.082 142.577 118.608L132.264 118.226L126.828 118.021L124.111 117.917C123.869 117.917 123.587 117.94 123.332 117.934Z" fill="#A25B45"/>
<path d="M127.164 129.506C127.885 128.697 128.724 127.586 129.596 127.157C130.469 126.728 131.905 126.717 132.878 126.788C133.794 126.858 134.756 126.748 135.092 125.687C136.001 122.795 128.281 124.6 127.12 125.268C126.703 125.515 126.324 125.823 125.996 126.181C126.501 125.339 127.071 124.538 127.701 123.785C128.272 123.192 129.017 122.794 129.828 122.648C130.745 122.441 131.607 122.035 132.351 121.46C132.633 121.272 132.847 120.997 132.961 120.678C133.126 120.027 132.428 119.39 131.831 119.336C131.489 119.33 131.148 119.383 130.824 119.494C128.331 120.195 126.281 120.859 124.55 122.903C124.366 123.124 124.181 123.346 124.003 123.574C122.41 125.553 121.024 127.684 119.642 129.818C119.102 130.633 118.42 131.344 117.629 131.918C117.135 133.361 117.142 135.102 116.998 136.615C116.833 138.387 116.709 140.165 116.625 141.94C118.796 141.708 120.967 141.567 122.946 140.598C123.064 140.541 123.181 140.48 123.282 140.416C124.054 139.983 124.753 139.431 125.355 138.782C125.49 138.648 125.617 138.507 125.745 138.366C126.372 137.669 126.959 136.92 127.637 136.209C128.737 135.048 131.432 135.427 132.925 135.27C133.276 135.257 133.62 135.165 133.931 135.001C134.726 134.491 134.293 133.505 133.562 133.236C133.244 133.134 132.913 133.076 132.579 133.065C130.989 132.931 129.392 132.851 127.795 132.81C127.543 132.81 126.285 132.904 126.872 132.445C127.1 132.267 127.509 132.287 127.781 132.227C128.368 132.092 128.955 131.982 129.549 131.891C130.727 131.7 131.915 131.556 133.109 131.488C133.814 131.438 135.183 131.411 135.669 130.817C135.85 130.538 135.914 130.199 135.845 129.873C135.777 129.547 135.582 129.262 135.303 129.079C134.935 128.908 134.527 128.838 134.122 128.878C131.792 128.941 129.468 129.15 127.164 129.506Z" fill="#FCC095"/>
<path d="M124.607 163.855C124.882 155.508 125.132 147.161 125.355 138.816C124.753 139.465 124.054 140.016 123.282 140.45C123.168 140.514 123.051 140.574 122.946 140.631C123.065 145.147 123.002 149.664 122.759 154.183C122.665 155.961 122.876 158.165 122.024 159.749C121.41 160.896 120.309 161.822 119.182 161.238C112.593 162.627 106.862 167.137 100.393 168.724C99.3846 177.617 98.3781 186.514 97.3738 195.414H123.567C123.889 184.882 124.258 174.367 124.607 163.855Z" fill="#454546"/>
<path d="M187.106 89.2877L184.966 95.6624C185.952 96.8676 186.701 98.2485 187.173 99.7322L187.301 99.759C188.046 95.9812 188.797 92.2536 188.955 88.3516C189.002 87.9515 188.951 87.5459 188.804 87.1706C188.733 87.017 188.622 86.8858 188.481 86.7912C188.341 86.6965 188.178 86.6421 188.009 86.6338C187.714 87.533 187.415 88.4087 187.106 89.2877Z" fill="#FCC095"/>
<path d="M188.009 86.6506C188.463 85.3478 188.825 84.0147 189.093 82.6613C189.198 82.285 189.198 81.8868 189.093 81.5105C188.811 80.7824 188.056 80.5375 187.365 80.4637C186.398 80.3597 185.432 80.1282 184.473 79.9739L178.796 79.0109C178.136 78.8548 177.452 78.8297 176.783 78.9371C175.484 79.2324 175.145 80.5476 174.77 81.6514C174.26 83.1881 173.753 84.7258 173.25 86.2647C172.243 89.3425 171.237 92.4191 170.23 95.4946C169.678 97.1856 169.118 98.8766 168.553 100.568C168.324 101.259 167.761 102.363 167.623 103.329C167.533 103.98 167.623 104.567 168.17 104.926C168.43 105.091 168.719 105.205 169.022 105.261C169.285 105.319 169.55 105.361 169.817 105.389L180.141 106.65C180.553 106.737 180.98 106.713 181.379 106.58C181.533 106.516 181.666 106.41 181.762 106.274C181.859 106.138 181.916 105.978 181.926 105.812C179.533 104.576 176.9 103.876 174.209 103.758C173.775 103.775 173.342 103.701 172.938 103.54C172.739 103.453 172.575 103.3 172.475 103.107C172.374 102.915 172.342 102.693 172.384 102.48C172.538 101.997 173.139 101.846 173.646 101.809C176.622 101.498 179.631 101.821 182.473 102.758C180.353 100.846 177.736 100.011 174.9 99.6181C174.112 99.5107 173.079 99.5443 172.371 99.145C172.142 99.0314 171.957 98.8456 171.844 98.6164C171.731 98.3873 171.697 98.1274 171.747 97.8768C171.938 97.2661 172.706 97.0816 173.344 97.038C177.024 96.7886 180.687 97.7297 183.792 99.7221C182.584 97.7417 180.89 96.1038 178.87 94.9646C177.91 94.421 173.344 93.1125 175.035 91.3544C175.457 90.9116 176.159 90.9183 176.766 90.9954C179.991 91.4723 182.916 93.1501 184.956 95.6926L187.096 89.3179C187.415 88.4086 187.714 87.533 188.009 86.6506Z" fill="#796B6E"/>
<path d="M169.042 105.275C168.739 105.219 168.45 105.105 168.19 104.939C167.657 104.58 167.553 103.993 167.643 103.342C165.937 99.0956 163.2 95.341 159.678 92.418C159.396 92.1832 159.343 92.0825 159.205 91.9651C159.148 92.2603 159.078 92.5489 158.994 92.8408C158.299 95.2229 156.36 97.4574 153.881 97.6051C152.793 97.6453 151.719 97.3539 150.801 96.7696C151.116 98.4942 151.4 100.224 151.653 101.96C154.401 120.675 153.901 139.812 153.387 158.772L153.236 164.295C152.955 174.669 152.674 185.043 152.394 195.417H159.088C157.714 184.655 157.288 173.793 157.816 162.956C158.132 156.521 158.897 150.129 159.571 143.731C161.299 149.962 164.506 156.333 169.767 160.222C171.78 161.715 174.404 162.607 176.843 162.003C181.336 160.896 182.849 155.072 183.926 151.206C185.299 146.281 185.797 141.152 185.395 136.055C185.1 132.364 183.188 128.814 182.429 125.124C181.477 120.467 181.272 115.837 180.926 111.119C180.034 112.337 179.705 113.736 179.266 115.3L177.35 122.074C176.066 126.646 174.783 131.22 173.501 135.796C172.981 137.642 172.263 139.722 170.482 140.447C169.966 140.654 169.406 140.728 168.855 140.661C167.779 140.523 166.779 140.033 166.013 139.266C163.49 136.81 162.56 133.448 162.601 130.066C162.619 128.787 162.762 127.513 163.027 126.261C163.6 123.533 165.409 121.332 166.828 119.004C167.534 117.846 168.097 116.607 168.506 115.313C168.959 113.908 169.512 112.629 169.707 111.163C169.348 109.227 168.657 107.355 169.036 105.325L169.042 105.275Z" fill="#454546"/>
<path d="M130.878 74.1326L130.787 74.1795C131.55 76.6484 132.934 78.8796 134.808 80.6588C136.682 82.4379 138.982 83.7052 141.487 84.3389C141.617 83.1243 141.745 81.9109 141.873 80.6986C137.571 80.3396 132.891 77.9876 130.878 74.1326Z" fill="#F5886E"/>
<path d="M154.451 61.8596C154.174 61.8603 153.904 61.9429 153.675 62.097C153.445 62.2512 153.266 62.4699 153.161 62.7256C153.055 62.9813 153.028 63.2625 153.083 63.5337C153.137 63.8049 153.27 64.0539 153.466 64.2492C153.662 64.4445 153.911 64.5774 154.183 64.6312C154.454 64.6849 154.735 64.657 154.991 64.551C155.246 64.445 155.464 64.2657 155.618 64.0357C155.772 63.8057 155.853 63.5353 155.853 63.2587C155.853 63.0747 155.817 62.8925 155.747 62.7225C155.676 62.5526 155.573 62.3982 155.443 62.2682C155.312 62.1382 155.158 62.0353 154.987 61.9652C154.817 61.8951 154.635 61.8592 154.451 61.8596Z" fill="#211E1F"/>
<path d="M154.069 55.6123C154.046 55.719 154.055 55.8298 154.093 55.9319C154.131 56.034 154.197 56.1233 154.283 56.1894C154.552 56.3941 154.954 56.2498 155.266 56.2263C155.618 56.2011 155.972 56.218 156.32 56.2766C156.832 56.3636 157.326 56.5384 157.779 56.7934C158.115 56.9779 158.514 57.1288 158.766 56.7329C158.833 56.6125 158.869 56.4768 158.869 56.3387C158.869 56.2007 158.833 56.0649 158.766 55.9445C158.467 55.3674 157.659 55.1627 157.088 55.0185C156.391 54.8453 155.664 54.8327 154.961 54.9816C154.575 55.0587 154.156 55.2433 154.069 55.6123Z" fill="#211E1F"/>
<path d="M141.39 85.4327C144.376 88.2778 146.05 92.059 148.791 95.0887C149.376 95.7435 150.055 96.3087 150.804 96.7663C151.119 98.4908 151.404 100.221 151.656 101.957C142.954 102.745 134.181 102.03 125.721 99.8429C125.614 98.172 125.462 96.4945 125.265 94.8102C125.899 95.0161 126.571 95.0781 127.232 94.9916C127.893 94.9051 128.527 94.6724 129.086 94.3103C131.016 92.9884 131.633 90.7438 131.609 88.4691C131.589 86.6976 131.136 84.8086 130.821 83.0673C130.506 81.326 130.15 79.6317 129.912 77.9004C129.674 76.1692 129.66 74.4077 129.512 72.6731C129.412 71.4955 129.221 68.9825 129.663 68.0061H129.64C127.932 68.4557 125.708 66.7513 124.701 65.4059C123.873 64.2987 123.577 62.648 124.268 61.4067C125.678 58.8735 129.731 59.4573 130.143 62.2588C130.962 61.8696 131.12 60.9168 131.73 60.2458C132.257 59.672 133.22 59.2694 133.971 58.7192C135.523 58.8834 137.092 58.7106 138.571 58.2126C140.16 57.5952 141.585 56.6192 142.735 55.3607C143.03 55.505 143.373 55.5721 143.591 55.2265C143.849 54.8239 143.534 54.5555 143.802 54.1495C143.99 53.8744 144.335 53.7335 144.56 53.4986C145.261 52.7773 145.738 51.7204 146.285 50.8783C147.463 49.0275 148.746 47.2453 150.126 45.5403C150.881 44.5489 151.786 43.6827 152.81 42.9736C153.852 42.2654 155.121 41.9733 156.367 42.155C158.501 42.5576 159.789 45.1746 160.309 47.087C161.651 52.0391 159.93 56.6591 159.457 61.5643C158.96 66.701 157.823 72.1028 154.069 75.9511C152.631 77.4521 150.907 78.6492 148.998 79.4716C147.089 80.294 145.035 80.7249 142.956 80.7389C142.597 80.7389 142.235 80.7388 141.873 80.6919C137.571 80.3396 132.891 77.9876 130.878 74.1326L130.787 74.1796C131.55 76.6484 132.935 78.8796 134.808 80.6588C136.682 82.438 138.982 83.7053 141.487 84.3389C141.45 84.7046 141.413 85.0703 141.373 85.436L141.39 85.4327ZM141.111 63.2889C141.388 63.2889 141.658 63.2068 141.888 63.0531C142.119 62.8994 142.298 62.6808 142.404 62.4252C142.51 62.1695 142.537 61.8882 142.483 61.6168C142.429 61.3454 142.296 61.0961 142.1 60.9005C141.905 60.7048 141.655 60.5716 141.384 60.5176C141.113 60.4636 140.831 60.4913 140.576 60.5972C140.32 60.7031 140.102 60.8824 139.948 61.1125C139.794 61.3426 139.712 61.6131 139.712 61.8898C139.716 62.2585 139.866 62.6106 140.129 62.8694C140.392 63.1283 140.746 63.273 141.115 63.2721L141.111 63.2889ZM154.451 64.688C154.728 64.688 154.998 64.6059 155.228 64.4521C155.458 64.2984 155.638 64.0799 155.744 63.8243C155.85 63.5686 155.877 63.2873 155.823 63.0159C155.769 62.7445 155.636 62.4952 155.44 62.2996C155.245 62.1039 154.995 61.9707 154.724 61.9167C154.453 61.8627 154.171 61.8904 153.916 61.9963C153.66 62.1022 153.442 62.2815 153.288 62.5116C153.134 62.7416 153.052 63.0122 153.052 63.2889C153.057 63.6567 153.207 64.0078 153.469 64.2664C153.73 64.5249 154.083 64.6703 154.451 64.6712V64.688ZM155.266 56.2431C155.618 56.2179 155.972 56.2348 156.32 56.2935C156.833 56.3804 157.326 56.5552 157.779 56.8101C158.115 56.9946 158.514 57.1456 158.766 56.7497C158.833 56.6293 158.869 56.4936 158.869 56.3555C158.869 56.2174 158.833 56.0817 158.766 55.9613C158.467 55.3842 157.659 55.1796 157.088 55.0353C156.391 54.8621 155.664 54.8495 154.961 54.9984C154.589 55.0755 154.169 55.2601 154.082 55.6291C154.06 55.7358 154.068 55.8466 154.106 55.9487C154.144 56.0508 154.21 56.1401 154.297 56.2062C154.552 56.3941 154.958 56.2498 155.266 56.2263V56.2431Z" fill="#FCC095"/>
<path d="M185.879 82.9734C185.87 83.1741 185.921 83.3728 186.027 83.544C186.132 83.7151 186.286 83.8509 186.469 83.9338C186.652 84.0168 186.855 84.043 187.053 84.0092C187.251 83.9755 187.435 83.8832 187.58 83.7443C187.725 83.6055 187.825 83.4263 187.868 83.23C187.91 83.0336 187.893 82.8291 187.818 82.6426C187.744 82.4561 187.615 82.2963 187.449 82.1836C187.282 82.071 187.086 82.0107 186.885 82.0105C186.756 82.0069 186.627 82.0291 186.506 82.0757C186.385 82.1223 186.274 82.1923 186.181 82.2819C186.087 82.3714 186.012 82.4787 185.96 82.5974C185.909 82.7161 185.881 82.8439 185.879 82.9734Z" fill="white"/>
<path d="M134.907 163.689L131.705 195.776L132.239 195.829L135.442 163.742L134.907 163.689Z" fill="#010101"/>
<path d="M133.213 185.328C136.253 183.365 138.534 179.9 139.632 175.565C140.611 171.71 140.601 167.69 140.594 163.822H140.058C140.058 167.673 140.058 171.656 139.111 175.447C138.048 179.648 135.847 183.003 132.921 184.889L133.213 185.328Z" fill="#010101"/>
<path d="M135.438 185.908L135.162 186.368L142.354 190.684L142.63 190.224L135.438 185.908Z" fill="#010101"/>
<path d="M127.915 65.5067C127.973 65.5066 128.029 65.4884 128.075 65.4547C128.122 65.4209 128.156 65.3734 128.174 65.3188C128.195 65.2512 128.188 65.1779 128.156 65.1151C128.123 65.0522 128.067 65.0049 127.999 64.9833C127.848 64.9114 127.723 64.795 127.641 64.6499C127.558 64.5047 127.521 64.3378 127.536 64.1713C127.566 63.9533 127.66 63.8928 127.852 63.7754C128.02 63.6848 128.168 63.5617 128.288 63.4131C128.398 63.2608 128.453 63.0758 128.444 62.8882C128.436 62.7006 128.364 62.5214 128.241 62.3797C127.848 61.8463 126.879 61.3731 126.261 61.5879C126.194 61.6115 126.138 61.6609 126.107 61.7254C126.076 61.7899 126.072 61.8642 126.095 61.9318C126.119 61.9994 126.168 62.0549 126.233 62.0861C126.297 62.1172 126.372 62.1214 126.439 62.0979C126.748 61.9905 127.493 62.2723 127.805 62.6984C127.976 62.9299 127.889 63.034 127.855 63.091C127.776 63.1831 127.681 63.2594 127.573 63.3158C127.419 63.3886 127.285 63.4994 127.186 63.6379C127.086 63.7764 127.023 63.9381 127.003 64.1076C126.972 64.3976 127.037 64.6897 127.187 64.9397C127.337 65.1897 127.564 65.384 127.835 65.4932C127.861 65.5026 127.888 65.5071 127.915 65.5067Z" fill="#F38757"/>
<path d="M120.625 79.9773C120.95 77.2835 121.695 74.6571 122.832 72.1934L122.343 71.9686C121.182 74.4833 120.423 77.1641 120.091 79.9136L120.625 79.9773Z" fill="#231F20"/>
<path d="M148.855 69.5093C148.876 69.5125 148.897 69.5125 148.918 69.5093C149.675 69.322 150.346 68.8831 150.821 68.2645C151.324 67.5935 151.156 66.7044 150.955 66.1005C150.868 65.8153 150.76 65.5402 150.656 65.2751C150.536 64.9844 150.431 64.6876 150.341 64.386C150.054 63.3326 150.159 62.2107 150.636 61.2288C150.652 61.1971 150.661 61.1627 150.663 61.1274C150.665 61.0922 150.66 61.057 150.649 61.0236C150.637 60.9903 150.619 60.9595 150.596 60.9332C150.572 60.9068 150.544 60.8853 150.512 60.8698C150.48 60.8544 150.446 60.8454 150.411 60.8433C150.376 60.8411 150.34 60.846 150.307 60.8575C150.274 60.8691 150.243 60.8871 150.216 60.9105C150.19 60.9339 150.169 60.9622 150.153 60.994C149.617 62.0934 149.498 63.3497 149.818 64.5302C149.912 64.8493 150.024 65.1629 150.153 65.4697C150.257 65.7381 150.358 65.9931 150.438 66.2548C150.677 67.0399 150.66 67.5767 150.385 67.9323C149.983 68.4505 149.42 68.8191 148.784 68.9791C148.749 68.9877 148.716 69.0033 148.687 69.025C148.658 69.0467 148.633 69.074 148.615 69.1053C148.597 69.1367 148.585 69.1714 148.581 69.2074C148.577 69.2434 148.58 69.2798 148.59 69.3146C148.607 69.3716 148.642 69.4215 148.689 69.4566C148.737 69.4917 148.795 69.5102 148.855 69.5093Z" fill="#F38757"/>
<path d="M148.106 72.9315C148.178 72.9315 148.246 72.9032 148.296 72.8528C148.347 72.8025 148.375 72.7342 148.375 72.663C148.375 72.5919 148.347 72.5236 148.296 72.4733C148.246 72.4229 148.178 72.3947 148.106 72.3947C147.294 72.3498 146.505 72.1106 145.804 71.6972C145.104 71.2839 144.512 70.7084 144.08 70.0192C144.042 69.9594 143.982 69.9169 143.914 69.9006C143.845 69.8843 143.772 69.8956 143.711 69.932C143.681 69.9503 143.655 69.9743 143.634 70.0027C143.613 70.0312 143.598 70.0634 143.589 70.0977C143.581 70.132 143.579 70.1676 143.585 70.2025C143.59 70.2374 143.602 70.2709 143.621 70.3011C144.095 71.0683 144.748 71.7087 145.525 72.1669C146.302 72.6252 147.179 72.8876 148.08 72.9315H148.106Z" fill="#F38757"/>
<path d="M187.174 100.007C187.2 100.012 187.227 100.012 187.254 100.007C187.288 99.997 187.319 99.9801 187.346 99.9576C187.373 99.9351 187.395 99.9074 187.412 99.8762C187.428 99.8449 187.438 99.8108 187.441 99.7757C187.444 99.7406 187.439 99.7053 187.428 99.6718C186.957 98.1819 186.21 96.7935 185.228 95.5786C185.205 95.5509 185.178 95.5279 185.147 95.5109C185.116 95.4938 185.082 95.4831 185.046 95.4794C185.011 95.4757 184.975 95.479 184.941 95.4891C184.908 95.4992 184.876 95.5159 184.848 95.5383C184.821 95.5602 184.798 95.5873 184.781 95.6181C184.764 95.6489 184.753 95.6828 184.75 95.7178C184.746 95.7527 184.749 95.7881 184.759 95.8218C184.769 95.8555 184.786 95.8869 184.808 95.9141C185.748 97.0783 186.464 98.4072 186.919 99.8329C186.937 99.885 186.972 99.9298 187.018 99.9611C187.064 99.9924 187.118 100.009 187.174 100.007Z" fill="#F38757"/>
<path d="M163.795 151.106L164.322 150.995C162.713 143.358 162.294 135.519 163.08 127.754L162.547 127.7C161.754 135.52 162.175 143.415 163.795 151.106Z" fill="#010101"/>
<path d="M159.766 144.375C160.252 139.776 160.792 134.417 160.977 129.106C161.208 122.52 160.822 115.84 160.45 109.378C160.323 107.134 160.188 104.812 160.081 102.527L159.544 102.554C159.652 104.839 159.786 107.164 159.913 109.412C160.286 115.86 160.671 122.527 160.44 129.089C160.255 134.384 159.719 139.725 159.229 144.318L159.766 144.375Z" fill="#010101"/>
<path d="M124.584 128.113C124.622 128.113 124.659 128.105 124.694 128.089C124.729 128.074 124.76 128.051 124.785 128.022C124.976 127.804 125.168 127.57 125.355 127.351C125.727 126.874 126.134 126.425 126.573 126.009C126.627 125.962 126.659 125.896 126.664 125.825C126.668 125.754 126.644 125.684 126.597 125.63C126.55 125.577 126.483 125.544 126.412 125.54C126.341 125.536 126.271 125.56 126.218 125.607C125.755 126.04 125.328 126.509 124.939 127.009C124.748 127.244 124.567 127.462 124.382 127.68C124.359 127.707 124.341 127.737 124.33 127.771C124.318 127.804 124.313 127.84 124.316 127.875C124.318 127.91 124.327 127.944 124.342 127.976C124.358 128.008 124.379 128.036 124.406 128.059C124.456 128.099 124.52 128.118 124.584 128.113Z" fill="#F38757"/>
<path d="M87.003 141.846C88.3686 140.594 90.2642 139.675 92.6296 139.108C94.1679 138.77 95.7237 138.518 97.2898 138.353L98.9909 138.132C102.86 137.591 106.667 136.675 110.358 135.394L111.365 135.058C113.676 134.277 116.062 133.468 117.954 132.008L117.619 131.582C115.807 132.988 113.462 133.78 111.19 134.548L110.167 134.884C106.51 136.152 102.737 137.06 98.9036 137.595C98.34 137.672 97.7663 137.746 97.2093 137.813C95.624 137.982 94.0492 138.239 92.492 138.581C90.0361 139.168 88.0599 140.135 86.6239 141.446L87.003 141.846Z" fill="#010101"/>
<path d="M90.5125 147.15C92.2104 144.719 94.1556 142.47 96.3169 140.44L95.9512 140.047C93.7615 142.098 91.7915 144.372 90.073 146.831L90.5125 147.15Z" fill="#010101"/>
<path d="M93.1732 137.323L93.3308 136.81C91.1226 136.14 88.7951 135.959 86.5099 136.28L86.5837 136.813C88.7912 136.503 91.0397 136.677 93.1732 137.323Z" fill="#010101"/>
<path d="M107.998 113.844L101.729 137.271L102.248 137.41L108.516 113.983L107.998 113.844Z" fill="#010101"/>
<path d="M100.518 168.958C103.634 168.183 106.617 166.724 109.506 165.311C112.834 163.681 116.28 161.996 119.93 161.362L119.84 160.832C116.112 161.48 112.633 163.181 109.268 164.828C106.406 166.227 103.45 167.677 100.39 168.438L100.518 168.958Z" fill="#010101"/>
<rect y="193.333" width="280" height="6.66667" fill="#05391C"/>
<path d="M93.2784 224.438H90.7898C90.7443 224.116 90.6515 223.83 90.5114 223.58C90.3712 223.326 90.1913 223.11 89.9716 222.932C89.7519 222.754 89.4981 222.617 89.2102 222.523C88.9261 222.428 88.6174 222.381 88.2841 222.381C87.6818 222.381 87.1572 222.53 86.7102 222.83C86.2633 223.125 85.9167 223.557 85.6705 224.125C85.4242 224.689 85.3011 225.375 85.3011 226.182C85.3011 227.011 85.4242 227.708 85.6705 228.273C85.9205 228.837 86.2689 229.263 86.7159 229.551C87.1629 229.839 87.6799 229.983 88.267 229.983C88.5966 229.983 88.9015 229.939 89.1818 229.852C89.4659 229.765 89.7178 229.638 89.9375 229.472C90.1572 229.301 90.339 229.095 90.483 228.852C90.6307 228.61 90.733 228.333 90.7898 228.023L93.2784 228.034C93.214 228.568 93.053 229.083 92.7955 229.58C92.5417 230.072 92.1989 230.513 91.767 230.903C91.339 231.29 90.8277 231.597 90.233 231.824C89.642 232.047 88.9735 232.159 88.2273 232.159C87.1894 232.159 86.2614 231.924 85.4432 231.455C84.6288 230.985 83.9848 230.305 83.5114 229.415C83.0417 228.525 82.8068 227.447 82.8068 226.182C82.8068 224.913 83.0455 223.833 83.5227 222.943C84 222.053 84.6477 221.375 85.4659 220.909C86.2841 220.439 87.2045 220.205 88.2273 220.205C88.9015 220.205 89.5265 220.299 90.1023 220.489C90.6818 220.678 91.1951 220.955 91.642 221.318C92.089 221.678 92.4527 222.119 92.733 222.642C93.017 223.165 93.1989 223.763 93.2784 224.438ZM105.43 220.364H107.89V227.92C107.89 228.769 107.688 229.511 107.282 230.148C106.881 230.784 106.318 231.28 105.595 231.636C104.871 231.989 104.029 232.165 103.066 232.165C102.101 232.165 101.256 231.989 100.532 231.636C99.8089 231.28 99.2464 230.784 98.8449 230.148C98.4434 229.511 98.2426 228.769 98.2426 227.92V220.364H100.703V227.71C100.703 228.153 100.799 228.547 100.993 228.892C101.19 229.237 101.466 229.508 101.822 229.705C102.178 229.902 102.593 230 103.066 230C103.544 230 103.959 229.902 104.311 229.705C104.667 229.508 104.941 229.237 105.135 228.892C105.332 228.547 105.43 228.153 105.43 227.71V220.364ZM119.427 223.71C119.382 223.252 119.186 222.896 118.842 222.642C118.497 222.388 118.029 222.261 117.438 222.261C117.037 222.261 116.698 222.318 116.421 222.432C116.145 222.542 115.933 222.695 115.785 222.892C115.641 223.089 115.569 223.312 115.569 223.562C115.561 223.771 115.605 223.953 115.7 224.108C115.798 224.263 115.933 224.398 116.103 224.511C116.274 224.621 116.471 224.718 116.694 224.801C116.918 224.881 117.156 224.949 117.41 225.006L118.455 225.256C118.963 225.369 119.429 225.521 119.853 225.71C120.277 225.9 120.645 226.133 120.955 226.409C121.266 226.686 121.507 227.011 121.677 227.386C121.851 227.761 121.94 228.191 121.944 228.676C121.94 229.388 121.758 230.006 121.399 230.528C121.043 231.047 120.527 231.451 119.853 231.739C119.183 232.023 118.374 232.165 117.427 232.165C116.488 232.165 115.669 232.021 114.972 231.733C114.279 231.445 113.738 231.019 113.347 230.455C112.961 229.886 112.758 229.184 112.739 228.347H115.12C115.147 228.737 115.258 229.062 115.455 229.324C115.656 229.581 115.923 229.777 116.257 229.909C116.594 230.038 116.974 230.102 117.399 230.102C117.815 230.102 118.177 230.042 118.484 229.92C118.794 229.799 119.035 229.631 119.205 229.415C119.376 229.199 119.461 228.951 119.461 228.67C119.461 228.409 119.383 228.189 119.228 228.011C119.077 227.833 118.853 227.682 118.558 227.557C118.266 227.432 117.908 227.318 117.484 227.216L116.217 226.898C115.236 226.659 114.461 226.286 113.893 225.778C113.325 225.271 113.043 224.587 113.046 223.727C113.043 223.023 113.23 222.407 113.609 221.881C113.991 221.354 114.516 220.943 115.183 220.648C115.849 220.352 116.607 220.205 117.455 220.205C118.319 220.205 119.073 220.352 119.717 220.648C120.364 220.943 120.868 221.354 121.228 221.881C121.588 222.407 121.774 223.017 121.785 223.71H119.427ZM126.356 222.392V220.364H135.912V222.392H132.35V232H129.918V222.392H126.356ZM150.848 226.182C150.848 227.451 150.608 228.53 150.127 229.42C149.649 230.311 148.998 230.991 148.172 231.46C147.35 231.926 146.426 232.159 145.399 232.159C144.365 232.159 143.437 231.924 142.615 231.455C141.793 230.985 141.144 230.305 140.666 229.415C140.189 228.525 139.951 227.447 139.951 226.182C139.951 224.913 140.189 223.833 140.666 222.943C141.144 222.053 141.793 221.375 142.615 220.909C143.437 220.439 144.365 220.205 145.399 220.205C146.426 220.205 147.35 220.439 148.172 220.909C148.998 221.375 149.649 222.053 150.127 222.943C150.608 223.833 150.848 224.913 150.848 226.182ZM148.354 226.182C148.354 225.36 148.231 224.667 147.985 224.102C147.742 223.538 147.399 223.11 146.956 222.818C146.513 222.527 145.994 222.381 145.399 222.381C144.805 222.381 144.286 222.527 143.843 222.818C143.399 223.11 143.055 223.538 142.809 224.102C142.566 224.667 142.445 225.36 142.445 226.182C142.445 227.004 142.566 227.697 142.809 228.261C143.055 228.826 143.399 229.254 143.843 229.545C144.286 229.837 144.805 229.983 145.399 229.983C145.994 229.983 146.513 229.837 146.956 229.545C147.399 229.254 147.742 228.826 147.985 228.261C148.231 227.697 148.354 227.004 148.354 226.182ZM155.871 220.364H158.905L162.109 228.182H162.246L165.45 220.364H168.484V232H166.098V224.426H166.001L162.99 231.943H161.365L158.354 224.398H158.257V232H155.871V220.364ZM173.711 232V220.364H181.552V222.392H176.172V225.165H181.149V227.193H176.172V229.972H181.575V232H173.711ZM186.708 232V220.364H191.299C192.178 220.364 192.928 220.521 193.549 220.835C194.174 221.146 194.65 221.587 194.975 222.159C195.305 222.727 195.47 223.396 195.47 224.165C195.47 224.937 195.303 225.602 194.97 226.159C194.636 226.712 194.153 227.136 193.521 227.432C192.892 227.727 192.131 227.875 191.237 227.875H188.163V225.898H190.839C191.309 225.898 191.699 225.833 192.009 225.705C192.32 225.576 192.551 225.383 192.703 225.125C192.858 224.867 192.936 224.547 192.936 224.165C192.936 223.778 192.858 223.453 192.703 223.188C192.551 222.922 192.318 222.722 192.004 222.585C191.693 222.445 191.301 222.375 190.828 222.375H189.168V232H186.708ZM192.992 226.705L195.884 232H193.168L190.339 226.705H192.992Z" fill="#05391C"/>
</svg>
