<svg width="401" height="410" viewBox="0 0 401 410" fill="none" xmlns="http://www.w3.org/2000/svg">
<g clip-path="url(#clip0_2074_1200)">
<path opacity="0.3" d="M209.797 337.169H235.418L333.739 280.291L247.429 229.334L185.741 263.239L209.797 337.169Z" fill="#CFC4B8"/>
<path d="M115.827 258.495L120.412 255.829L126.629 259.417L122.044 262.083L115.827 258.495Z" fill="#E4E3EE"/>
<path d="M127.572 256.496L132.157 253.83L127.461 261.495L122.876 264.161L127.572 256.496Z" fill="#B7B6E3"/>
<path d="M138.407 261.162L142.991 258.495V260.095L138.407 262.75V261.162Z" fill="#919DD6"/>
<path d="M126.729 254.418L131.313 251.752L142.991 258.495L138.407 261.162L126.729 254.418Z" fill="#E4E3EE"/>
<path d="M138.407 261.162V262.75L127.572 256.496L122.877 264.161L115.827 260.084V258.495L122.044 262.084L126.729 254.418L138.407 261.162Z" fill="#919DD6"/>
<path d="M132.845 248.797L137.43 246.131L143.646 249.719L139.062 252.385L132.845 248.797Z" fill="#E4E3EE"/>
<path d="M144.59 246.798L149.175 244.132L144.479 251.797L139.894 254.463L144.59 246.798Z" fill="#B7B6E3"/>
<path d="M155.425 251.464L160.009 248.797L159.998 250.386L155.425 253.052V251.464Z" fill="#919DD6"/>
<path d="M143.746 244.72L148.331 242.054L160.009 248.797L155.425 251.464L143.746 244.72Z" fill="#E4E3EE"/>
<path d="M155.425 251.464V253.052L144.59 246.798L139.894 254.463L132.845 250.386V248.797L139.062 252.386L143.746 244.72L155.425 251.464Z" fill="#919DD6"/>
<path d="M149.141 239.077L153.726 236.411L159.943 239.999L155.358 242.665L149.141 239.077Z" fill="#E4E3EE"/>
<path d="M160.886 237.077L165.471 234.411L160.775 242.076L156.202 244.743L160.886 237.077Z" fill="#B7B6E3"/>
<path d="M171.721 241.754L176.305 239.088V240.676L171.721 243.343V241.754Z" fill="#919DD6"/>
<path d="M160.042 235L164.627 232.345L176.305 239.088L171.721 241.754L160.042 235Z" fill="#E4E3EE"/>
<path d="M171.721 241.754V243.343L160.886 237.077L156.202 244.742L149.141 240.665V239.077L155.358 242.665L160.042 235L171.721 241.754Z" fill="#919DD6"/>
<path d="M99.0095 269.038L103.583 266.372L109.8 269.971L105.215 272.626L99.0095 269.038Z" fill="#E4E3EE"/>
<path d="M110.743 267.049L115.328 264.383L110.643 272.048L106.059 274.714L110.743 267.049Z" fill="#B7B6E3"/>
<path d="M121.589 271.715L126.162 269.049V270.637L121.578 273.304L121.589 271.715Z" fill="#919DD6"/>
<path d="M109.911 264.972L114.495 262.306L126.162 269.049L121.589 271.715L109.911 264.972Z" fill="#E4E3EE"/>
<path d="M121.589 271.715L121.578 273.304L110.743 267.049L106.059 274.715L98.9984 270.638L99.0095 269.038L105.215 272.626L109.911 264.972L121.589 271.715Z" fill="#919DD6"/>
<path d="M167.269 228.834L171.843 226.168L178.059 229.756L173.475 232.423L167.269 228.834Z" fill="#E4E3EE"/>
<path d="M179.003 226.835L183.588 224.169L178.892 231.834L174.318 234.5L179.003 226.835Z" fill="#B7B6E3"/>
<path d="M189.838 231.512L194.422 228.845V230.434L189.838 233.089V231.512Z" fill="#919DD6"/>
<path d="M178.17 224.757L182.744 222.091L194.422 228.846L189.838 231.512L178.17 224.757Z" fill="#E4E3EE"/>
<path d="M189.838 231.512V233.089L179.003 226.835L174.318 234.5L167.258 230.423L167.269 228.835L173.475 232.423L178.17 224.758L189.838 231.512Z" fill="#919DD6"/>
<path d="M184.676 218.936L189.26 216.27L195.466 219.858L190.892 222.524L184.676 218.936Z" fill="#E4E3EE"/>
<path d="M196.42 216.937L200.994 214.281L196.309 221.947L191.725 224.602L196.42 216.937Z" fill="#B7B6E3"/>
<path d="M207.255 221.613L211.84 218.947L211.829 220.536L207.244 223.202L207.255 221.613Z" fill="#919DD6"/>
<path d="M195.577 214.87L200.161 212.204L211.84 218.947L207.255 221.613L195.577 214.87Z" fill="#E4E3EE"/>
<path d="M207.255 221.614L207.244 223.202L196.42 216.937L191.725 224.602L184.676 220.525V218.936L190.892 222.524L195.577 214.87L207.255 221.614Z" fill="#919DD6"/>
<path d="M302.335 258.729L297.75 256.062L291.545 259.651L296.118 262.317L302.335 258.729Z" fill="#E4E3EE"/>
<path d="M290.601 256.729L286.016 254.074L290.701 261.728L295.286 264.394L290.601 256.729Z" fill="#B7B6E3"/>
<path d="M279.755 261.406L275.171 258.74L275.182 260.328L279.766 262.995L279.755 261.406Z" fill="#919DD6"/>
<path d="M291.434 254.652L286.849 251.997L275.171 258.74L279.755 261.406L291.434 254.652Z" fill="#E4E3EE"/>
<path d="M279.755 261.406L279.766 262.994L290.601 256.729L295.286 264.394L302.346 260.317L302.335 258.729L296.118 262.317L291.434 254.652L279.755 261.406Z" fill="#919DD6"/>
<path d="M285.317 249.03L280.732 246.364L274.527 249.952L279.112 252.619L285.317 249.03Z" fill="#E4E3EE"/>
<path d="M273.583 247.031L268.999 244.365L273.683 252.03L278.268 254.696L273.583 247.031Z" fill="#B7B6E3"/>
<path d="M262.738 251.708L258.164 249.042V250.63L262.749 253.296L262.738 251.708Z" fill="#919DD6"/>
<path d="M274.416 244.954L269.831 242.287L258.164 249.042L262.738 251.708L274.416 244.954Z" fill="#E4E3EE"/>
<path d="M262.738 251.708L262.749 253.296L273.583 247.031L278.268 254.696L285.328 250.619L285.317 249.031L279.111 252.619L274.416 244.954L262.738 251.708Z" fill="#919DD6"/>
<path d="M269.021 239.31L264.436 236.655L258.231 240.243L262.804 242.909L269.021 239.31Z" fill="#E4E3EE"/>
<path d="M257.276 237.322L252.702 234.656L257.387 242.321L261.972 244.987L257.276 237.322Z" fill="#B7B6E3"/>
<path d="M246.441 241.987L241.857 239.321L241.868 240.91L246.441 243.576V241.987Z" fill="#919DD6"/>
<path d="M258.12 235.244L253.535 232.578L241.857 239.321L246.441 241.987L258.12 235.244Z" fill="#E4E3EE"/>
<path d="M246.441 241.988V243.576L257.276 237.322L261.972 244.987L269.021 240.91V239.31L262.804 242.91L258.12 235.244L246.441 241.988Z" fill="#919DD6"/>
<path d="M319.164 269.282L314.579 266.616L308.363 270.204L312.947 272.871L319.164 269.282Z" fill="#E4E3EE"/>
<path d="M307.419 267.283L302.834 264.616L307.53 272.282L312.104 274.948L307.419 267.283Z" fill="#B7B6E3"/>
<path d="M296.584 271.96L292 269.293V270.882L296.584 273.548V271.96Z" fill="#919DD6"/>
<path d="M308.263 265.205L303.678 262.539L292 269.293L296.584 271.96L308.263 265.205Z" fill="#E4E3EE"/>
<path d="M296.584 271.959V273.548L307.419 267.282L312.104 274.948L319.164 270.871V269.282L312.947 272.87L308.263 265.205L296.584 271.959Z" fill="#919DD6"/>
<path d="M250.904 229.068L246.319 226.402L240.103 229.99L244.687 232.656L250.904 229.068Z" fill="#E4E3EE"/>
<path d="M239.159 227.068L234.585 224.413L239.27 232.078L243.855 234.733L239.159 227.068Z" fill="#B7B6E3"/>
<path d="M228.324 231.745L223.74 229.079L223.751 230.667L228.324 233.334V231.745Z" fill="#919DD6"/>
<path d="M240.003 225.002L235.418 222.336L223.74 229.079L228.324 231.745L240.003 225.002Z" fill="#E4E3EE"/>
<path d="M228.324 231.745V233.334L239.159 227.068L243.855 234.733L250.904 230.656V229.068L244.687 232.656L240.003 225.002L228.324 231.745Z" fill="#919DD6"/>
<path d="M233.486 219.181L228.913 216.514L222.696 220.103L227.281 222.769L233.486 219.181Z" fill="#E4E3EE"/>
<path d="M221.753 217.181L217.168 214.515L221.853 222.18L226.437 224.846L221.753 217.181Z" fill="#B7B6E3"/>
<path d="M210.918 221.847L206.333 219.181V220.78L210.918 223.435V221.847Z" fill="#919DD6"/>
<path d="M222.585 215.104L218.012 212.438L206.333 219.181L210.918 221.847L222.585 215.104Z" fill="#E4E3EE"/>
<path d="M210.918 221.847V223.436L221.753 217.181L226.437 224.846L233.498 220.769L233.486 219.181L227.281 222.769L222.585 215.104L210.918 221.847Z" fill="#919DD6"/>
<path d="M308.029 269.093L307.996 280.069L209.808 337.169L209.841 326.194L308.029 269.093Z" fill="#005766"/>
<path d="M209.841 326.194L209.808 337.169L110.976 280.069L111.01 269.093L209.841 326.194Z" fill="#005766"/>
<path d="M308.029 269.093L209.841 326.194L111.01 269.093L209.198 211.993L308.029 269.093Z" fill="#00BF63"/>
<path d="M284.495 266.305L284.473 271.793L209.741 315.262L209.753 309.774L284.495 266.305Z" fill="#D4D5F0"/>
<path d="M209.753 309.774L209.742 315.262L134.51 271.793L134.521 266.305L209.753 309.774Z" fill="#C4C3EC"/>
<path d="M284.495 266.305L209.753 309.775L134.521 266.305L209.264 222.835L284.495 266.305Z" fill="white"/>
<path d="M102.939 297.41L98.3656 294.744L102.995 281.702L107.579 284.368L102.939 297.41Z" fill="#C4C3EC"/>
<path d="M107.579 284.368L102.995 281.702L114.673 274.959L119.246 277.625L107.579 284.368Z" fill="#E4E3EE"/>
<path d="M96.7337 300.999L92.149 298.343L98.3656 294.744L102.939 297.41L96.7337 300.999Z" fill="#E4E3EE"/>
<path d="M96.7337 302.598L92.149 299.932V298.344L96.7337 300.999V302.598Z" fill="#B7B6E3"/>
<path d="M119.247 277.625L119.258 279.214L108.423 285.468L103.794 298.521L96.7338 302.598V300.999L102.939 297.41L107.579 284.368L119.247 277.625Z" fill="#919DD6"/>
<path d="M120.168 307.275L115.594 304.609L120.223 291.567L124.797 294.233L120.168 307.275Z" fill="#C4C3EC"/>
<path d="M124.797 294.233L120.224 291.567L131.891 284.824L136.475 287.49L124.797 294.233Z" fill="#E4E3EE"/>
<path d="M113.951 310.863L109.378 308.208L115.594 304.609L120.168 307.275L113.951 310.863Z" fill="#E4E3EE"/>
<path d="M113.963 312.463L109.378 309.797V308.208L113.951 310.863L113.963 312.463Z" fill="#B7B6E3"/>
<path d="M136.475 287.49L136.486 289.078L125.641 295.333L121.023 308.386L113.963 312.463L113.951 310.863L120.168 307.275L124.797 294.233L136.475 287.49Z" fill="#919DD6"/>
<path d="M137.263 317.251L132.679 314.585L137.308 301.532L141.892 304.198L137.263 317.251Z" fill="#C4C3EC"/>
<path d="M141.893 304.198L137.308 301.532L148.986 294.789L153.571 297.455L141.893 304.198Z" fill="#E4E3EE"/>
<path d="M131.047 320.839L126.462 318.173L132.679 314.585L137.263 317.251L131.047 320.839Z" fill="#E4E3EE"/>
<path d="M131.047 322.428L126.462 319.762V318.173L131.047 320.839V322.428Z" fill="#B7B6E3"/>
<path d="M153.571 297.455V299.043L142.736 305.309L138.107 318.351L131.047 322.428V320.839L137.263 317.251L141.893 304.198L153.571 297.455Z" fill="#919DD6"/>
<path d="M154.348 327.149L149.763 324.483L154.392 311.43L158.977 314.096L154.348 327.149Z" fill="#C4C3EC"/>
<path d="M158.977 314.096L154.392 311.43L166.07 304.687L170.655 307.353L158.977 314.096Z" fill="#E4E3EE"/>
<path d="M148.131 330.737L143.547 328.071L149.763 324.483L154.348 327.149L148.131 330.737Z" fill="#E4E3EE"/>
<path d="M148.131 332.326L143.547 329.66V328.071L148.131 330.737V332.326Z" fill="#B7B6E3"/>
<path d="M170.655 307.353V308.941L159.821 315.207L155.191 328.249L148.131 332.326V330.737L154.348 327.149L158.977 314.096L170.655 307.353Z" fill="#919DD6"/>
<path d="M171.643 336.969L167.058 334.303L171.687 321.261L176.272 323.927L171.643 336.969Z" fill="#C4C3EC"/>
<path d="M176.272 323.927L171.688 321.261L183.366 314.518L187.95 317.184L176.272 323.927Z" fill="#E4E3EE"/>
<path d="M165.427 340.569L160.853 337.903L167.058 334.303L171.643 336.969L165.427 340.569Z" fill="#E4E3EE"/>
<path d="M165.438 342.157L160.853 339.491V337.903L165.427 340.569L165.438 342.157Z" fill="#B7B6E3"/>
<path d="M187.95 317.184V318.773L177.116 325.027L172.487 338.08L165.438 342.157L165.427 340.569L171.643 336.969L176.272 323.927L187.95 317.184Z" fill="#919DD6"/>
<path d="M188.616 346.89L184.032 344.223L188.661 331.181L193.246 333.836L188.616 346.89Z" fill="#C4C3EC"/>
<path d="M193.246 333.837L188.661 331.181L200.339 324.427L204.924 327.093L193.246 333.837Z" fill="#E4E3EE"/>
<path d="M182.4 350.478L177.815 347.812L184.032 344.223L188.616 346.89L182.4 350.478Z" fill="#E4E3EE"/>
<path d="M182.4 352.067L177.815 349.4V347.812L182.4 350.478V352.067Z" fill="#B7B6E3"/>
<path d="M204.924 327.093V328.682L194.089 334.947L189.46 347.989L182.4 352.066V350.478L188.616 346.89L193.246 333.836L204.924 327.093Z" fill="#919DD6"/>
<path d="M316.433 297.588L321.017 294.933L316.388 281.88L311.804 284.546L316.433 297.588Z" fill="#C4C3EC"/>
<path d="M311.804 284.546L316.388 281.88L304.71 275.137L300.125 277.803L311.804 284.546Z" fill="#E4E3EE"/>
<path d="M322.649 301.187L327.223 298.521L321.018 294.933L316.433 297.588L322.649 301.187Z" fill="#E4E3EE"/>
<path d="M322.638 302.776L327.223 300.11V298.521L322.649 301.187L322.638 302.776Z" fill="#B7B6E3"/>
<path d="M300.125 277.803V279.392L310.96 285.646L315.589 298.699L322.638 302.776L322.649 301.187L316.433 297.588L311.804 284.546L300.125 277.803Z" fill="#919DD6"/>
<path d="M299.204 307.453L303.789 304.798L299.16 291.745L294.575 294.411L299.204 307.453Z" fill="#C4C3EC"/>
<path d="M294.575 294.411L299.16 291.745L287.482 285.001L282.897 287.668L294.575 294.411Z" fill="#E4E3EE"/>
<path d="M305.421 311.052L310.006 308.386L303.789 304.798L299.204 307.453L305.421 311.052Z" fill="#E4E3EE"/>
<path d="M305.421 312.641L309.995 309.975L310.006 308.386L305.421 311.052V312.641Z" fill="#B7B6E3"/>
<path d="M282.897 287.668V289.256L293.732 295.511L298.361 308.564L305.421 312.641V311.052L299.204 307.453L294.575 294.411L282.897 287.668Z" fill="#919DD6"/>
<path d="M282.12 317.429L286.693 314.763L282.064 301.721L277.49 304.387L282.12 317.429Z" fill="#C4C3EC"/>
<path d="M277.491 304.387L282.064 301.721L270.386 294.966L265.812 297.632L277.491 304.387Z" fill="#E4E3EE"/>
<path d="M288.336 321.017L292.91 318.351L286.693 314.763L282.12 317.429L288.336 321.017Z" fill="#E4E3EE"/>
<path d="M288.325 322.606L292.91 319.939V318.351L288.336 321.017L288.325 322.606Z" fill="#B7B6E3"/>
<path d="M265.812 297.633L265.801 299.221L276.647 305.487L281.265 318.529L288.325 322.606L288.336 321.017L282.12 317.429L277.491 304.387L265.812 297.633Z" fill="#919DD6"/>
<path d="M265.035 327.327L269.609 324.661L264.98 311.619L260.406 314.274L265.035 327.327Z" fill="#C4C3EC"/>
<path d="M260.406 314.274L264.98 311.619L253.302 304.864L248.728 307.53L260.406 314.274Z" fill="#E4E3EE"/>
<path d="M271.252 330.915L275.826 328.249L269.609 324.661L265.035 327.327L271.252 330.915Z" fill="#E4E3EE"/>
<path d="M271.241 332.504L275.826 329.848V328.249L271.252 330.915L271.241 332.504Z" fill="#B7B6E3"/>
<path d="M248.728 307.53L248.717 309.119L259.552 315.384L264.181 328.426L271.241 332.503L271.252 330.915L265.035 327.327L260.406 314.273L248.728 307.53Z" fill="#919DD6"/>
<path d="M247.729 337.158L252.314 334.492L247.685 321.439L243.1 324.105L247.729 337.158Z" fill="#C4C3EC"/>
<path d="M243.1 324.105L247.685 321.439L236.006 314.696L231.422 317.362L243.1 324.105Z" fill="#E4E3EE"/>
<path d="M253.946 340.747L258.53 338.08L252.314 334.492L247.729 337.158L253.946 340.747Z" fill="#E4E3EE"/>
<path d="M253.946 342.335L258.519 339.669L258.53 338.08L253.946 340.747V342.335Z" fill="#B7B6E3"/>
<path d="M231.422 317.362V318.951L242.256 325.216L246.885 338.258L253.945 342.335V340.747L247.729 337.158L243.1 324.105L231.422 317.362Z" fill="#919DD6"/>
<path d="M230.767 347.068L235.34 344.401L230.722 331.359L226.137 334.026L230.767 347.068Z" fill="#C4C3EC"/>
<path d="M226.138 334.025L230.722 331.359L219.033 324.605L214.459 327.271L226.138 334.025Z" fill="#E4E3EE"/>
<path d="M236.983 350.655L241.557 347.989L235.34 344.401L230.767 347.067L236.983 350.655Z" fill="#E4E3EE"/>
<path d="M236.972 352.244L241.557 349.589V347.99L236.983 350.656L236.972 352.244Z" fill="#B7B6E3"/>
<path d="M214.459 327.271L214.448 328.86L225.294 335.125L229.912 348.167L236.972 352.244L236.983 350.655L230.767 347.067L226.138 334.025L214.459 327.271Z" fill="#919DD6"/>
<path d="M160.475 266.305L164.15 268.427L209.353 294.544V237.877L160.475 266.305Z" fill="#D4D5F0"/>
<path d="M209.353 237.877V294.544L209.664 294.733L254.878 268.438L258.552 266.305L209.353 237.877Z" fill="#C4C3EC"/>
<path d="M254.878 268.438L209.664 294.733L164.15 268.427L209.353 242.143L254.878 268.438Z" fill="#05D4F5"/>
<path d="M254.878 268.438L209.664 294.733L164.15 268.427L209.353 242.143L254.878 268.438Z" fill="#00BF63"/>
<path d="M233.953 264.528L233.942 267.272L228.58 270.382V267.638L233.953 264.528Z" fill="#D4D5F0"/>
<path d="M228.58 267.638V270.382L204.591 256.529L204.602 253.785L228.58 267.638Z" fill="#C4C3EC"/>
<path d="M233.953 264.528L228.58 267.638L204.602 253.785L209.964 250.664L233.953 264.528Z" fill="#EEEFF2"/>
<path d="M207.255 269.049V271.804L203.214 270.693L199.64 269.76L196.753 269.027L194.789 268.538V265.794L196.765 266.283L199.651 267.016L203.225 267.949L207.255 269.049Z" fill="#1393F2"/>
<path d="M207.255 269.049V271.804L203.214 270.693L199.64 269.76L196.753 269.027L194.789 268.538V265.794L196.765 266.283L199.651 267.016L203.225 267.949L207.255 269.049Z" fill="#C4C3EC"/>
<path d="M216.358 271.782V274.526L212.828 273.537V270.793L216.358 271.782Z" fill="#1393F2"/>
<path d="M216.358 271.782V274.526L212.828 273.537V270.793L216.358 271.782Z" fill="#C4C3EC"/>
<path d="M219.777 272.77V275.514C218.667 275.181 217.557 274.859 216.358 274.526V271.782C217.534 272.115 218.678 272.437 219.777 272.77Z" fill="#1393F2"/>
<path d="M219.777 272.77V275.514C218.667 275.181 217.557 274.859 216.358 274.526V271.782C217.534 272.115 218.678 272.437 219.777 272.77Z" fill="#C4C3EC"/>
<path d="M225.527 269.427L225.516 272.171L219.766 275.503L219.777 272.759L225.527 269.427Z" fill="#D4D5F0"/>
<path d="M212.828 270.793L212.817 273.537L203.503 278.947L203.514 276.203L212.828 270.793Z" fill="#D4D5F0"/>
<path d="M201.383 283.457V286.213C199.695 284.191 198.16 282.313 196.776 280.58C195.392 278.847 194.115 277.199 192.946 275.637C191.78 274.059 190.726 272.56 189.704 271.115C188.683 269.671 187.784 268.249 186.929 266.816V264.072C187.784 265.494 188.716 266.927 189.704 268.371C190.692 269.816 191.78 271.315 192.957 272.893C194.134 274.47 195.399 276.103 196.787 277.836C198.174 279.569 199.695 281.447 201.383 283.457Z" fill="#1393F2"/>
<path d="M201.383 283.457V286.213C199.695 284.191 198.16 282.313 196.776 280.58C195.392 278.847 194.115 277.199 192.946 275.637C191.78 274.059 190.726 272.56 189.704 271.115C188.683 269.671 187.784 268.249 186.929 266.816V264.072C187.784 265.494 188.716 266.927 189.704 268.371C190.692 269.816 191.78 271.315 192.957 272.893C194.134 274.47 195.399 276.103 196.787 277.836C198.174 279.569 199.695 281.447 201.383 283.457Z" fill="#C4C3EC"/>
<path d="M206.955 280.214L206.944 282.969L201.383 286.201V283.457L206.955 280.214Z" fill="#D4D5F0"/>
<path d="M216.358 271.782L212.817 270.793L203.514 276.203L205.235 278.247C205.812 278.936 206.345 279.591 206.955 280.225L201.405 283.457C199.717 281.443 198.182 279.569 196.798 277.836C195.414 276.103 194.137 274.455 192.968 272.893C191.791 271.315 190.748 269.816 189.715 268.371C188.683 266.927 187.795 265.494 186.94 264.072L192.024 261.117C194.467 261.613 196.938 262.147 199.44 262.717C201.949 263.283 204.557 263.894 207.266 264.572C209.975 265.25 212.817 265.972 215.825 266.794C218.833 267.616 222.064 268.471 225.538 269.449L219.799 272.782C218.678 272.437 217.534 272.115 216.358 271.782ZM200.494 273.015L207.31 269.049L203.27 267.938L199.695 267.005L196.809 266.272L194.833 265.783C195.066 266.061 195.366 266.427 195.732 266.894C196.098 267.36 196.531 267.927 197.031 268.549C197.531 269.171 198.052 269.871 198.63 270.627C199.207 271.382 199.784 272.204 200.494 273.015Z" fill="#EEEFF2"/>
<path d="M210.041 380.528L47.5787 286.679L208.987 192.786L371.449 286.679L210.041 380.528ZM51.8859 286.679L210.03 378.051L367.142 286.679L208.998 195.307L51.8859 286.679Z" fill="#3057A4"/>
<path d="M72.7668 299.987L60.7556 306.931C60.6691 306.979 60.5716 307.005 60.4725 307.005C60.3733 307.005 60.2758 306.979 60.1894 306.931L47.8673 299.81L7.90389 322.916L4.18507 325.072C4.09558 325.118 3.99713 325.145 3.89644 325.149C3.79683 325.148 3.69922 325.121 3.61346 325.071C3.5277 325.02 3.45683 324.947 3.408 324.861C3.33405 324.73 3.31355 324.576 3.35083 324.431C3.38811 324.286 3.48025 324.161 3.60782 324.083L6.74939 322.261L47.612 298.666C47.6984 298.617 47.7959 298.591 47.8951 298.591C47.9943 298.591 48.0918 298.617 48.1782 298.666L60.5002 305.775L71.6012 299.332L72.7668 299.987Z" fill="#3057A4"/>
<path d="M169.634 354.866L167.735 355.977L156.801 362.298C156.715 362.347 156.617 362.372 156.518 362.372C156.419 362.372 156.321 362.347 156.235 362.298L143.88 355.155L128.338 364.142L127.228 364.797L103.605 378.439L100.197 380.406C100.11 380.459 100.01 380.486 99.9086 380.483C99.8103 380.483 99.7138 380.457 99.6284 380.408C99.5429 380.359 99.4712 380.29 99.4202 380.206C99.3826 380.141 99.3582 380.069 99.3484 379.995C99.3387 379.921 99.3438 379.845 99.3634 379.773C99.383 379.7 99.4168 379.633 99.4627 379.574C99.5087 379.514 99.5659 379.465 99.6311 379.428L102.662 377.673L126.118 364.142L127.228 363.475L143.624 354C143.711 353.951 143.808 353.925 143.907 353.925C144.006 353.925 144.104 353.951 144.19 354L156.512 361.12L166.581 355.299L168.479 354.188L169.634 354.866Z" fill="#3057A4"/>
<path d="M132.257 333.259L130.359 334.37L119.724 340.535C119.637 340.584 119.54 340.61 119.441 340.61C119.342 340.61 119.244 340.584 119.158 340.535L106.847 333.415L90.9946 342.568L89.8845 343.224L67.1831 356.355L63.1645 358.676C63.0748 358.721 62.976 358.744 62.8759 358.743C62.7523 358.741 62.6328 358.699 62.5355 358.623C62.4382 358.546 62.3684 358.44 62.337 358.321C62.3055 358.201 62.3141 358.075 62.3613 357.96C62.4085 357.846 62.4917 357.75 62.5984 357.688L66.2728 355.555L88.7522 342.568L89.8623 341.913L106.514 332.259C106.6 332.211 106.698 332.185 106.797 332.185C106.896 332.185 106.993 332.211 107.08 332.259L119.402 339.38L129.171 333.737L131.069 332.626L132.257 333.259Z" fill="#3057A4"/>
<path d="M102.429 316.029L100.53 317.14L60.356 340.358L57.2921 342.091C57.2046 342.142 57.1049 342.169 57.0035 342.168C56.9034 342.17 56.8048 342.144 56.7186 342.093C56.6325 342.042 56.562 341.968 56.515 341.879C56.477 341.815 56.4519 341.744 56.4414 341.67C56.4308 341.597 56.4349 341.521 56.4535 341.449C56.4721 341.377 56.5047 341.309 56.5496 341.249C56.5944 341.19 56.6506 341.14 56.7148 341.102L59.2348 339.647L99.3536 316.473L101.252 315.362L102.429 316.029Z" fill="#3057A4"/>
<path d="M183.377 362.809L181.478 363.92L141.859 386.816L138.795 388.582C138.712 388.633 138.616 388.66 138.518 388.66C138.445 388.679 138.369 388.683 138.294 388.673C138.22 388.662 138.148 388.637 138.083 388.599C138.018 388.561 137.961 388.51 137.916 388.45C137.87 388.39 137.837 388.322 137.818 388.249C137.799 388.176 137.795 388.1 137.805 388.025C137.816 387.95 137.841 387.879 137.879 387.814C137.917 387.749 137.968 387.692 138.028 387.646C138.088 387.601 138.156 387.568 138.229 387.549L140.716 386.116L180.346 363.22L182.244 362.109L183.377 362.809Z" fill="#3057A4"/>
<path d="M145.045 340.646L143.147 341.757L116.383 357.199L115.272 357.854L103.139 364.875L99.9642 366.708C99.8745 366.753 99.7756 366.775 99.6756 366.775C99.5768 366.776 99.4795 366.751 99.3937 366.702C99.3078 366.654 99.2365 366.583 99.1871 366.497C99.1495 366.432 99.1252 366.361 99.1154 366.286C99.1057 366.212 99.1107 366.137 99.1304 366.064C99.15 365.992 99.1837 365.924 99.2297 365.865C99.2756 365.806 99.3329 365.756 99.398 365.719L102.029 364.197L114.14 357.199L115.25 356.543L142.004 341.08L143.902 339.969L145.045 340.646Z" fill="#3057A4"/>
<path d="M144.457 373.429L129.448 382.094L125.252 384.516L124.686 383.527L128.46 381.35L142.181 373.429L127.239 364.786L126.096 364.131L115.25 357.865L114.118 357.21L89.8623 343.19L88.7189 342.535L78.8612 336.836L106.558 320.606L108.445 319.495L109.578 320.15L107.69 321.261L81.1258 336.825L89.8623 341.879L90.9946 342.535L115.25 356.543L116.382 357.21L127.239 363.475L128.371 364.131L144.457 373.429Z" fill="#3057A4"/>
<path d="M7.40434 322.583C9.10279 323.561 9.10279 325.149 7.40434 326.127C6.45291 326.609 5.40141 326.861 4.33492 326.861C3.26844 326.861 2.21694 326.609 1.26551 326.127C-0.421837 325.149 -0.421837 323.561 1.26551 322.583C2.21694 322.101 3.26844 321.85 4.33492 321.85C5.40141 321.85 6.45291 322.101 7.40434 322.583Z" fill="#3057A4"/>
<path d="M81.9695 320.884C81.9686 320.983 81.9415 321.081 81.8908 321.167C81.8401 321.253 81.7677 321.324 81.6809 321.372L47.3012 341.269L44.1485 343.09C44.0623 343.134 43.9674 343.156 43.871 343.157C43.771 343.157 43.6727 343.132 43.5853 343.083C43.4979 343.034 43.4243 342.964 43.3715 342.879C43.3339 342.815 43.3095 342.743 43.2997 342.669C43.29 342.594 43.2951 342.519 43.3147 342.447C43.3343 342.374 43.3681 342.306 43.414 342.247C43.46 342.188 43.5172 342.139 43.5824 342.102L46.1911 340.591L80.3044 320.884L67.6382 313.563C67.5531 313.511 67.4828 313.439 67.434 313.352C67.3852 313.266 67.3596 313.168 67.3596 313.068C67.3596 312.969 67.3852 312.871 67.434 312.785C67.4828 312.698 67.5531 312.625 67.6382 312.574L80.1712 305.342L82.0694 304.231L83.1795 304.887L81.2701 305.998L69.0591 313.074L81.7142 320.384C81.7965 320.438 81.8633 320.512 81.9081 320.6C81.9528 320.687 81.974 320.785 81.9695 320.884Z" fill="#3057A4"/>
<path d="M46.6685 340.846C48.3669 341.824 48.3669 343.413 46.6685 344.39C45.7171 344.872 44.6656 345.124 43.5991 345.124C42.5326 345.124 41.4811 344.872 40.5297 344.39C38.8423 343.413 38.8423 341.824 40.5297 340.846C41.4811 340.364 42.5326 340.113 43.5991 340.113C44.6656 340.113 45.7171 340.364 46.6685 340.846Z" fill="#3057A4"/>
<path d="M190.803 382.983C190.801 383.084 190.773 383.182 190.723 383.27C190.673 383.357 190.601 383.43 190.515 383.483L156.99 402.857L152.938 405.19C152.851 405.243 152.751 405.27 152.649 405.267C152.549 405.268 152.451 405.241 152.365 405.19C152.279 405.139 152.209 405.066 152.161 404.979C152.087 404.848 152.066 404.694 152.104 404.549C152.141 404.404 152.233 404.279 152.361 404.201L155.891 402.168L189.094 382.983L176.428 375.662C176.339 375.614 176.266 375.544 176.214 375.458C176.163 375.372 176.136 375.273 176.136 375.173C176.136 375.073 176.163 374.975 176.214 374.889C176.266 374.803 176.339 374.732 176.428 374.684L188.283 367.83L190.182 366.719L191.292 367.386L189.393 368.497L177.826 375.162L190.504 382.494C190.592 382.541 190.667 382.612 190.72 382.698C190.772 382.784 190.801 382.882 190.803 382.983Z" fill="#3057A4"/>
<path d="M156.368 402.402C158.067 403.379 158.067 404.968 156.368 405.945C155.421 406.436 154.371 406.692 153.304 406.692C152.238 406.692 151.187 406.436 150.24 405.945C148.542 404.968 148.542 403.379 150.24 402.402C151.19 401.919 152.24 401.668 153.304 401.668C154.369 401.668 155.419 401.919 156.368 402.402Z" fill="#3057A4"/>
<path d="M59.701 339.869C61.3994 340.846 61.3994 342.435 59.701 343.413C58.7515 343.895 57.7018 344.146 56.6371 344.146C55.5724 344.146 54.5228 343.895 53.5733 343.413C51.8748 342.435 51.8748 340.846 53.5733 339.869C54.5228 339.387 55.5724 339.135 56.6371 339.135C57.7018 339.135 58.7515 339.387 59.701 339.869Z" fill="#3057A4"/>
<path d="M66.2283 355.522C67.9157 356.499 67.9157 358.088 66.2283 359.065C65.2769 359.547 64.2254 359.799 63.1589 359.799C62.0924 359.799 61.0409 359.547 60.0895 359.065C58.3911 358.088 58.3911 356.499 60.0895 355.522C61.0409 355.039 62.0924 354.788 63.1589 354.788C64.2254 354.788 65.2769 355.039 66.2283 355.522Z" fill="#3057A4"/>
<path d="M102.562 364.486C104.249 365.464 104.249 367.053 102.562 368.03C101.61 368.512 100.559 368.764 99.4923 368.764C98.4258 368.764 97.3743 368.512 96.4229 368.03C94.7244 367.053 94.7244 365.464 96.4229 364.486C97.3743 364.004 98.4258 363.753 99.4923 363.753C100.559 363.753 101.61 364.004 102.562 364.486Z" fill="#3057A4"/>
<path d="M102.717 377.695C104.416 378.673 104.416 380.261 102.717 381.239C101.766 381.721 100.714 381.972 99.6478 381.972C98.5813 381.972 97.5298 381.721 96.5784 381.239C94.891 380.261 94.891 378.673 96.5784 377.695C97.5298 377.213 98.5813 376.962 99.6478 376.962C100.714 376.962 101.766 377.213 102.717 377.695Z" fill="#3057A4"/>
<path d="M128.627 381.439C130.325 382.427 130.325 384.016 128.627 384.994C127.675 385.476 126.624 385.727 125.557 385.727C124.491 385.727 123.439 385.476 122.488 384.994C120.789 384.016 120.789 382.427 122.488 381.439C123.439 380.957 124.491 380.705 125.557 380.705C126.624 380.705 127.675 380.957 128.627 381.439Z" fill="#3057A4"/>
<path d="M141.382 386.46C143.08 387.438 143.08 389.026 141.382 390.004C140.43 390.486 139.379 390.737 138.312 390.737C137.246 390.737 136.194 390.486 135.243 390.004C133.556 389.026 133.556 387.438 135.243 386.46C136.194 385.978 137.246 385.727 138.312 385.727C139.379 385.727 140.43 385.978 141.382 386.46Z" fill="#3057A4"/>
<path d="M380.408 339.247C380.355 339.333 380.282 339.405 380.195 339.455C380.108 339.506 380.009 339.533 379.908 339.536C379.807 339.531 379.709 339.504 379.619 339.458L376.167 337.458L342.043 317.74C341.957 317.69 341.886 317.619 341.838 317.533C341.789 317.447 341.764 317.35 341.765 317.251C341.764 317.151 341.789 317.052 341.838 316.964C341.886 316.876 341.957 316.803 342.043 316.751L354.709 309.43L343.341 302.854L341.454 301.743L342.564 301.076L344.463 302.187L356.108 308.919C356.195 308.968 356.269 309.04 356.319 309.127C356.37 309.214 356.397 309.313 356.397 309.413C356.397 309.514 356.37 309.613 356.319 309.7C356.269 309.787 356.195 309.859 356.108 309.908L343.464 317.206L377.444 336.836L380.197 338.425C380.267 338.462 380.328 338.514 380.377 338.577C380.427 338.64 380.462 338.712 380.482 338.79C380.502 338.867 380.505 338.947 380.493 339.026C380.48 339.105 380.451 339.18 380.408 339.247Z" fill="#3057A4"/>
<path d="M262.549 407.511C262.5 407.597 262.428 407.668 262.342 407.717C262.257 407.766 262.159 407.791 262.06 407.789C261.96 407.79 261.862 407.767 261.772 407.723L258.442 405.778L224.217 386.004C224.129 385.955 224.056 385.884 224.005 385.797C223.955 385.71 223.928 385.611 223.928 385.51C223.928 385.409 223.955 385.31 224.005 385.224C224.056 385.137 224.129 385.065 224.217 385.016L236.883 377.695L225.783 371.274L223.884 370.163L224.994 369.508L226.893 370.618L238.238 377.195C238.325 377.244 238.397 377.315 238.448 377.401C238.498 377.486 238.526 377.584 238.526 377.684C238.526 377.785 238.5 377.885 238.449 377.972C238.398 378.06 238.326 378.133 238.238 378.184L225.572 385.505L259.696 405.223L262.305 406.723C262.374 406.757 262.436 406.804 262.486 406.863C262.537 406.922 262.574 406.99 262.597 407.064C262.62 407.138 262.628 407.216 262.619 407.293C262.611 407.37 262.587 407.444 262.549 407.511Z" fill="#3057A4"/>
<path d="M320.651 370.852C320.602 370.938 320.531 371.01 320.445 371.06C320.359 371.111 320.262 371.139 320.163 371.141C320.061 371.143 319.961 371.116 319.874 371.063L316.733 369.241L290.834 354.277C290.749 354.228 290.678 354.156 290.629 354.07C290.58 353.985 290.555 353.887 290.557 353.788C290.556 353.688 290.581 353.589 290.629 353.502C290.678 353.414 290.749 353.341 290.834 353.288L300.436 347.734L291.789 342.646L290.679 341.979L283.43 337.714L281.554 336.603L282.664 335.947L284.529 337.058L291.789 341.324L292.899 341.991L301.835 347.245C301.921 347.297 301.991 347.371 302.04 347.458C302.089 347.546 302.114 347.645 302.113 347.745C302.112 347.843 302.086 347.94 302.037 348.025C301.989 348.111 301.919 348.183 301.835 348.234L292.244 353.788L318.254 368.819L320.474 370.074C320.6 370.154 320.689 370.281 320.722 370.426C320.756 370.572 320.73 370.725 320.651 370.852Z" fill="#3057A4"/>
<path d="M367.686 369.341C367.649 369.406 367.6 369.464 367.541 369.51C367.481 369.556 367.414 369.589 367.341 369.609C367.269 369.629 367.194 369.634 367.119 369.624C367.045 369.614 366.974 369.59 366.909 369.552L363.579 367.619L316.366 340.335C316.281 340.284 316.211 340.211 316.162 340.125C316.113 340.038 316.088 339.941 316.088 339.841C316.088 339.742 316.113 339.644 316.162 339.557C316.211 339.471 316.281 339.398 316.366 339.347L333.706 329.349L315.733 318.951L313.835 317.84L314.945 317.184L316.832 318.295L335.105 328.849C335.192 328.898 335.266 328.97 335.316 329.057C335.367 329.143 335.394 329.242 335.394 329.343C335.394 329.444 335.367 329.543 335.316 329.63C335.266 329.717 335.192 329.788 335.105 329.837L317.776 339.836L364.877 367.053L367.475 368.552C367.542 368.589 367.6 368.639 367.647 368.699C367.694 368.759 367.728 368.828 367.748 368.902C367.768 368.975 367.773 369.052 367.762 369.128C367.751 369.203 367.725 369.276 367.686 369.341Z" fill="#3057A4"/>
<path d="M317.055 383.594C317.002 383.679 316.928 383.749 316.841 383.798C316.753 383.846 316.655 383.872 316.555 383.872C316.457 383.872 316.361 383.845 316.278 383.794L313.391 382.139L279.977 362.831L261.55 373.485C261.463 373.533 261.366 373.559 261.267 373.559C261.168 373.559 261.07 373.533 260.984 373.485L241.413 362.165L239.514 361.054L240.625 360.398L242.523 361.509L261.239 372.329L279.667 361.643C279.753 361.594 279.851 361.568 279.95 361.568C280.049 361.568 280.146 361.594 280.233 361.643L314.512 381.45L316.822 382.783C316.892 382.819 316.954 382.869 317.005 382.93C317.055 382.991 317.092 383.062 317.114 383.138C317.136 383.214 317.142 383.294 317.132 383.372C317.121 383.451 317.095 383.526 317.055 383.594Z" fill="#3057A4"/>
<path d="M367.175 338.247C367.128 338.335 367.057 338.408 366.971 338.459C366.885 338.509 366.787 338.536 366.687 338.536C366.585 338.538 366.485 338.511 366.398 338.458L363.146 336.581L324.137 314.04L322.239 312.93L323.349 312.274L325.236 313.385L364.334 335.97L366.931 337.469C366.999 337.503 367.06 337.551 367.109 337.609C367.158 337.667 367.195 337.734 367.218 337.806C367.241 337.879 367.249 337.955 367.242 338.031C367.234 338.107 367.212 338.18 367.175 338.247Z" fill="#3057A4"/>
<path d="M397.326 320.539C397.275 320.627 397.202 320.7 397.114 320.751C397.027 320.801 396.927 320.828 396.826 320.828C396.729 320.823 396.634 320.797 396.548 320.75L392.974 318.684L354.409 296.433L352.511 295.322L353.621 294.655L355.519 295.766L394.04 317.984L397.092 319.739C397.162 319.774 397.225 319.823 397.275 319.883C397.325 319.943 397.362 320.013 397.384 320.088C397.406 320.163 397.412 320.242 397.402 320.32C397.392 320.397 397.366 320.472 397.326 320.539Z" fill="#3057A4"/>
<path d="M332.13 358.21C332.079 358.295 332.008 358.365 331.922 358.414C331.837 358.462 331.74 358.488 331.641 358.488C331.54 358.49 331.439 358.463 331.353 358.41L327.834 356.377L297.939 339.102L296.829 338.447L289.491 334.203L287.604 333.092L288.714 332.437L290.601 333.548L297.95 337.792L299.06 338.447L328.855 355.655L331.908 357.421C331.974 357.458 332.033 357.508 332.08 357.568C332.127 357.628 332.162 357.696 332.183 357.769C332.203 357.843 332.209 357.919 332.2 357.995C332.191 358.071 332.167 358.144 332.13 358.21Z" fill="#3057A4"/>
<path d="M275.548 391.215C275.497 391.302 275.425 391.375 275.337 391.426C275.249 391.477 275.15 391.503 275.049 391.503C274.951 391.504 274.854 391.477 274.771 391.426L271.441 389.537L232.787 367.197L230.889 366.086L231.999 365.419L233.886 366.53L272.684 388.937L275.304 390.459C275.435 390.528 275.535 390.646 275.58 390.787C275.626 390.928 275.614 391.082 275.548 391.215Z" fill="#3057A4"/>
<path d="M317.299 327.915L299.082 338.447L297.939 339.102L292.932 341.991L291.8 342.646L268.954 355.844L265.535 357.821L264.969 356.832L268.01 355.077L290.667 341.991L291.8 341.324L296.795 338.447L297.939 337.78L315.023 327.915L307.619 323.639L305.731 322.55L306.864 321.883L308.762 322.983L317.299 327.915Z" fill="#3057A4"/>
<path d="M264.647 405.723C266.334 406.701 266.334 408.289 264.647 409.267C263.697 409.754 262.645 410.008 261.578 410.008C260.51 410.008 259.458 409.754 258.508 409.267C256.81 408.289 256.81 406.701 258.508 405.723C259.46 405.241 260.511 404.99 261.578 404.99C262.644 404.99 263.696 405.241 264.647 405.723Z" fill="#3057A4"/>
<path d="M277.968 389.315C279.666 390.293 279.666 391.881 277.968 392.859C277.017 393.341 275.965 393.592 274.899 393.592C273.832 393.592 272.781 393.341 271.829 392.859C270.142 391.881 270.142 390.293 271.829 389.315C272.779 388.828 273.831 388.573 274.899 388.573C275.966 388.573 277.018 388.828 277.968 389.315Z" fill="#3057A4"/>
<path d="M268.055 355.11C269.753 356.088 269.753 357.677 268.055 358.654C267.103 359.136 266.052 359.388 264.985 359.388C263.919 359.388 262.867 359.136 261.916 358.654C260.229 357.677 260.229 356.088 261.916 355.11C262.867 354.628 263.919 354.377 264.985 354.377C266.052 354.377 267.103 354.628 268.055 355.11Z" fill="#3057A4"/>
<path d="M320.007 381.783C321.695 382.761 321.695 384.349 320.007 385.327C319.058 385.814 318.005 386.069 316.938 386.069C315.871 386.069 314.818 385.814 313.869 385.327C312.17 384.349 312.17 382.761 313.869 381.783C314.82 381.301 315.871 381.05 316.938 381.05C318.004 381.05 319.056 381.301 320.007 381.783Z" fill="#3057A4"/>
<path d="M322.394 369.474C324.093 370.452 324.093 372.041 322.394 373.018C321.443 373.5 320.391 373.752 319.325 373.752C318.258 373.752 317.207 373.5 316.255 373.018C314.568 372.041 314.568 370.452 316.255 369.474C317.207 368.992 318.258 368.741 319.325 368.741C320.391 368.741 321.443 368.992 322.394 369.474Z" fill="#3057A4"/>
<path d="M334.705 355.81C336.404 356.788 336.404 358.377 334.705 359.354C333.754 359.836 332.702 360.088 331.636 360.088C330.569 360.088 329.518 359.836 328.566 359.354C326.879 358.377 326.879 356.788 328.566 355.81C329.518 355.328 330.569 355.077 331.636 355.077C332.702 355.077 333.754 355.328 334.705 355.81Z" fill="#3057A4"/>
<path d="M369.806 367.552C371.505 368.53 371.505 370.119 369.806 371.096C368.857 371.578 367.807 371.829 366.743 371.829C365.678 371.829 364.628 371.578 363.679 371.096C361.98 370.119 361.98 368.53 363.679 367.552C364.628 367.07 365.678 366.819 366.743 366.819C367.807 366.819 368.857 367.07 369.806 367.552Z" fill="#3057A4"/>
<path d="M366.554 340.647C368.951 340.647 370.894 339.522 370.894 338.136C370.894 336.749 368.951 335.625 366.554 335.625C364.156 335.625 362.213 336.749 362.213 338.136C362.213 339.522 364.156 340.647 366.554 340.647Z" fill="#3057A4"/>
<path d="M382.55 337.325C384.249 338.302 384.249 339.891 382.55 340.88C381.599 341.362 380.547 341.613 379.481 341.613C378.414 341.613 377.363 341.362 376.411 340.88C374.713 339.891 374.713 338.302 376.411 337.325C377.363 336.843 378.414 336.591 379.481 336.591C380.547 336.591 381.599 336.843 382.55 337.325Z" fill="#3057A4"/>
<path d="M399.723 318.317C401.411 319.295 401.411 320.884 399.723 321.861C398.772 322.343 397.72 322.595 396.654 322.595C395.588 322.595 394.536 322.343 393.585 321.861C391.886 320.884 391.886 319.295 393.585 318.317C394.536 317.835 395.588 317.584 396.654 317.584C397.72 317.584 398.772 317.835 399.723 318.317Z" fill="#3057A4"/>
<path d="M167.98 181.321C167.98 181.421 167.954 181.52 167.906 181.607C167.857 181.695 167.787 181.768 167.702 181.821L158.688 187.231L157.578 187.909L146.266 194.685L145.156 195.352L134.533 201.673L164.339 218.892L166.237 220.003L165.127 220.658L163.228 219.547L133.156 202.162C133.071 202.112 133 202.04 132.951 201.955C132.902 201.869 132.876 201.772 132.876 201.673C132.876 201.574 132.902 201.477 132.951 201.391C133 201.305 133.071 201.234 133.156 201.184L144.057 194.652L145.167 193.974L156.49 187.198L157.6 186.52L166.326 181.288L149.563 171.679L146.732 170.046C146.662 170.012 146.6 169.964 146.549 169.904C146.498 169.845 146.46 169.776 146.437 169.702C146.415 169.627 146.407 169.549 146.416 169.471C146.425 169.394 146.45 169.319 146.489 169.251C146.528 169.184 146.58 169.125 146.643 169.079C146.706 169.033 146.778 169 146.854 168.983C146.93 168.966 147.009 168.964 147.085 168.979C147.162 168.994 147.234 169.024 147.299 169.068L150.629 171.001L167.669 180.843C167.758 180.888 167.834 180.956 167.889 181.04C167.943 181.124 167.975 181.221 167.98 181.321Z" fill="#3057A4"/>
<path d="M66.0729 277.214L36.7996 260.262L49.5213 252.941C49.6082 252.892 49.6806 252.821 49.7313 252.735C49.7819 252.649 49.8091 252.552 49.81 252.452C49.8078 252.351 49.7802 252.252 49.7297 252.165C49.6793 252.078 49.6076 252.004 49.5213 251.952L32.326 242.021L29.1289 240.177C29.0645 240.137 28.9929 240.112 28.9183 240.101C28.8437 240.091 28.7677 240.095 28.695 240.115C28.6223 240.135 28.5544 240.169 28.4954 240.216C28.4364 240.263 28.3875 240.321 28.3518 240.388C28.3142 240.452 28.2898 240.524 28.2801 240.598C28.2703 240.673 28.2754 240.748 28.295 240.821C28.3147 240.893 28.3484 240.961 28.3944 241.02C28.4403 241.079 28.4975 241.128 28.5627 241.165L30.9938 242.576L48.1004 252.452L35.3787 259.773C35.2935 259.823 35.2229 259.894 35.1738 259.98C35.1247 260.066 35.0988 260.163 35.0988 260.262C35.0988 260.36 35.1247 260.458 35.1738 260.543C35.2229 260.629 35.2935 260.7 35.3787 260.75L64.9406 277.836L66.0729 277.214Z" fill="#3057A4"/>
<path d="M125.641 243.632L124.531 244.287L122.632 243.176L102.251 231.434C102.163 231.385 102.09 231.313 102.039 231.226C101.988 231.139 101.961 231.04 101.961 230.94C101.961 230.839 101.988 230.74 102.039 230.653C102.09 230.566 102.163 230.494 102.251 230.445L111.853 224.891L88.3748 211.06L86.1546 209.749C86.0904 209.711 86.0344 209.661 85.9896 209.601C85.9449 209.542 85.9123 209.474 85.8937 209.402C85.8752 209.33 85.871 209.254 85.8815 209.181C85.892 209.107 85.9169 209.036 85.9548 208.972C85.9927 208.907 86.0428 208.851 86.1024 208.806C86.1619 208.762 86.2297 208.729 86.3019 208.711C86.3741 208.692 86.4492 208.688 86.5229 208.698C86.5967 208.709 86.6677 208.734 86.7318 208.772L89.5737 210.449L113.296 224.413C113.383 224.462 113.456 224.533 113.506 224.619C113.557 224.704 113.584 224.802 113.585 224.902C113.585 225.003 113.558 225.103 113.508 225.19C113.457 225.278 113.384 225.351 113.296 225.402L103.705 230.956L123.776 242.543L125.641 243.632Z" fill="#3057A4"/>
<path d="M151.084 228.834L149.974 229.49L148.087 228.379L116.416 210.082C116.328 210.033 116.255 209.961 116.204 209.875C116.153 209.788 116.126 209.689 116.126 209.588C116.126 209.487 116.153 209.388 116.204 209.302C116.255 209.215 116.328 209.143 116.416 209.094L130.392 201.017L112.63 190.753L108.867 188.531C108.738 188.454 108.644 188.329 108.606 188.184C108.569 188.038 108.591 187.883 108.667 187.753C108.744 187.624 108.869 187.53 109.014 187.492C109.16 187.455 109.315 187.477 109.444 187.553L113.729 190.031L131.779 200.562C131.869 200.611 131.943 200.683 131.994 200.771C132.045 200.86 132.07 200.96 132.068 201.062C132.07 201.162 132.043 201.261 131.993 201.347C131.942 201.433 131.868 201.504 131.779 201.551L117.803 209.627L149.186 227.768L151.084 228.834Z" fill="#3057A4"/>
<path d="M111.298 251.963L110.188 252.63L108.301 251.519L87.5976 239.588L72.8334 248.131C72.7469 248.179 72.6495 248.205 72.5503 248.205C72.4511 248.205 72.3536 248.179 72.2672 248.131L52.2855 236.577L49.8211 235.155C49.6901 235.08 49.5942 234.956 49.5547 234.81C49.5151 234.664 49.5351 234.509 49.6102 234.378C49.6852 234.247 49.8093 234.151 49.955 234.111C50.1007 234.072 50.2562 234.092 50.3872 234.167L53.3401 235.866L72.5669 246.975L87.2646 238.444C87.3511 238.389 87.4512 238.361 87.5532 238.361C87.6553 238.361 87.7553 238.389 87.8419 238.444L109.467 250.875L111.298 251.963Z" fill="#3057A4"/>
<path d="M178.137 213.104L177.027 213.76L175.129 212.649L145.156 195.33L144.046 194.685L134.755 189.32L132.346 187.92C132.28 187.883 132.223 187.834 132.177 187.774C132.131 187.715 132.098 187.648 132.078 187.575C132.058 187.503 132.053 187.427 132.063 187.353C132.073 187.279 132.097 187.207 132.135 187.142C132.211 187.013 132.335 186.918 132.48 186.879C132.626 186.839 132.78 186.858 132.912 186.931L136.02 188.731L145.156 194.008L146.266 194.663L176.239 211.993L178.137 213.104Z" fill="#3057A4"/>
<path d="M190.781 205.75L189.671 206.405L187.773 205.294L157.567 187.898L156.457 187.242L121.544 167.091L119.735 166.046C119.604 165.971 119.508 165.847 119.469 165.701C119.429 165.555 119.449 165.4 119.524 165.269C119.599 165.138 119.723 165.042 119.869 165.002C120.015 164.962 120.17 164.982 120.301 165.058L122.954 166.591L157.567 186.587L158.677 187.242L188.872 204.672L190.781 205.75Z" fill="#3057A4"/>
<path d="M144.923 232.412L143.813 233.078L141.915 231.967L101.951 208.86L99.2759 207.305C99.2107 207.268 99.1535 207.219 99.1075 207.16C99.0616 207.1 99.0278 207.033 99.0082 206.96C98.9886 206.888 98.9835 206.813 98.9932 206.738C99.003 206.664 99.0274 206.592 99.065 206.528C99.1415 206.398 99.2655 206.303 99.4106 206.264C99.5558 206.225 99.7105 206.243 99.842 206.316L103.172 208.261L143.069 231.312L144.923 232.412Z" fill="#3057A4"/>
<path d="M88.6855 265.116L87.5754 265.783L85.6883 264.672L67.8157 254.352L63.5418 251.886C63.4116 251.807 63.3169 251.681 63.2776 251.534C63.2382 251.387 63.2574 251.23 63.3309 251.097C63.4093 250.969 63.5341 250.877 63.6791 250.84C63.824 250.802 63.9778 250.823 64.108 250.897L69.0146 253.73L86.7761 264.017L88.6855 265.116Z" fill="#3057A4"/>
<path d="M32.1928 238.522C33.8802 239.51 33.8802 241.088 32.1928 242.076C31.2414 242.559 30.1899 242.81 29.1234 242.81C28.0569 242.81 27.0054 242.559 26.054 242.076C24.3555 241.088 24.3555 239.51 26.054 238.522C27.0054 238.039 28.0569 237.788 29.1234 237.788C30.1899 237.788 31.2414 238.039 32.1928 238.522Z" fill="#3057A4"/>
<path d="M68.5928 250.464C70.2913 251.441 70.2913 253.03 68.5928 254.007C67.6414 254.489 66.5899 254.741 65.5234 254.741C64.4569 254.741 63.4054 254.489 62.454 254.007C60.7556 253.03 60.7556 251.441 62.454 250.464C63.4039 249.976 64.456 249.722 65.5234 249.722C66.5909 249.722 67.643 249.976 68.5928 250.464Z" fill="#3057A4"/>
<path d="M52.5852 232.856C54.2837 233.833 54.2837 235.422 52.5852 236.4C51.6338 236.882 50.5823 237.133 49.5158 237.133C48.4493 237.133 47.3978 236.882 46.4464 236.4C44.7591 235.422 44.7591 233.833 46.4464 232.856C47.3963 232.368 48.4484 232.114 49.5158 232.114C50.5833 232.114 51.6354 232.368 52.5852 232.856Z" fill="#3057A4"/>
<path d="M89.1518 207.161C90.8502 208.138 90.8502 209.727 89.1518 210.705C88.2003 211.187 87.1488 211.438 86.0824 211.438C85.0159 211.438 83.9644 211.187 83.0129 210.705C81.3256 209.727 81.3256 208.138 83.0129 207.161C83.9628 206.673 85.0149 206.419 86.0824 206.419C87.1498 206.419 88.2019 206.673 89.1518 207.161Z" fill="#3057A4"/>
<path d="M59.3124 224.424C61.0109 225.402 61.0109 226.99 59.3124 227.968C58.3626 228.455 57.3105 228.709 56.243 228.709C55.1756 228.709 54.1235 228.455 53.1736 227.968C51.4752 226.99 51.4752 225.402 53.1736 224.424C54.125 223.942 55.1765 223.691 56.243 223.691C57.3095 223.691 58.361 223.942 59.3124 224.424Z" fill="#3057A4"/>
<path d="M118.791 247.609L117.681 248.275L115.783 247.164L68.393 219.814L59.812 224.768L56.5705 226.635C56.5064 226.673 56.4354 226.698 56.3616 226.708C56.2878 226.719 56.2127 226.715 56.1405 226.696C56.0683 226.678 56.0005 226.645 55.9409 226.6C55.8813 226.555 55.8312 226.499 55.7934 226.435C55.7199 226.301 55.7008 226.145 55.7401 225.998C55.7794 225.851 55.8741 225.725 56.0044 225.646L58.6686 224.113L68.1155 218.658C68.2019 218.61 68.2994 218.584 68.3986 218.584C68.4977 218.584 68.5952 218.61 68.6817 218.658L116.904 246.52L118.791 247.609Z" fill="#3057A4"/>
<path d="M197.941 201.584L196.831 202.239L194.933 201.128L174.352 189.231C174.264 189.181 174.191 189.11 174.14 189.023C174.089 188.936 174.062 188.837 174.062 188.736C174.062 188.636 174.089 188.537 174.14 188.45C174.191 188.363 174.264 188.291 174.352 188.242L183.954 182.687L160.453 168.846L158.233 167.535C158.105 167.456 158.013 167.331 157.976 167.186C157.939 167.041 157.959 166.887 158.033 166.757C158.071 166.693 158.121 166.637 158.181 166.592C158.24 166.547 158.308 166.514 158.38 166.496C158.452 166.477 158.528 166.473 158.601 166.483C158.675 166.494 158.746 166.519 158.81 166.557L161.652 168.224L185.386 182.199C185.47 182.25 185.54 182.321 185.588 182.407C185.637 182.493 185.663 182.589 185.664 182.687C185.665 182.789 185.638 182.889 185.588 182.977C185.537 183.065 185.463 183.138 185.375 183.187L175.784 188.742L196.054 200.484L197.941 201.584Z" fill="#3057A4"/>
<path d="M161.23 165.013C162.929 165.991 162.929 167.579 161.23 168.557C160.279 169.039 159.227 169.29 158.161 169.29C157.094 169.29 156.043 169.039 155.091 168.557C153.393 167.579 153.393 165.991 155.091 165.013C156.041 164.526 157.093 164.271 158.161 164.271C159.228 164.271 160.28 164.526 161.23 165.013Z" fill="#3057A4"/>
<path d="M102.806 204.906C104.504 205.883 104.504 207.472 102.806 208.449C101.855 208.932 100.803 209.183 99.7365 209.183C98.6701 209.183 97.6186 208.932 96.6671 208.449C94.9798 207.472 94.9798 205.883 96.6671 204.906C97.6186 204.423 98.6701 204.172 99.7365 204.172C100.803 204.172 101.855 204.423 102.806 204.906Z" fill="#3057A4"/>
<path d="M113.097 186.987C114.795 187.964 114.795 189.553 113.097 190.53C112.145 191.013 111.094 191.264 110.027 191.264C108.961 191.264 107.909 191.013 106.958 190.53C105.27 189.553 105.27 187.964 106.958 186.987C107.908 186.499 108.96 186.245 110.027 186.245C111.095 186.245 112.147 186.499 113.097 186.987Z" fill="#3057A4"/>
<path d="M123.076 162.969C124.775 163.947 124.775 165.535 123.076 166.513C122.127 166.995 121.077 167.246 120.013 167.246C118.948 167.246 117.898 166.995 116.949 166.513C115.25 165.535 115.25 163.947 116.949 162.969C117.898 162.487 118.948 162.236 120.013 162.236C121.077 162.236 122.127 162.487 123.076 162.969Z" fill="#3057A4"/>
<path d="M150.029 167.89C151.728 168.879 151.728 170.457 150.029 171.445C149.078 171.927 148.027 172.179 146.96 172.179C145.894 172.179 144.842 171.927 143.891 171.445C142.203 170.457 142.203 168.879 143.891 167.89C144.842 167.408 145.894 167.157 146.96 167.157C148.027 167.157 149.078 167.408 150.029 167.89Z" fill="#3057A4"/>
<path d="M135.776 185.332C137.474 186.309 137.474 187.898 135.776 188.875C134.824 189.358 133.773 189.609 132.706 189.609C131.64 189.609 130.588 189.358 129.637 188.875C127.939 187.898 127.939 186.309 129.637 185.332C130.588 184.849 131.64 184.598 132.706 184.598C133.773 184.598 134.824 184.849 135.776 185.332Z" fill="#3057A4"/>
<path d="M359.604 246.642C359.604 246.74 359.578 246.837 359.529 246.923C359.481 247.008 359.411 247.08 359.327 247.131L331.042 263.483L329.143 264.594L328.033 263.939L329.92 262.828L357.939 246.642L332.229 231.223L331.119 230.556L324.781 226.757C324.696 226.704 324.626 226.63 324.577 226.543C324.529 226.456 324.503 226.357 324.503 226.257C324.504 226.157 324.531 226.06 324.582 225.974C324.633 225.888 324.705 225.817 324.792 225.768L341.832 215.926L345.162 213.993C345.226 213.955 345.297 213.93 345.371 213.919C345.445 213.908 345.52 213.913 345.592 213.931C345.664 213.95 345.732 213.982 345.792 214.027C345.851 214.072 345.901 214.128 345.939 214.193C346.012 214.324 346.031 214.479 345.992 214.624C345.952 214.77 345.858 214.894 345.728 214.97L342.897 216.603L326.168 226.279L332.229 229.901L333.34 230.578L359.327 246.131C359.415 246.183 359.487 246.258 359.536 246.348C359.585 246.438 359.609 246.54 359.604 246.642Z" fill="#3057A4"/>
<path d="M332.507 210.738L330.287 212.049L306.786 225.89L316.388 231.445C316.473 231.496 316.544 231.569 316.593 231.655C316.641 231.742 316.667 231.84 316.667 231.939C316.667 232.039 316.641 232.136 316.593 232.223C316.544 232.31 316.473 232.382 316.388 232.434L296.84 243.731L294.941 244.842L293.831 244.187L295.718 243.076L314.99 231.967L305.387 226.413C305.303 226.36 305.232 226.286 305.184 226.199C305.135 226.111 305.11 226.013 305.11 225.913C305.109 225.814 305.134 225.716 305.182 225.63C305.231 225.545 305.302 225.473 305.387 225.424L329.11 211.449L331.952 209.782C332.083 209.705 332.24 209.682 332.387 209.72C332.535 209.757 332.662 209.852 332.74 209.982C332.807 210.114 332.821 210.266 332.777 210.407C332.733 210.549 332.637 210.667 332.507 210.738Z" fill="#3057A4"/>
<path d="M308.229 186.054L304.588 188.164L286.238 198.762L300.536 207.016C300.622 207.068 300.692 207.142 300.741 207.229C300.79 207.317 300.815 207.416 300.814 207.516C300.815 207.615 300.79 207.712 300.741 207.798C300.693 207.884 300.622 207.956 300.536 208.005L267.777 226.89L265.89 228.001L264.78 227.346L266.678 226.235L299.149 207.472L284.862 199.251C284.774 199.203 284.701 199.132 284.65 199.046C284.599 198.96 284.573 198.862 284.573 198.762C284.574 198.663 284.601 198.565 284.652 198.479C284.702 198.393 284.775 198.322 284.862 198.273L303.633 187.431L307.707 185.065C307.772 185.027 307.844 185.003 307.918 184.993C307.992 184.983 308.068 184.988 308.14 185.008C308.212 185.028 308.28 185.061 308.339 185.107C308.398 185.153 308.448 185.211 308.485 185.276C308.522 185.343 308.545 185.417 308.553 185.494C308.56 185.57 308.552 185.648 308.528 185.721C308.504 185.794 308.465 185.861 308.413 185.919C308.362 185.976 308.299 186.022 308.229 186.054Z" fill="#3057A4"/>
<path d="M390.188 257.896L387.746 259.306L371.238 268.838C371.154 268.892 371.056 268.921 370.955 268.921C370.855 268.921 370.757 268.892 370.672 268.838L358.25 261.662L343.075 270.427L341.177 271.537L340.067 270.871L341.965 269.76L357.962 260.551C358.046 260.496 358.144 260.467 358.245 260.467C358.345 260.467 358.443 260.496 358.528 260.551L370.95 267.727L386.491 258.74L389.61 256.94C389.741 256.865 389.897 256.845 390.043 256.885C390.188 256.924 390.312 257.02 390.388 257.151C390.463 257.282 390.483 257.438 390.443 257.584C390.403 257.73 390.308 257.854 390.177 257.929L390.188 257.896Z" fill="#3057A4"/>
<path d="M285.173 189.12L282.764 190.564L243.788 213.048L241.89 214.159L240.78 213.504L242.667 212.393L281.52 189.919L284.629 188.131C284.693 188.092 284.765 188.066 284.839 188.056C284.914 188.045 284.99 188.05 285.062 188.069C285.135 188.089 285.203 188.124 285.262 188.17C285.321 188.217 285.37 188.276 285.406 188.342C285.442 188.408 285.466 188.481 285.474 188.556C285.482 188.631 285.475 188.708 285.453 188.78C285.431 188.853 285.395 188.92 285.347 188.978C285.299 189.037 285.24 189.085 285.173 189.12Z" fill="#3057A4"/>
<path d="M298.915 167.035L297.106 168.079L231.477 205.961L229.579 207.072L228.469 206.416L230.367 205.305L295.718 167.59L298.372 166.057C298.436 166.02 298.508 165.995 298.582 165.986C298.656 165.976 298.732 165.981 298.804 166C298.876 166.02 298.944 166.054 299.003 166.1C299.062 166.146 299.112 166.203 299.149 166.268C299.216 166.402 299.23 166.556 299.186 166.699C299.143 166.842 299.046 166.962 298.915 167.035Z" fill="#3057A4"/>
<path d="M319.43 208.338L316.744 209.893L277.491 232.567L275.593 233.678L274.482 233.022L276.381 231.912L315.534 209.294L318.864 207.35C318.993 207.296 319.137 207.29 319.27 207.335C319.402 207.379 319.514 207.47 319.585 207.591C319.655 207.712 319.68 207.854 319.653 207.992C319.627 208.129 319.552 208.252 319.441 208.338H319.43Z" fill="#3057A4"/>
<path d="M276.891 207.794L272.651 210.271L255.822 219.992L253.923 221.103L252.813 220.436L254.7 219.325L271.485 209.627L276.392 206.794C276.523 206.719 276.678 206.699 276.824 206.739C276.97 206.778 277.094 206.874 277.169 207.005C277.244 207.136 277.264 207.292 277.224 207.438C277.185 207.584 277.089 207.708 276.958 207.783L276.891 207.794Z" fill="#3057A4"/>
<path d="M274.893 210.638C277.29 210.638 279.234 209.514 279.234 208.127C279.234 206.741 277.29 205.616 274.893 205.616C272.496 205.616 270.553 206.741 270.553 208.127C270.553 209.514 272.496 210.638 274.893 210.638Z" fill="#3057A4"/>
<path d="M386.757 255.329C385.059 256.307 385.059 257.896 386.757 258.873C387.709 259.355 388.76 259.607 389.827 259.607C390.893 259.607 391.945 259.355 392.896 258.873C394.584 257.896 394.584 256.307 392.896 255.329C391.945 254.847 390.893 254.596 389.827 254.596C388.76 254.596 387.709 254.847 386.757 255.329Z" fill="#3057A4"/>
<path d="M329.476 208.149C327.789 209.127 327.789 210.716 329.476 211.693C330.428 212.175 331.479 212.427 332.546 212.427C333.612 212.427 334.664 212.175 335.615 211.693C337.314 210.716 337.314 209.127 335.615 208.149C334.665 207.662 333.613 207.408 332.546 207.408C331.478 207.408 330.426 207.662 329.476 208.149Z" fill="#3057A4"/>
<path d="M359.327 225.413C357.629 226.39 357.629 227.979 359.327 228.957C360.274 229.447 361.325 229.704 362.391 229.704C363.457 229.704 364.508 229.447 365.455 228.957C367.153 227.979 367.153 226.39 365.455 225.413C364.505 224.931 363.456 224.679 362.391 224.679C361.326 224.679 360.277 224.931 359.327 225.413Z" fill="#3057A4"/>
<path d="M362.835 227.423C362.758 227.553 362.634 227.648 362.489 227.687C362.344 227.726 362.189 227.708 362.058 227.634L358.828 225.757L350.235 220.802L333.34 230.556L332.23 231.2L303.733 247.686L301.835 248.797L300.725 248.142L302.623 247.031L331.086 230.556L332.196 229.901L349.958 219.658C350.046 219.609 350.145 219.583 350.246 219.583C350.348 219.583 350.447 219.609 350.535 219.658L359.982 225.124L362.646 226.657C362.771 226.735 362.861 226.859 362.896 227.002C362.931 227.145 362.909 227.296 362.835 227.423Z" fill="#3057A4"/>
<path d="M260.44 168.557L258.219 169.868L234.719 183.71L244.321 189.264C244.407 189.316 244.477 189.39 244.526 189.477C244.575 189.565 244.6 189.664 244.599 189.764C244.6 189.863 244.575 189.96 244.526 190.046C244.477 190.132 244.407 190.203 244.321 190.253L224.339 201.817L222.441 202.928L215.314 207.05C215.227 207.103 215.127 207.13 215.026 207.127C214.901 207.128 214.78 207.087 214.681 207.012C214.582 206.937 214.51 206.831 214.477 206.71C214.444 206.59 214.452 206.463 214.499 206.347C214.546 206.232 214.629 206.135 214.737 206.072L221.309 202.273L223.207 201.162L242.922 189.764L233.331 184.21C233.246 184.159 233.176 184.088 233.127 184.002C233.079 183.916 233.053 183.819 233.054 183.721C233.05 183.62 233.074 183.52 233.123 183.432C233.172 183.344 233.244 183.271 233.331 183.221L257.054 169.246L259.896 167.579C259.96 167.541 260.031 167.516 260.105 167.506C260.178 167.495 260.254 167.499 260.326 167.518C260.398 167.536 260.466 167.569 260.525 167.614C260.585 167.659 260.635 167.715 260.673 167.779C260.711 167.845 260.735 167.918 260.744 167.994C260.753 168.069 260.747 168.146 260.725 168.219C260.703 168.292 260.666 168.359 260.617 168.418C260.568 168.476 260.508 168.523 260.44 168.557Z" fill="#3057A4"/>
<path d="M257.409 165.968C255.711 166.946 255.711 168.535 257.409 169.512C258.359 169.994 259.408 170.246 260.473 170.246C261.538 170.246 262.587 169.994 263.537 169.512C265.235 168.535 265.235 166.946 263.537 165.968C262.59 165.478 261.539 165.221 260.473 165.221C259.407 165.221 258.356 165.478 257.409 165.968Z" fill="#3057A4"/>
<path d="M315.778 205.894C314.091 206.872 314.091 208.461 315.778 209.438C316.729 209.92 317.781 210.172 318.847 210.172C319.914 210.172 320.965 209.92 321.917 209.438C323.615 208.461 323.615 206.872 321.917 205.894C320.965 205.412 319.914 205.161 318.847 205.161C317.781 205.161 316.729 205.412 315.778 205.894Z" fill="#3057A4"/>
<path d="M307.452 188.798C309.849 188.798 311.793 187.674 311.793 186.287C311.793 184.9 309.849 183.776 307.452 183.776C305.055 183.776 303.112 184.9 303.112 186.287C303.112 187.674 305.055 188.798 307.452 188.798Z" fill="#3057A4"/>
<path d="M295.552 163.958C293.853 164.935 293.853 166.524 295.552 167.502C296.503 167.984 297.555 168.235 298.621 168.235C299.688 168.235 300.739 167.984 301.691 167.502C303.389 166.524 303.389 164.935 301.691 163.958C300.739 163.476 299.688 163.224 298.621 163.224C297.555 163.224 296.503 163.476 295.552 163.958Z" fill="#3057A4"/>
<path d="M342.42 212.782C340.722 213.77 340.722 215.359 342.42 216.337C343.372 216.819 344.423 217.07 345.49 217.07C346.556 217.07 347.608 216.819 348.559 216.337C350.246 215.359 350.246 213.77 348.559 212.782C347.608 212.3 346.556 212.048 345.49 212.048C344.423 212.048 343.372 212.3 342.42 212.782Z" fill="#3057A4"/>
<path d="M281.709 186.509C280.011 187.487 280.011 189.075 281.709 190.064C282.661 190.546 283.712 190.797 284.779 190.797C285.845 190.797 286.897 190.546 287.848 190.064C289.535 189.075 289.535 187.487 287.848 186.509C286.897 186.027 285.845 185.776 284.779 185.776C283.712 185.776 282.661 186.027 281.709 186.509Z" fill="#3057A4"/>
<path d="M151.273 205.783L141.848 200.307C141.246 199.893 140.744 199.348 140.381 198.713C140.017 198.079 139.802 197.37 139.75 196.641L149.175 202.117C149.225 202.847 149.44 203.556 149.803 204.191C150.167 204.826 150.669 205.371 151.273 205.783Z" fill="#DAD9E8"/>
<path d="M151.273 205.783L141.848 200.306C141.249 199.898 140.75 199.359 140.389 198.73C140.027 198.1 139.813 197.398 139.761 196.674L149.186 202.151C149.237 202.874 149.452 203.577 149.813 204.206C150.175 204.835 150.674 205.374 151.273 205.783Z" fill="#DAD9E8"/>
<path d="M149.186 202.151L139.761 196.674L149.186 202.151Z" fill="#DAD9E8"/>
<path d="M159.421 107.38L168.846 112.867C166.093 111.268 162.274 111.468 158.011 113.978L148.586 108.491C152.816 105.98 156.635 105.78 159.421 107.38Z" fill="#DAD9E8"/>
<path d="M157.978 113.912L148.553 108.424C152.816 105.958 156.635 105.758 159.388 107.313L168.812 112.801C166.082 111.268 162.241 111.468 157.978 113.912Z" fill="#DAD9E8"/>
<path d="M149.186 202.117L139.761 196.629L130.703 139.129L140.127 144.617L149.186 202.117Z" fill="#DAD9E8"/>
<path d="M155.103 115.589L145.678 110.101L148.553 108.446L157.978 113.923L155.103 115.589Z" fill="#EBEBF1"/>
<path d="M140.116 144.617L130.692 139.14C129.16 129.353 136.242 115.534 145.678 110.112L155.103 115.589C145.711 121.021 138.584 134.83 140.116 144.617Z" fill="#EBEBF1"/>
<path d="M140.116 144.617L130.692 139.14C130.273 135.886 130.553 132.58 131.513 129.442L140.938 134.93C139.977 138.063 139.697 141.366 140.116 144.617Z" fill="#EBEBF1"/>
<path d="M140.938 134.93L131.513 129.464C132.662 125.533 134.463 121.822 136.842 118.489L146.266 123.976C143.888 127.302 142.086 131.005 140.938 134.93Z" fill="#EBEBF1"/>
<path d="M146.266 123.91L136.842 118.422C138.605 115.903 140.73 113.657 143.147 111.757L152.572 117.244C150.155 119.145 148.03 121.391 146.266 123.91Z" fill="#EBEBF1"/>
<path d="M152.572 117.3L143.147 111.812C143.952 111.19 144.797 110.622 145.678 110.112L155.103 115.589C154.222 116.103 153.376 116.674 152.572 117.3Z" fill="#EBEBF1"/>
<path d="M157.978 113.912C167.369 108.479 174.551 114.034 173.075 125.565L164.372 193.33C164.045 195.733 163.199 198.035 161.891 200.077C160.584 202.118 158.846 203.85 156.801 205.15C153.349 207.138 149.896 206.65 149.175 202.106L140.116 144.606C138.584 134.819 145.667 121.01 155.103 115.578L157.978 113.912Z" fill="#C4C3EC"/>
<path d="M168.401 114.423L174.973 118.233C172.176 116.611 168.313 116.845 164.061 119.344L157.5 115.523C161.752 113.023 165.615 112.801 168.401 114.423Z" fill="#00BF63"/>
<path d="M164.061 119.311L157.5 115.489C161.752 113.023 165.615 112.801 168.401 114.378L174.973 118.189C172.176 116.611 168.302 116.845 164.061 119.311Z" fill="#00BF63"/>
<path d="M165.582 125.721C171.388 122.388 176.117 125.065 176.128 131.742C176.139 138.418 171.454 146.55 165.649 149.894C159.843 153.238 155.125 150.56 155.103 143.884C155.08 137.207 159.787 129.076 165.582 125.721Z" fill="#00BF63"/>
<path d="M153.249 155.637L146.688 151.816C143.935 150.216 142.248 146.817 142.248 141.973C142.248 132.242 149.064 120.377 157.534 115.489L164.094 119.311C155.624 124.199 148.786 136.063 148.808 145.795C148.797 150.627 150.54 154.038 153.249 155.637Z" fill="#00BF63"/>
<path d="M153.249 155.637L146.688 151.816C144.246 150.394 142.625 147.55 142.248 143.551L148.819 147.361C149.186 151.371 150.807 154.215 153.249 155.637Z" fill="#00BF63"/>
<path d="M148.853 147.361L142.281 143.551C142.281 143.04 142.214 142.517 142.214 141.973C142.214 133.586 147.276 123.61 154.103 117.878L160.675 121.699C153.837 127.42 148.753 137.396 148.775 145.795C148.786 146.339 148.808 146.861 148.853 147.361Z" fill="#00BF63"/>
<path d="M160.675 121.688L154.104 117.867C155.166 116.975 156.302 116.176 157.5 115.478L164.061 119.3C162.864 119.994 161.731 120.794 160.675 121.688Z" fill="#00BF63"/>
<path d="M165.582 125.721L164.061 119.311C172.531 114.412 179.414 118.344 179.436 128.076C179.458 137.807 172.631 149.672 164.161 154.56C155.691 159.448 148.808 155.537 148.775 145.795C148.742 136.052 155.591 124.199 164.061 119.311L165.582 125.721C159.787 129.053 155.08 137.218 155.103 143.884C155.125 150.549 159.854 153.249 165.648 149.894C171.443 146.539 176.15 138.407 176.128 131.742C176.106 125.076 171.388 122.366 165.582 125.721Z" fill="#00BF63"/>
<path d="M165.582 125.721L164.061 119.311C172.531 114.412 179.414 118.344 179.436 128.076C179.458 137.807 172.631 149.672 164.161 154.56C155.691 159.448 148.808 155.537 148.775 145.795C148.742 136.052 155.591 124.199 164.061 119.311L165.582 125.721C159.787 129.053 155.08 137.218 155.103 143.884C155.125 150.549 159.854 153.249 165.648 149.894C171.443 146.539 176.15 138.407 176.128 131.742C176.106 125.076 171.388 122.366 165.582 125.721Z" fill="#00BF63"/>
<path d="M163.106 64.6211L146.1 9.03162L163.106 64.6211Z" fill="#1393F2"/>
<path d="M147.693 8.5224L144.498 9.50171L161.514 65.0967L164.709 64.1174L147.693 8.5224Z" fill="#171C29"/>
<path d="M183.366 239.177C178.207 236.125 173.721 232.057 170.178 227.221C166.635 222.384 164.108 216.879 162.751 211.038C163.961 216.348 168.113 221.625 175.195 225.89C192.89 236.555 222.186 236.844 240.624 226.557C248.551 222.113 253.18 216.481 254.49 210.627C252.869 217.875 249.452 224.598 244.554 230.179C239.737 235.637 233.701 239.881 226.937 242.565C212.905 248.197 195.81 246.864 183.366 239.177Z" fill="#919DD6"/>
<path d="M240.924 112.601C258.175 122.988 257.576 139.54 239.603 149.572C221.631 159.603 193.068 159.314 175.817 148.927C158.566 138.54 159.166 121.988 177.138 111.957C195.11 101.925 223.673 102.214 240.924 112.601Z" fill="#E4E3EE"/>
<path d="M162.751 210.893L148.831 150.06C150.462 157.159 155.846 164.013 165.049 169.557C188.05 183.41 226.104 183.787 250.082 170.423C260.373 164.68 266.39 157.326 268.088 149.716L254.523 210.627C253.213 216.481 248.584 222.136 240.658 226.557C222.219 236.844 192.924 236.555 175.229 225.891C168.113 221.669 163.961 216.348 162.751 210.893Z" fill="#B7B6E3"/>
<path d="M169.745 110.979C193.234 98.2258 226.493 98.6035 248.828 111.879C246.841 110.679 244.055 110.768 240.924 112.523C223.673 102.136 195.122 101.847 177.138 111.879C159.154 121.91 158.566 138.463 175.817 148.85C193.068 159.236 221.631 159.536 239.603 149.494C257.576 139.451 258.175 122.91 240.924 112.523C244.055 110.779 246.841 110.679 248.828 111.879C253.513 114.912 260.573 119.477 265.479 129.109C268.646 135.436 269.562 142.654 268.077 149.572C266.334 157.348 260.306 164.724 250.038 170.457C226.071 183.787 188.006 183.454 165.005 169.601C155.813 164.047 150.418 157.215 148.797 150.127C147.999 146.657 147.808 143.075 148.231 139.54C148.671 135.978 149.707 132.516 151.295 129.298C153.027 126.132 157.567 117.6 169.745 110.979Z" fill="#DAD9E8"/>
<path d="M233.409 37.5263C246.641 45.4914 246.186 58.189 232.399 65.8876C218.611 73.5861 196.698 73.3639 183.466 65.3876C170.233 57.4114 170.688 44.7249 184.476 37.0264C198.263 29.3278 220.176 29.55 233.409 37.5263Z" fill="#EBEBF1"/>
<path d="M165.993 132.542C144.69 119.355 140.016 101.903 139.839 89.583C139.839 99.47 146.222 109.368 158.966 117.045C185.242 132.864 228.724 133.308 256.11 118.022C270.197 110.157 277.28 99.67 277.202 89.1387C277.238 94.9511 276.176 100.718 274.072 106.135C272.196 110.839 269.633 115.238 266.468 119.189C265.557 120.399 257.109 131.164 240.802 137.529C212.517 148.583 182.844 142.984 165.993 132.542Z" fill="#B7B6E3"/>
<path d="M167.946 35.0378C180.721 28.1478 195.067 24.7022 209.575 25.0397C225.116 25.2285 239.092 28.939 251.07 36.0487C246.63 33.3381 240.325 33.6047 233.409 37.4707C220.176 29.4944 198.274 29.2722 184.476 36.9708C170.677 44.6693 170.233 57.3669 183.466 65.332C196.698 73.2972 218.6 73.5305 232.399 65.832C246.197 58.1334 246.641 45.4358 233.409 37.4707C240.325 33.6047 246.586 33.3381 251.07 36.0487C257.387 40.1257 276.603 52.5345 277.213 79.0072C277.213 89.4941 270.175 99.9921 256.121 107.891C228.746 123.166 185.253 122.721 158.988 106.902C146.233 99.2256 139.883 89.3386 139.861 79.4405C139.868 74.8587 140.533 70.3018 141.837 65.9097C143.287 61.1052 145.474 56.5555 148.32 52.4234C150.54 48.8796 157.578 40.6923 167.946 35.0378Z" fill="#E4E3EE"/>
<path d="M222.03 118.289C199.828 120.899 175.806 117.089 158.944 106.924C146.266 99.2923 139.917 89.4719 139.817 79.6293C139.882 73.2658 142.399 67.1729 146.844 62.6215C146.932 71.442 152.627 80.2515 164.006 87.0613C179.136 96.1707 200.639 99.5922 220.621 97.2482C221.495 104.229 221.965 111.254 222.03 118.289Z" fill="#00BF63"/>
<path d="M139.839 89.583V79.4627C139.839 89.3608 146.211 99.2478 158.966 106.924C185.231 122.743 228.724 123.188 256.099 107.913C270.197 100.048 277.269 89.5496 277.191 79.0294V89.1497C277.191 99.6366 270.142 110.124 256.099 118.033C228.713 133.319 185.231 132.875 158.955 117.056C146.222 109.368 139.872 99.47 139.839 89.583Z" fill="#DAD9E8"/>
<path d="M150.973 89.8719C149.63 93.6934 147.31 93.9489 145.711 90.4496C143.036 84.6173 145.711 77.5742 149.23 78.5851C149.747 78.7411 150.204 79.0512 150.54 79.4739C152.76 82.6733 151.573 88.1944 150.973 89.8719Z" fill="white"/>
<path d="M189.915 107.157C188.905 112.901 181.701 113.823 178.07 108.746C174.274 103.414 178.426 97.2704 183.743 97.9258C183.943 97.9258 184.198 98.0036 184.398 98.048C186.264 98.6401 187.852 99.89 188.867 101.565C189.882 103.241 190.254 105.228 189.915 107.157Z" fill="white"/>
<path d="M254.079 82.5066C254.079 79.1072 251.703 77.7297 248.761 79.4294C247.213 80.4391 245.924 81.8004 245 83.4026C244.076 85.0048 243.543 86.8026 243.444 88.6499C243.444 92.0492 245.82 93.4267 248.761 91.7271C250.31 90.7167 251.598 89.3552 252.522 87.7531C253.446 86.1511 253.979 84.3536 254.079 82.5066Z" fill="#41FAA1"/>
<path d="M249.45 85.6504L288.192 56.5226L249.45 85.6504Z" fill="#1393F2"/>
<path d="M249.461 87.3279C249.111 87.3264 248.77 87.2153 248.486 87.0102C248.203 86.8051 247.99 86.5164 247.879 86.1844C247.768 85.8524 247.763 85.4939 247.865 85.1591C247.968 84.8242 248.172 84.5299 248.451 84.3173L287.226 55.1895C287.4 55.0406 287.603 54.929 287.822 54.8615C288.041 54.7941 288.271 54.7722 288.499 54.7973C288.726 54.8224 288.947 54.8939 289.145 55.0074C289.344 55.121 289.518 55.2741 289.656 55.4573C289.793 55.6406 289.892 55.8501 289.945 56.073C289.999 56.2958 290.006 56.5273 289.967 56.753C289.927 56.9788 289.842 57.1941 289.716 57.3857C289.591 57.5772 289.427 57.741 289.235 57.8668L250.449 86.9835C250.166 87.2037 249.819 87.3247 249.461 87.3279Z" fill="#171C29"/>
<path d="M298.083 54.4341C298.085 52.6468 297.557 50.8991 296.567 49.4122C295.576 47.9253 294.166 46.7659 292.517 46.081C290.867 45.396 289.052 45.2162 287.3 45.5644C285.548 45.9125 283.939 46.7729 282.676 48.0367C281.413 49.3004 280.553 50.9107 280.206 52.6637C279.858 54.4167 280.037 56.2336 280.722 57.8844C281.406 59.5351 282.565 60.9456 284.051 61.9371C285.537 62.9287 287.283 63.4568 289.069 63.4546C291.459 63.4517 293.75 62.5003 295.44 60.8093C297.129 59.1183 298.08 56.8256 298.083 54.4341Z" fill="#00BF63"/>
<path d="M154.281 9.03162C154.281 7.24754 153.752 5.50351 152.762 4.0201C151.772 2.53668 150.364 1.3805 148.717 0.697758C147.07 0.0150165 145.257 -0.163619 143.509 0.184439C141.76 0.532498 140.154 1.39162 138.893 2.65316C137.633 3.9147 136.774 5.522 136.426 7.27181C136.079 9.02162 136.257 10.8353 136.939 12.4836C137.622 14.1319 138.777 15.5407 140.259 16.5319C141.742 17.5231 143.484 18.0521 145.267 18.0521C147.658 18.0521 149.951 17.1018 151.641 15.4101C153.331 13.7184 154.281 11.424 154.281 9.03162Z" fill="#00BF63"/>
<path d="M262.061 146.805L268.621 150.627C265.835 149.005 261.961 149.238 257.72 151.738L251.159 147.927C255.411 145.417 259.33 145.195 262.061 146.805Z" fill="#00BF63"/>
<path d="M257.72 151.682L251.159 147.872C255.411 145.406 259.274 145.184 262.061 146.761L268.621 150.583C265.835 149.005 261.983 149.238 257.72 151.682Z" fill="#00BF63"/>
<path d="M259.241 158.114C265.036 154.782 269.765 157.459 269.787 164.136C269.809 170.812 265.113 178.944 259.307 182.288C253.502 185.631 248.773 182.943 248.761 176.278C248.75 169.612 253.446 161.458 259.241 158.114Z" fill="#00BF63"/>
<path d="M246.908 188.02L240.347 184.209C237.594 182.61 235.906 179.199 235.906 174.367C235.906 164.635 242.722 152.771 251.193 147.883L257.753 151.693C249.283 156.593 242.445 168.446 242.467 178.188C242.456 183.021 244.155 186.42 246.908 188.02Z" fill="#00BF63"/>
<path d="M246.908 188.02L240.347 184.21C237.905 182.788 236.284 179.944 235.906 175.933L242.467 179.755C242.845 183.765 244.465 186.598 246.908 188.02Z" fill="#00BF63"/>
<path d="M242.501 179.755L235.94 175.933C235.895 175.43 235.873 174.908 235.873 174.367C235.873 165.98 240.935 156.004 247.762 150.271L254.323 154.093C247.496 159.814 242.412 169.79 242.434 178.188C242.434 178.729 242.456 179.251 242.501 179.755Z" fill="#00BF63"/>
<path d="M254.323 154.093L247.762 150.271C248.822 149.377 249.959 148.578 251.159 147.883L257.72 151.693C256.524 152.398 255.387 153.201 254.323 154.093Z" fill="#00BF63"/>
<path d="M259.241 158.114L257.72 151.682C266.19 146.794 273.073 150.727 273.095 160.458C273.117 170.19 266.29 182.054 257.82 186.942C249.35 191.83 242.467 187.909 242.434 178.177C242.401 168.446 249.25 156.581 257.72 151.682L259.241 158.103C253.446 161.436 248.739 169.601 248.762 176.267C248.784 182.932 253.513 185.631 259.307 182.276C265.102 178.922 269.809 170.79 269.787 164.124C269.765 157.459 265.036 154.759 259.241 158.114Z" fill="#00BF63"/>
<path d="M259.241 158.114L257.72 151.682C266.19 146.794 273.073 150.727 273.095 160.458C273.117 170.19 266.29 182.054 257.82 186.942C249.35 191.83 242.467 187.909 242.434 178.177C242.401 168.446 249.25 156.581 257.72 151.682L259.241 158.103C253.446 161.436 248.739 169.601 248.762 176.267C248.784 182.932 253.513 185.631 259.307 182.276C265.102 178.922 269.809 170.79 269.787 164.124C269.765 157.459 265.036 154.759 259.241 158.114Z" fill="#00BF63"/>
<path d="M262.138 248.164L252.669 242.687C252.065 242.275 251.562 241.731 251.198 241.096C250.835 240.461 250.62 239.752 250.571 239.021L259.996 244.498C260.048 245.233 260.269 245.945 260.641 246.581C261.012 247.216 261.524 247.758 262.138 248.164Z" fill="#DAD9E8"/>
<path d="M262.138 248.164L252.669 242.688C252.068 242.28 251.567 241.741 251.203 241.112C250.84 240.483 250.624 239.78 250.571 239.055L260.007 244.532C260.061 245.26 260.281 245.966 260.651 246.596C261.02 247.226 261.529 247.762 262.138 248.164Z" fill="#DAD9E8"/>
<path d="M260.051 244.532L250.615 239.055L260.04 244.532H260.051Z" fill="#DAD9E8"/>
<path d="M270.242 149.76L279.666 155.248C276.924 153.649 273.106 153.849 268.843 156.359L259.418 150.871C263.681 148.35 267.5 148.161 270.242 149.76Z" fill="#DAD9E8"/>
<path d="M268.843 156.315L259.418 150.827C263.681 148.361 267.5 148.161 270.242 149.716L279.666 155.204C276.924 153.649 273.106 153.904 268.843 156.315Z" fill="#DAD9E8"/>
<path d="M260.04 244.498L250.615 239.01L241.557 181.51L250.982 186.998L260.04 244.498Z" fill="#DAD9E8"/>
<path d="M265.968 157.97L256.543 152.482L259.418 150.827L268.843 156.304L265.968 157.97Z" fill="#EBEBF1"/>
<path d="M250.982 186.998L241.568 181.521C240.025 171.734 247.118 157.915 256.554 152.493L265.979 157.97C256.576 163.402 249.439 177.233 250.982 186.998Z" fill="#EBEBF1"/>
<path d="M250.982 186.998L241.568 181.521C241.149 178.267 241.429 174.96 242.39 171.823L251.814 177.311C250.85 180.444 250.566 183.746 250.982 186.998Z" fill="#EBEBF1"/>
<path d="M251.803 177.311L242.378 171.823C243.524 167.89 245.326 164.18 247.707 160.847L257.132 166.335C254.747 169.665 252.945 173.377 251.803 177.311Z" fill="#EBEBF1"/>
<path d="M257.109 166.335L247.685 160.847C249.444 158.329 251.565 156.083 253.979 154.182L263.404 159.67C260.99 161.571 258.869 163.816 257.109 166.335Z" fill="#EBEBF1"/>
<path d="M263.426 159.681L254.001 154.193C254.81 153.571 255.659 153.003 256.543 152.493L265.968 157.97C265.084 158.484 264.235 159.055 263.426 159.681Z" fill="#EBEBF1"/>
<path d="M268.843 156.315C278.234 150.882 285.417 156.437 283.929 167.968L275.237 235.733C274.914 238.138 274.068 240.444 272.758 242.486C271.448 244.528 269.706 246.258 267.655 247.553C264.214 249.542 260.761 249.053 260.04 244.509L250.982 187.009C249.438 177.222 256.532 163.413 265.968 157.981L268.843 156.315Z" fill="#C4C3EC"/>
</g>
<defs>
<clipPath id="clip0_2074_1200">
<rect width="401" height="410" fill="white"/>
</clipPath>
</defs>
</svg>
