<svg width="120" height="29" viewBox="0 0 120 29" fill="none" xmlns="http://www.w3.org/2000/svg">
<path d="M0 21.3018L10.0592 0H13.0178L23.0769 21.3018H18.9349L11.5385 5.32544L7.10059 15.0888H13.9053L15.3846 18.0473H5.6213L4.14201 21.3018H0Z" fill="#CC0000"/>
<path d="M23.0769 0L33.1361 21.3018H36.0947L46.1538 0H42.0118L34.6154 16.2722L27.2189 0H23.0769Z" fill="#CC0000"/>
<path d="M46.1538 21.3018L56.213 0H59.1716L69.2307 21.3018H65.0887L57.6923 5.32544L53.2544 15.0888H60.0591L61.5384 18.0473H51.7751L50.2958 21.3018H46.1538Z" fill="#CC0000"/>
<path d="M69.2307 0L78.1065 21.0059L74.2603 28.9941H78.4023L92.3076 0H87.8698L80.1775 16.568L73.6686 0H69.2307Z" fill="#CC0000"/>
<path d="M92.3077 21.3018L102.367 0H105.325L115.385 21.3018H111.243L103.846 5.32544L99.4083 15.0888H106.213L107.692 18.0473H97.929L96.4498 21.3018H92.3077Z" fill="#CC0000"/>
</svg>
