<svg width="155" height="39" viewBox="0 0 155 39" fill="none" xmlns="http://www.w3.org/2000/svg">
<path d="M49.6044 10.3882C54.3936 10.3882 56.6169 13.1969 56.6169 18.9646C56.6169 25.12 53.9058 27.4909 49.6044 27.4909H43.9369V10.3882H49.6044ZM49.4593 24.0941C51.5348 24.0941 52.4394 22.8229 52.4394 18.9646C52.4394 14.4707 51.047 13.785 49.4593 13.785H47.993V24.0941H49.4593Z" fill="#00BF63"/>
<path d="M58.1306 13.711V10.6096H61.894V13.711H58.1306ZM58.1781 27.4908V15.2749H61.8676V27.4908H58.1781Z" fill="#00BF63"/>
<path d="M73.7406 22.3113H66.6305C66.7782 24.5582 67.485 25.2676 68.4635 25.2676C69.2942 25.2676 69.7346 24.7534 70.0036 23.825H73.5692C72.9099 26.6601 71.0532 27.8812 68.561 27.8812C64.7502 27.8812 63.1863 25.5103 63.1863 21.4304C63.1863 16.7888 65.3119 14.8821 68.561 14.8821C72.2743 14.8821 73.7881 17.3005 73.7881 21.3566C73.7881 21.6519 73.7881 21.8972 73.7406 22.3113ZM66.6543 20.1619H70.2937C70.0986 18.2314 69.463 17.4745 68.4872 17.4745C67.2661 17.4745 66.7782 18.4266 66.6543 20.1619Z" fill="#00BF63"/>
<path d="M81.2411 17.8884H79.3343V23.0442C79.3343 24.4367 79.5796 24.9009 81.0934 24.9009V27.7597C76.2329 27.7597 75.6448 26.4648 75.6448 23.3132V17.8884H74.1785V15.2748H75.6448V11.5378H79.3343V15.2748H81.2411V17.8884Z" fill="#00BF63"/>
<path d="M92.7711 10.3882H98.2936V27.4909H94.4326V15.4702L92.1856 27.4909H89.0077L86.7608 15.6416V27.4909H82.8761V10.3882H88.5436L90.6191 21.4805L92.7711 10.3882Z" fill="#00BF63"/>
<path d="M109.847 19.7214V27.4908H106.477L106.329 25.8055C105.596 27.2719 104.351 27.9074 102.909 27.9074C100.783 27.9074 99.636 26.4411 99.636 24.1942C99.636 21.2879 101.493 20.6761 103.228 20.3833C104.792 20.1381 106.087 20.0669 106.232 19.2836C106.158 18.1364 105.815 17.4771 105.011 17.4771C104.106 17.4771 103.79 18.1126 103.79 19.041H100.1C100.49 15.987 101.957 14.8635 105.158 14.8635C109.552 14.8609 109.847 17.303 109.847 19.7214ZM106.232 22.5063V21.3327C105.889 21.8707 105.253 21.9446 104.644 22.0659C103.961 22.2373 103.275 22.4826 103.275 23.825C103.275 24.8746 103.813 25.3651 104.473 25.3651C105.644 25.3651 106.232 23.9726 106.232 22.5063Z" fill="#00BF63"/>
<path d="M117.786 17.8884H115.879V23.0442C115.879 24.4367 116.124 24.9009 117.638 24.9009V27.7597C112.777 27.7597 112.189 26.4648 112.189 23.3132V17.8884H110.723V15.2748H112.189V11.5378H115.879V15.2748H117.786V17.8884Z" fill="#00BF63"/>
<path d="M129.047 22.3113H121.937C122.084 24.5582 122.791 25.2676 123.77 25.2676C124.6 25.2676 125.041 24.7534 125.31 23.825H128.875C128.216 26.6601 126.359 27.8812 123.867 27.8812C120.056 27.8812 118.492 25.5103 118.492 21.4304C118.492 16.7888 120.618 14.8821 123.867 14.8821C127.58 14.8821 129.094 17.3005 129.094 21.3566C129.097 21.6519 129.097 21.8972 129.047 22.3113ZM121.963 20.1619H125.603C125.407 18.2314 124.772 17.4745 123.793 17.4745C122.575 17.4745 122.084 18.4266 121.963 20.1619Z" fill="#00BF63"/>
<path d="M145.741 27.6993L144.886 23.9122H140.537L139.683 27.6993H135.603L140.268 10.5967H145.031L149.892 27.6993H145.741ZM141.22 20.9058H144.177L142.687 14.3574L141.22 20.9058Z" fill="#00BF63"/>
<path d="M150.944 27.6993V10.5967H155V27.6993H150.944Z" fill="#00BF63"/>
<path d="M19.1466 38.2957H0V19.1492C0 8.57375 8.57375 0 19.1466 0C29.722 0 38.2931 8.57375 38.2931 19.1466C38.2957 29.722 29.722 38.2957 19.1466 38.2957Z" fill="#00BF63"/>
<path d="M18.0416 18.4609V20.5997C18.0416 21.1245 17.6144 21.5491 17.0922 21.5491H16.483C15.9582 21.5491 15.5336 21.1245 15.5336 20.5997V18.4609C15.5336 17.9361 15.9608 17.5115 16.483 17.5115H17.0922C17.617 17.5088 18.0416 17.9361 18.0416 18.4609Z" fill="white"/>
<path d="M22.7623 18.4609V20.5997C22.7623 21.1245 22.3351 21.5491 21.8129 21.5491H21.2037C20.6789 21.5491 20.2543 21.1245 20.2543 20.5997V18.4609C20.2543 17.9361 20.6789 17.5115 21.2037 17.5115H21.8129C22.3351 17.5088 22.7623 17.9361 22.7623 18.4609Z" fill="white"/>
<path d="M28.2161 16.1823C27.8759 16.1823 27.5568 16.4223 27.2957 16.8337C25.9349 14.6659 23.1948 13.1205 19.9694 12.8936V11.335C20.7263 11.0133 21.259 10.2617 21.259 9.38608C21.259 8.21777 20.3123 7.271 19.1466 7.271C17.9783 7.271 17.0315 8.21777 17.0315 9.38608C17.0315 10.2617 17.5642 11.0133 18.3211 11.335V12.8936C15.0957 13.1205 12.3556 14.6659 10.9948 16.8337C10.7337 16.4223 10.4146 16.1823 10.0744 16.1823C9.16981 16.1823 8.43665 17.8649 8.43665 19.9431C8.43665 22.0186 9.16981 23.7038 10.0744 23.7038C10.4146 23.7038 10.7337 23.4638 10.9948 23.0524C12.469 25.4022 15.5652 27.0215 19.1466 27.0215C22.7254 27.0215 25.8215 25.4022 27.2957 23.0524C27.5568 23.4638 27.8759 23.7038 28.2161 23.7038C29.1207 23.7038 29.8539 22.0212 29.8539 19.9431C29.8539 17.8649 29.1207 16.1823 28.2161 16.1823ZM18.0416 20.5997C18.0416 21.1246 17.6143 21.5492 17.0922 21.5492H16.4829C15.9581 21.5492 15.5335 21.1246 15.5335 20.5997V18.4609C15.5335 17.9361 15.9608 17.5115 16.4829 17.5115H17.0922C17.617 17.5115 18.0416 17.9387 18.0416 18.4609V20.5997ZM22.7623 20.5997C22.7623 21.1246 22.335 21.5492 21.8129 21.5492H21.2036C20.6788 21.5492 20.2542 21.1246 20.2542 20.5997V18.4609C20.2542 17.9361 20.6788 17.5115 21.2036 17.5115H21.8129C22.3377 17.5115 22.7623 17.9387 22.7623 18.4609V20.5997Z" fill="white"/>
<path d="M22.7623 18.4609V20.5997C22.7623 21.1245 22.3351 21.5491 21.8129 21.5491H21.2037C20.6789 21.5491 20.2543 21.1245 20.2543 20.5997V18.4609C20.2543 17.9361 20.6789 17.5115 21.2037 17.5115H21.8129C22.3351 17.5088 22.7623 17.9361 22.7623 18.4609Z" fill="#00BF63"/>
<path d="M18.0416 18.4609V20.5997C18.0416 21.1245 17.6144 21.5491 17.0922 21.5491H16.483C15.9582 21.5491 15.5336 21.1245 15.5336 20.5997V18.4609C15.5336 17.9361 15.9608 17.5115 16.483 17.5115H17.0922C17.617 17.5088 18.0416 17.9361 18.0416 18.4609Z" fill="#00BF63"/>
</svg>
