<svg width="339" height="470" viewBox="0 0 339 470" fill="none" xmlns="http://www.w3.org/2000/svg">
<path d="M36.8184 16.7131H34.7541H32.6997L29.2659 87.7486H34.7541H40.2523L36.8184 16.7131Z" fill="url(#paint0_linear_2074_1593)"/>
<path d="M47.9124 13.1457C47.9124 15.7457 47.1403 18.2873 45.6945 20.4491C44.2486 22.6109 42.1936 24.2958 39.7893 25.2908C37.385 26.2858 34.7394 26.5461 32.1869 26.0389C29.6345 25.5316 27.2898 24.2797 25.4496 22.4412C23.6094 20.6028 22.3566 18.2604 21.8488 15.7104C21.3411 13.1604 21.6015 10.5171 22.5974 8.11505C23.5933 5.71298 25.2801 3.65993 27.444 2.21545C29.6078 0.770976 32.1516 0 34.754 0C38.2438 0 41.5907 1.38492 44.0584 3.85023C46.526 6.31554 47.9124 9.65925 47.9124 13.1457Z" fill="url(#paint1_radial_2074_1593)"/>
<g style="mix-blend-mode:screen" opacity="0.75">
<path d="M41.8566 9.72482C41.8566 10.5618 41.6079 11.38 41.1424 12.076C40.677 12.7719 40.0153 13.3143 39.2413 13.6346C38.4672 13.9549 37.6158 14.0388 36.7941 13.8755C35.9724 13.7122 35.2174 13.3091 34.625 12.7172C34.0325 12.1254 33.6291 11.3713 33.4656 10.5504C33.3022 9.7295 33.3862 8.87865 33.7069 8.10537C34.0275 7.33208 34.5704 6.67115 35.267 6.20614C35.9636 5.74113 36.7827 5.49293 37.6205 5.49293C38.1771 5.49164 38.7287 5.60021 39.2432 5.81243C39.7577 6.02465 40.2248 6.33631 40.6184 6.72953C41.012 7.12276 41.3241 7.58979 41.5365 8.10382C41.7489 8.61784 41.8579 9.16871 41.8566 9.72482Z" fill="white"/>
</g>
<path d="M50.6418 149.587L22.3099 137.321V85.4809L50.6418 73.2148V149.587Z" fill="#00914B"/>
<path d="M28.9233 82.6174L22.3099 85.4812V137.321L28.9233 140.185V82.6174Z" fill="#F1F0F2"/>
<path d="M288.625 149.587L316.956 137.321V85.4809L288.625 73.2148V149.587Z" fill="#00914B"/>
<path d="M255.323 238.919C255.323 238.919 298.555 247.256 317.045 274.818C343.313 313.982 348.673 353.155 316.595 369.399C284.516 385.643 236.843 277.32 241.705 268.573C246.568 259.825 255.323 238.919 255.323 238.919Z" fill="url(#paint2_radial_2074_1593)"/>
<path style="mix-blend-mode:multiply" d="M320.175 308.313C301.176 319.777 277.394 321.019 256.898 312.897C272.669 344.339 297.41 379.153 316.575 369.448C341.63 356.742 343.84 330.089 331.103 300.357C327.688 303.308 324.033 305.97 320.175 308.313Z" fill="url(#paint3_linear_2074_1593)"/>
<path d="M83.9536 238.919C83.9536 238.919 40.7317 247.256 22.2416 274.818C-4.03579 313.982 -9.38696 353.155 22.6821 369.399C54.7511 385.643 102.444 277.32 97.5716 268.573C92.6996 259.825 83.9536 238.919 83.9536 238.919Z" fill="url(#paint4_radial_2074_1593)"/>
<path style="mix-blend-mode:multiply" d="M83.6406 302.673C71.8421 311.47 57.0012 316.357 43.8331 315.057C30.8023 313.732 18.3674 308.932 7.83098 301.158C-4.5251 330.558 -2.13785 356.869 22.6819 369.438C43.3536 379.896 70.4821 338.67 85.8709 305.664C85.0478 304.729 84.3021 303.729 83.6406 302.673Z" fill="url(#paint5_linear_2074_1593)"/>
<path d="M302.586 297.151C320.391 333.949 326.418 367.835 316.048 372.849C305.677 377.863 282.843 352.08 265.038 315.281C247.233 278.483 241.206 244.588 251.576 239.584C261.946 234.58 284.78 260.343 302.586 297.151Z" fill="#00914B"/>
<path d="M36.9356 297.151C19.1304 333.949 13.0943 367.835 23.4643 372.849C33.8343 377.863 56.6681 352.08 74.4733 315.281C92.2785 278.483 98.3048 244.588 87.9446 239.584C77.5843 234.58 54.731 260.343 36.9356 297.151Z" fill="#00914B"/>
<path d="M242.889 437.747V457.294C242.889 464.282 247.37 469.932 252.887 469.932H265.468C270.986 469.932 275.467 464.282 275.467 457.294V437.747H242.889Z" fill="white"/>
<path d="M252.887 437.747H242.889V457.294C242.889 464.282 247.37 469.932 252.887 469.932V437.747Z" fill="#D0D3D9"/>
<path d="M265.468 437.747V470C270.986 470 275.467 464.351 275.467 457.362V437.815L265.468 437.747Z" fill="#D0D3D9"/>
<path d="M63.8585 437.747V457.294C63.8585 464.282 68.3392 469.932 73.8666 469.932H86.438C91.9556 469.932 96.4365 464.282 96.4365 457.294V437.747H63.8585Z" fill="white"/>
<path d="M73.8665 437.747H63.8585V457.294C63.8585 464.282 68.3391 469.932 73.8665 469.932V437.747Z" fill="#D0D3D9"/>
<path d="M86.438 437.747V470C91.9556 470 96.4364 464.351 96.4364 457.362V437.815L86.438 437.747Z" fill="#D0D3D9"/>
<path d="M205.4 196.648H133.876C133.876 196.648 19.4142 272.072 17.6826 409.715C17.3794 433.7 38.7943 453.893 64.0151 453.893H275.251C300.472 453.893 321.887 433.7 321.593 409.715C319.901 272.072 205.4 196.648 205.4 196.648Z" fill="url(#paint6_radial_2074_1593)"/>
<path d="M279.517 446.123H59.7596C52.913 446.136 46.1355 444.757 39.8399 442.068C33.5444 439.38 27.8625 435.439 23.1414 430.485C27.3106 437.62 33.2779 443.54 40.449 447.656C47.6201 451.771 55.7452 453.938 64.0153 453.942H275.252C283.522 453.939 291.647 451.773 298.818 447.657C305.99 443.542 311.957 437.621 316.125 430.485C311.405 435.437 305.725 439.378 299.432 442.066C293.138 444.755 286.362 446.135 279.517 446.123Z" fill="#B3B3BB"/>
<path style="mix-blend-mode:screen" opacity="0.75" d="M169.643 334.516C215.144 334.516 255.02 317.754 277.355 292.597C246.117 238.01 202.191 209.041 202.191 209.041H137.095C137.095 209.041 93.1689 238.01 61.9315 292.597C84.2565 317.754 124.132 334.516 169.643 334.516Z" fill="url(#paint7_radial_2074_1593)"/>
<path d="M169.643 352.011C118.076 352.011 71.6755 336.608 39.3131 312.056C38.3348 314.245 37.4251 316.513 36.4957 318.761C70.8539 340.967 117.793 357.621 169.643 357.621C221.493 357.621 268.452 341.006 302.781 318.761C301.803 316.513 300.942 314.245 299.963 312.056C267.601 336.657 221.21 352.011 169.643 352.011Z" fill="#C7C8C9"/>
<path style="mix-blend-mode:screen" opacity="0.32" d="M268.325 378.391C276.318 377.413 283.831 375.361 290.171 371.784C300.629 365.919 304.483 352.344 297.753 342.404C296.393 340.449 295.092 339.354 294.006 339.745C287.891 341.974 228.958 368.089 228.958 368.089C214.988 374.247 239.974 377.022 264.529 378.498C265.795 378.58 267.066 378.544 268.325 378.391Z" fill="url(#paint8_radial_2074_1593)"/>
<path style="mix-blend-mode:screen" opacity="0.32" d="M69.6404 378.391C61.6476 377.413 54.1341 375.361 47.7946 371.784C37.3365 365.919 33.4819 352.344 40.2127 342.404C41.5628 340.449 42.8738 339.354 43.9597 339.745C50.0742 341.974 109.007 368.089 109.007 368.089C122.978 374.247 97.9917 377.022 73.4361 378.498C72.1702 378.58 70.8996 378.544 69.6404 378.391Z" fill="url(#paint9_radial_2074_1593)"/>
<g style="mix-blend-mode:multiply" opacity="0.75">
<path d="M169.643 250.179C199.374 250.179 226.453 243.669 246.763 233.016C224.262 209.07 205.4 196.648 205.4 196.648H133.876C133.876 196.648 115.024 209.07 92.5133 233.016C112.852 243.669 139.902 250.179 169.643 250.179Z" fill="#C5C7D1"/>
</g>
<path d="M169.643 209.041C243.178 209.041 302.791 165.768 302.791 112.388C302.791 59.0085 243.178 15.7356 169.643 15.7356C96.1076 15.7356 36.4952 59.0085 36.4952 112.388C36.4952 165.768 96.1076 209.041 169.643 209.041Z" fill="url(#paint10_radial_2074_1593)"/>
<path d="M169.643 188.662C227.677 188.662 274.723 154.513 274.723 112.388C274.723 70.263 227.677 36.1138 169.643 36.1138C111.609 36.1138 64.563 70.263 64.563 112.388C64.563 154.513 111.609 188.662 169.643 188.662Z" fill="white"/>
<path d="M169.643 184.225C224.3 184.225 268.609 152.063 268.609 112.388C268.609 72.7138 224.3 40.5513 169.643 40.5513C114.986 40.5513 70.6775 72.7138 70.6775 112.388C70.6775 152.063 114.986 184.225 169.643 184.225Z" fill="url(#paint11_radial_2074_1593)"/>
<path d="M126.441 139.188C141.488 139.188 153.687 127.001 153.687 111.968C153.687 96.9348 141.488 84.748 126.441 84.748C111.393 84.748 99.1951 96.9348 99.1951 111.968C99.1951 127.001 111.393 139.188 126.441 139.188Z" fill="white"/>
<path d="M126.441 134.321C138.798 134.321 148.815 124.313 148.815 111.968C148.815 99.6231 138.798 89.6155 126.441 89.6155C114.084 89.6155 104.067 99.6231 104.067 111.968C104.067 124.313 114.084 134.321 126.441 134.321Z" fill="url(#paint12_radial_2074_1593)"/>
<path d="M126.441 120.852C131.352 120.852 135.334 116.875 135.334 111.968C135.334 107.061 131.352 103.084 126.441 103.084C121.53 103.084 117.548 107.061 117.548 111.968C117.548 116.875 121.53 120.852 126.441 120.852Z" fill="white"/>
<path d="M141.096 78.9131C140.923 78.9106 140.753 78.8719 140.596 78.7995C140.439 78.7271 140.299 78.6226 140.186 78.4928C125.364 62.1609 111.482 77.7988 110.895 78.4928C110.779 78.6444 110.627 78.766 110.454 78.8475C110.281 78.929 110.091 78.968 109.899 78.9613C109.708 78.9546 109.521 78.9024 109.354 78.809C109.187 78.7157 109.045 78.5838 108.939 78.4244C108.692 78.0778 108.565 77.6602 108.578 77.2351C108.59 76.8101 108.741 76.4006 109.007 76.0689C109.164 75.8734 125.316 57.6846 141.976 76.0689C142.247 76.3974 142.403 76.8051 142.42 77.2302C142.438 77.6554 142.316 78.0746 142.074 78.4244C141.958 78.5745 141.81 78.6964 141.641 78.781C141.471 78.8657 141.285 78.9109 141.096 78.9131Z" fill="white"/>
<path d="M212.845 139.188C227.892 139.188 240.091 127.001 240.091 111.968C240.091 96.9348 227.892 84.748 212.845 84.748C197.798 84.748 185.599 96.9348 185.599 111.968C185.599 127.001 197.798 139.188 212.845 139.188Z" fill="white"/>
<path d="M190.471 111.968C190.473 116.388 191.787 120.709 194.247 124.384C196.706 128.058 200.201 130.922 204.29 132.612C208.378 134.302 212.876 134.744 217.216 133.88C221.555 133.016 225.541 130.887 228.669 127.76C231.797 124.634 233.927 120.651 234.79 116.315C235.652 111.98 235.209 107.486 233.515 103.402C231.821 99.3182 228.954 95.8278 225.275 93.3722C221.595 90.9165 217.27 89.6057 212.845 89.6057C209.906 89.6057 206.996 90.1842 204.281 91.3081C201.565 92.4321 199.099 94.0794 197.021 96.1561C194.944 98.2327 193.296 100.698 192.172 103.411C191.048 106.124 190.47 109.032 190.471 111.968Z" fill="url(#paint13_radial_2074_1593)"/>
<path d="M203.953 111.968C203.955 113.725 204.478 115.441 205.456 116.901C206.434 118.361 207.824 119.498 209.449 120.169C211.074 120.84 212.862 121.014 214.586 120.671C216.311 120.327 217.895 119.48 219.137 118.237C220.38 116.994 221.226 115.411 221.568 113.688C221.911 111.965 221.734 110.179 221.061 108.556C220.387 106.933 219.248 105.546 217.785 104.57C216.323 103.595 214.604 103.074 212.846 103.074C211.677 103.074 210.52 103.304 209.44 103.751C208.36 104.198 207.38 104.853 206.554 105.679C205.728 106.505 205.073 107.486 204.627 108.565C204.18 109.644 203.951 110.8 203.953 111.968Z" fill="white"/>
<path d="M198.18 78.9131C198.353 78.9106 198.523 78.8719 198.679 78.7995C198.836 78.7271 198.976 78.6226 199.09 78.4928C213.911 62.1609 227.803 77.7989 228.439 78.4928C228.555 78.6464 228.706 78.7698 228.879 78.8526C229.053 78.9355 229.244 78.9752 229.436 78.9685C229.628 78.9618 229.816 78.9088 229.983 78.8141C230.15 78.7194 230.292 78.5857 230.396 78.4244C230.644 78.0789 230.772 77.6619 230.762 77.2368C230.751 76.8118 230.602 76.4018 230.337 76.0689C230.171 75.8735 214.019 57.6846 197.358 76.0689C197.087 76.3974 196.931 76.8052 196.914 77.2303C196.896 77.6554 197.018 78.0747 197.26 78.4244C197.369 78.5671 197.508 78.6844 197.667 78.7688C197.825 78.8531 198.001 78.9024 198.18 78.9131Z" fill="white"/>
<path d="M151.241 146.968H188.035C188.035 146.968 182.498 161.267 169.643 161.267C156.788 161.267 151.241 146.968 151.241 146.968Z" fill="white"/>
<path d="M142.113 101.979C142.113 102.776 141.877 103.554 141.434 104.216C140.991 104.879 140.361 105.395 139.625 105.7C138.888 106.004 138.078 106.084 137.296 105.929C136.515 105.773 135.797 105.39 135.233 104.827C134.669 104.263 134.285 103.546 134.129 102.765C133.974 101.984 134.054 101.174 134.359 100.438C134.664 99.7024 135.181 99.0735 135.843 98.631C136.506 98.1886 137.285 97.9524 138.083 97.9524C139.151 97.9524 140.176 98.3766 140.932 99.1318C141.688 99.887 142.113 100.911 142.113 101.979Z" fill="white"/>
<path d="M224.458 106.006C226.684 106.006 228.488 104.203 228.488 101.979C228.488 99.7552 226.684 97.9524 224.458 97.9524C222.232 97.9524 220.427 99.7552 220.427 101.979C220.427 104.203 222.232 106.006 224.458 106.006Z" fill="white"/>
<path d="M310.343 82.6174L316.957 85.4812V137.321L310.343 140.185V82.6174Z" fill="#F1F0F2"/>
<path d="M173.147 303.296H154V284.149C154 273.574 162.574 265 173.147 265C183.722 265 192.293 273.574 192.293 284.147C192.296 294.722 183.722 303.296 173.147 303.296Z" fill="#00BF63"/>
<path d="M172.041 283.461V285.6C172.041 286.125 171.614 286.549 171.092 286.549H170.483C169.958 286.549 169.533 286.125 169.533 285.6V283.461C169.533 282.936 169.961 282.512 170.483 282.512H171.092C171.617 282.509 172.041 282.936 172.041 283.461Z" fill="white"/>
<path d="M176.762 283.461V285.6C176.762 286.125 176.335 286.549 175.813 286.549H175.204C174.679 286.549 174.254 286.125 174.254 285.6V283.461C174.254 282.936 174.679 282.512 175.204 282.512H175.813C176.335 282.509 176.762 282.936 176.762 283.461Z" fill="white"/>
<path d="M182.216 281.182C181.876 281.182 181.557 281.422 181.296 281.834C179.935 279.666 177.195 278.121 173.969 277.894V276.335C174.726 276.013 175.259 275.262 175.259 274.386C175.259 273.218 174.312 272.271 173.146 272.271C171.978 272.271 171.031 273.218 171.031 274.386C171.031 275.262 171.564 276.013 172.321 276.335V277.894C169.096 278.121 166.355 279.666 164.995 281.834C164.734 281.422 164.414 281.182 164.074 281.182C163.17 281.182 162.437 282.865 162.437 284.943C162.437 287.019 163.17 288.704 164.074 288.704C164.414 288.704 164.734 288.464 164.995 288.053C166.469 290.402 169.565 292.022 173.146 292.022C176.725 292.022 179.821 290.402 181.296 288.053C181.557 288.464 181.876 288.704 182.216 288.704C183.121 288.704 183.854 287.021 183.854 284.943C183.854 282.865 183.121 281.182 182.216 281.182ZM172.041 285.6C172.041 286.125 171.614 286.549 171.092 286.549H170.483C169.958 286.549 169.533 286.125 169.533 285.6V283.461C169.533 282.936 169.961 282.512 170.483 282.512H171.092C171.617 282.512 172.041 282.939 172.041 283.461V285.6ZM176.762 285.6C176.762 286.125 176.335 286.549 175.813 286.549H175.204C174.679 286.549 174.254 286.125 174.254 285.6V283.461C174.254 282.936 174.679 282.512 175.204 282.512H175.813C176.338 282.512 176.762 282.939 176.762 283.461V285.6Z" fill="white"/>
<path d="M176.762 283.461V285.6C176.762 286.125 176.335 286.549 175.813 286.549H175.204C174.679 286.549 174.254 286.125 174.254 285.6V283.461C174.254 282.936 174.679 282.512 175.204 282.512H175.813C176.335 282.509 176.762 282.936 176.762 283.461Z" fill="#00BF63"/>
<path d="M172.041 283.461V285.6C172.041 286.125 171.614 286.549 171.092 286.549H170.483C169.958 286.549 169.533 286.125 169.533 285.6V283.461C169.533 282.936 169.961 282.512 170.483 282.512H171.092C171.617 282.509 172.041 282.936 172.041 283.461Z" fill="#00BF63"/>
<path d="M144.235 308C146.969 308 148.238 309.603 148.238 312.895C148.238 316.409 146.69 317.762 144.235 317.762H141V308H144.235ZM144.152 315.823C145.337 315.823 145.853 315.098 145.853 312.895C145.853 310.33 145.058 309.939 144.152 309.939H143.315V315.823H144.152Z" fill="#00BF63"/>
<path d="M149.102 309.897V308.126H151.25V309.897H149.102ZM149.129 317.762V310.789H151.235V317.762H149.129Z" fill="#00BF63"/>
<path d="M158.012 314.806H153.954C154.038 316.088 154.442 316.493 155 316.493C155.474 316.493 155.726 316.2 155.879 315.67H157.914C157.538 317.288 156.478 317.985 155.056 317.985C152.88 317.985 151.988 316.632 151.988 314.303C151.988 311.653 153.201 310.565 155.056 310.565C157.175 310.565 158.039 311.945 158.039 314.261C158.039 314.429 158.039 314.569 158.012 314.806ZM153.967 313.579H156.045C155.933 312.477 155.571 312.045 155.014 312.045C154.317 312.045 154.038 312.588 153.967 313.579Z" fill="#00BF63"/>
<path d="M162.293 312.281H161.205V315.224C161.205 316.019 161.345 316.284 162.209 316.284V317.916C159.435 317.916 159.099 317.176 159.099 315.378V312.281H158.262V310.789H159.099V308.656H161.205V310.789H162.293V312.281Z" fill="#00BF63"/>
<path d="M168.875 308H172.027V317.762H169.823V310.901L168.54 317.762H166.726L165.444 310.999V317.762H163.227V308H166.462L167.646 314.331L168.875 308Z" fill="#00BF63"/>
<path d="M178.622 313.327V317.762H176.698L176.614 316.8C176.195 317.637 175.485 318 174.661 318C173.448 318 172.793 317.163 172.793 315.88C172.793 314.222 173.853 313.872 174.843 313.705C175.736 313.565 176.475 313.525 176.558 313.078C176.516 312.423 176.32 312.046 175.861 312.046C175.345 312.046 175.164 312.409 175.164 312.939H173.058C173.281 311.196 174.118 310.555 175.945 310.555C178.453 310.553 178.622 311.947 178.622 313.327ZM176.558 314.917V314.247C176.362 314.554 175.999 314.596 175.652 314.666C175.262 314.764 174.87 314.904 174.87 315.67C174.87 316.269 175.177 316.549 175.554 316.549C176.222 316.549 176.558 315.754 176.558 314.917Z" fill="#00BF63"/>
<path d="M183.153 312.281H182.065V315.224C182.065 316.019 182.205 316.284 183.069 316.284V317.916C180.294 317.916 179.959 317.176 179.959 315.378V312.281H179.122V310.789H179.959V308.656H182.065V310.789H183.153V312.281Z" fill="#00BF63"/>
<path d="M189.581 314.806H185.522C185.606 316.088 186.01 316.493 186.568 316.493C187.043 316.493 187.294 316.2 187.447 315.67H189.483C189.106 317.288 188.047 317.985 186.624 317.985C184.449 317.985 183.556 316.632 183.556 314.303C183.556 311.653 184.769 310.565 186.624 310.565C188.744 310.565 189.608 311.945 189.608 314.261C189.609 314.429 189.609 314.569 189.581 314.806ZM185.537 313.579H187.615C187.503 312.477 187.14 312.045 186.582 312.045C185.886 312.045 185.606 312.588 185.537 313.579Z" fill="#00BF63"/>
<path d="M199.109 317.881L198.622 315.719H196.139L195.652 317.881H193.323L195.986 308.119H198.704L201.479 317.881H199.109ZM196.529 314.003H198.217L197.366 310.266L196.529 314.003Z" fill="#00BF63"/>
<path d="M202.079 317.881V308.119H204.395V317.881H202.079Z" fill="#00BF63"/>
<defs>
<linearGradient id="paint0_linear_2074_1593" x1="30.9583" y1="52.2309" x2="46.6406" y2="52.2309" gradientUnits="userSpaceOnUse">
<stop stop-color="#E0E1E0"/>
<stop offset="0.15" stop-color="#C2C2C2"/>
<stop offset="0.32" stop-color="#F5F5F7"/>
<stop offset="0.96" stop-color="#F2F2F2"/>
</linearGradient>
<radialGradient id="paint1_radial_2074_1593" cx="0" cy="0" r="1" gradientUnits="userSpaceOnUse" gradientTransform="translate(38.0315 9.59785) scale(13.1582 13.1457)">
<stop stop-color="#9FADC1"/>
<stop offset="0.35" stop-color="#00BF63"/>
<stop offset="0.99" stop-color="#00914B"/>
</radialGradient>
<radialGradient id="paint2_radial_2074_1593" cx="0" cy="0" r="1" gradientUnits="userSpaceOnUse" gradientTransform="translate(289.515 280.995) scale(79.0962 79.0207)">
<stop offset="0.04" stop-color="#F2F2F2"/>
<stop offset="0.49" stop-color="#F5F5F7"/>
<stop offset="0.87" stop-color="#E5E5E5"/>
<stop offset="1" stop-color="#E0E1E0"/>
</radialGradient>
<linearGradient id="paint3_linear_2074_1593" x1="297.821" y1="196.96" x2="297.821" y2="357.768" gradientUnits="userSpaceOnUse">
<stop offset="0.04" stop-color="#F2F2F2"/>
<stop offset="0.49" stop-color="#F5F5F7"/>
<stop offset="0.87" stop-color="#E5E5E5"/>
<stop offset="1" stop-color="#E0E1E0"/>
</linearGradient>
<radialGradient id="paint4_radial_2074_1593" cx="0" cy="0" r="1" gradientUnits="userSpaceOnUse" gradientTransform="translate(49.7714 280.995) rotate(180) scale(79.0963 79.0207)">
<stop offset="0.04" stop-color="#F2F2F2"/>
<stop offset="0.49" stop-color="#F5F5F7"/>
<stop offset="0.87" stop-color="#E5E5E5"/>
<stop offset="1" stop-color="#E0E1E0"/>
</radialGradient>
<linearGradient id="paint5_linear_2074_1593" x1="43.2166" y1="196.96" x2="43.2166" y2="357.768" gradientUnits="userSpaceOnUse">
<stop offset="0.04" stop-color="#F2F2F2"/>
<stop offset="0.49" stop-color="#F5F5F7"/>
<stop offset="0.87" stop-color="#E5E5E5"/>
<stop offset="1" stop-color="#E0E1E0"/>
</linearGradient>
<radialGradient id="paint6_radial_2074_1593" cx="0" cy="0" r="1" gradientUnits="userSpaceOnUse" gradientTransform="translate(169.643 300.132) scale(193.02 192.836)">
<stop offset="0.04" stop-color="#F2F2F2"/>
<stop offset="0.49" stop-color="#F5F5F7"/>
<stop offset="0.87" stop-color="#C8C6CC"/>
<stop offset="1" stop-color="#E0E1E0"/>
</radialGradient>
<radialGradient id="paint7_radial_2074_1593" cx="0" cy="0" r="1" gradientUnits="userSpaceOnUse" gradientTransform="translate(168.459 248.957) scale(106.655 106.553)">
<stop offset="0.04" stop-color="#F2F2F2"/>
<stop offset="0.49" stop-color="#F5F5F7"/>
<stop offset="0.87" stop-color="#E5E5E5"/>
<stop offset="1" stop-color="#E0E1E0"/>
</radialGradient>
<radialGradient id="paint8_radial_2074_1593" cx="0" cy="0" r="1" gradientUnits="userSpaceOnUse" gradientTransform="translate(264.03 359.957) scale(31.1395 31.11)">
<stop offset="0.04" stop-color="#F2F2F2"/>
<stop offset="0.49" stop-color="#F5F5F7"/>
<stop offset="0.87" stop-color="#E5E5E5"/>
<stop offset="1" stop-color="#E0E1E0"/>
</radialGradient>
<radialGradient id="paint9_radial_2074_1593" cx="0" cy="0" r="1" gradientUnits="userSpaceOnUse" gradientTransform="translate(73.9252 359.957) rotate(180) scale(31.1395 31.11)">
<stop offset="0.04" stop-color="#F2F2F2"/>
<stop offset="0.49" stop-color="#F5F5F7"/>
<stop offset="0.87" stop-color="#E5E5E5"/>
<stop offset="1" stop-color="#E0E1E0"/>
</radialGradient>
<radialGradient id="paint10_radial_2074_1593" cx="0" cy="0" r="1" gradientUnits="userSpaceOnUse" gradientTransform="translate(169.643 89.8988) scale(152.548 152.402)">
<stop offset="0.04" stop-color="#F2F2F2"/>
<stop offset="0.49" stop-color="#F5F5F7"/>
<stop offset="0.87" stop-color="#C8C6CC"/>
<stop offset="1" stop-color="#E0E1E0"/>
</radialGradient>
<radialGradient id="paint11_radial_2074_1593" cx="0" cy="0" r="1" gradientUnits="userSpaceOnUse" gradientTransform="translate(171.306 112.388) scale(108.778 108.674)">
<stop stop-color="#9FADC1"/>
<stop offset="0.35" stop-color="#00BF63"/>
<stop offset="0.99" stop-color="#00BF63"/>
</radialGradient>
<radialGradient id="paint12_radial_2074_1593" cx="0" cy="0" r="1" gradientUnits="userSpaceOnUse" gradientTransform="translate(126.441 111.968) scale(22.3739 22.3526)">
<stop stop-color="#3C3749"/>
<stop offset="0.99" stop-color="#151222"/>
</radialGradient>
<radialGradient id="paint13_radial_2074_1593" cx="0" cy="0" r="1" gradientUnits="userSpaceOnUse" gradientTransform="translate(212.845 111.968) rotate(180) scale(22.3738 22.3525)">
<stop stop-color="#3C3749"/>
<stop offset="0.99" stop-color="#151222"/>
</radialGradient>
</defs>
</svg>
