<svg width="70" height="70" viewBox="0 0 70 70" fill="none" xmlns="http://www.w3.org/2000/svg">
<g clip-path="url(#clip0_2074_1110)">
<path fill-rule="evenodd" clip-rule="evenodd" d="M34.9969 0C15.2849 0 0 14.445 0 33.947C0 44.1486 4.18213 52.9679 10.989 59.0573C11.2735 59.3079 11.5033 59.6143 11.6644 59.9575C11.8254 60.3006 11.9142 60.6732 11.9252 61.0522L12.1177 67.2816C12.1317 67.74 12.2581 68.1879 12.4857 68.5859C12.7134 68.984 13.0353 69.3201 13.4233 69.5646C13.8112 69.8091 14.2533 69.9546 14.7106 69.9882C15.1679 70.0219 15.6265 69.9427 16.0461 69.7576L22.993 66.6954C23.5826 66.4357 24.2436 66.3863 24.8653 66.5554C28.1671 67.4554 31.5747 67.9086 34.9969 67.9028C54.709 67.9028 69.9939 53.4578 69.9939 33.9558C69.9939 14.4537 54.709 0 34.9969 0Z" fill="url(#paint0_radial_2074_1110)"/>
<path fill-rule="evenodd" clip-rule="evenodd" d="M13.9813 43.8774L24.2617 27.5688C24.6484 26.9548 25.1582 26.4276 25.759 26.0206C26.3597 25.6136 27.0383 25.3355 27.7519 25.204C28.4656 25.0724 29.1987 25.0903 29.9051 25.2563C30.6115 25.4224 31.2758 25.7332 31.856 26.1689L40.0365 32.3021C40.4017 32.5756 40.846 32.7226 41.3022 32.721C41.7585 32.7195 42.2017 32.5693 42.565 32.2934L53.6066 23.9116C55.0764 22.7917 57.0013 24.5591 56.0214 26.1252L45.7323 42.425C45.3455 43.039 44.8357 43.5662 44.235 43.9732C43.6342 44.3802 42.9556 44.6583 42.242 44.7899C41.5284 44.9214 40.7952 44.9036 40.0888 44.7375C39.3825 44.5714 38.7182 44.2607 38.1379 43.8249L29.9574 37.6917C29.5922 37.4183 29.1479 37.2712 28.6917 37.2728C28.2355 37.2744 27.7922 37.4245 27.4289 37.7004L16.3874 46.0822C14.9175 47.2021 12.9927 45.4435 13.9813 43.8774Z" fill="white"/>
</g>
<defs>
<radialGradient id="paint0_radial_2074_1110" cx="0" cy="0" r="1" gradientUnits="userSpaceOnUse" gradientTransform="translate(13.4738 69.9169) scale(76.2933 76.2933)">
<stop stop-color="#0099FF"/>
<stop offset="0.61" stop-color="#A033FF"/>
<stop offset="0.93" stop-color="#FF5280"/>
<stop offset="1" stop-color="#FF7061"/>
</radialGradient>
<clipPath id="clip0_2074_1110">
<rect width="69.9939" height="70" fill="white"/>
</clipPath>
</defs>
</svg>
