<svg width="280" height="236" viewBox="0 0 280 236" fill="none" xmlns="http://www.w3.org/2000/svg">
<path opacity="0.5" d="M49.1765 193.345C49.1765 193.345 15.3763 169.273 5.64821 128.297C-4.07991 87.3216 10.7706 37.6445 38.9385 12.546C67.1064 -12.5525 117.813 4.35088 140.349 25.3502L162.885 46.3495C162.885 46.3495 184.397 58.1306 212.565 57.1075C240.733 56.0843 265.832 94.4936 272.49 124.711C279.149 154.929 263.275 194.894 263.275 194.894L49.1765 193.345Z" fill="white"/>
<path opacity="0.5" d="M33.8263 199.49C33.8263 199.49 10.2675 186.686 4.12198 156.978C-2.02351 127.271 24.6081 100.129 27.1709 85.2755C29.7338 70.4216 24.0982 51.9852 47.657 37.6413C71.2158 23.2973 113.214 28.4197 129.091 24.8371C144.968 21.2545 163.408 -3.34092 195.175 2.30139C226.943 7.94369 257.66 24.8371 259.196 61.7133C260.733 98.5896 248.952 99.6194 260.733 119.589C272.514 139.558 277.123 153.392 271.487 173.878C265.852 194.365 254.074 200 254.074 200L33.8263 199.49Z" fill="white"/>
<path opacity="0.7" d="M83.0036 192.831C81.5376 191.295 60.0452 148.273 83.9831 108.834C107.921 69.395 168.007 74.0075 191.945 89.3779C215.883 104.748 227.607 124.718 230.049 145.734C232.491 166.75 216.369 199.514 216.369 199.514L83.0036 192.831Z" fill="#F9F9FA"/>
<rect y="193.333" width="280" height="6.66667" fill="#05391C"/>
<path d="M82.5682 222.392V220.364H92.125V222.392H88.5625V232H86.1307V222.392H82.5682ZM96.8989 232V220.364H104.74V222.392H99.3591V225.165H104.336V227.193H99.3591V229.972H104.762V232H96.8989ZM120.163 224.438H117.674C117.629 224.116 117.536 223.83 117.396 223.58C117.256 223.326 117.076 223.11 116.856 222.932C116.636 222.754 116.382 222.617 116.095 222.523C115.811 222.428 115.502 222.381 115.168 222.381C114.566 222.381 114.042 222.53 113.595 222.83C113.148 223.125 112.801 223.557 112.555 224.125C112.309 224.689 112.186 225.375 112.186 226.182C112.186 227.011 112.309 227.708 112.555 228.273C112.805 228.837 113.153 229.263 113.6 229.551C114.047 229.839 114.564 229.983 115.151 229.983C115.481 229.983 115.786 229.939 116.066 229.852C116.35 229.765 116.602 229.638 116.822 229.472C117.042 229.301 117.223 229.095 117.367 228.852C117.515 228.61 117.617 228.333 117.674 228.023L120.163 228.034C120.098 228.568 119.937 229.083 119.68 229.58C119.426 230.072 119.083 230.513 118.651 230.903C118.223 231.29 117.712 231.597 117.117 231.824C116.526 232.047 115.858 232.159 115.112 232.159C114.074 232.159 113.146 231.924 112.328 231.455C111.513 230.985 110.869 230.305 110.396 229.415C109.926 228.525 109.691 227.447 109.691 226.182C109.691 224.913 109.93 223.833 110.407 222.943C110.884 222.053 111.532 221.375 112.35 220.909C113.168 220.439 114.089 220.205 115.112 220.205C115.786 220.205 116.411 220.299 116.987 220.489C117.566 220.678 118.079 220.955 118.526 221.318C118.973 221.678 119.337 222.119 119.617 222.642C119.901 223.165 120.083 223.763 120.163 224.438ZM125.127 232V220.364H127.587V225.165H132.582V220.364H135.036V232H132.582V227.193H127.587V232H125.127ZM140.264 232V220.364H144.924C145.78 220.364 146.494 220.491 147.066 220.744C147.638 220.998 148.068 221.35 148.355 221.801C148.643 222.248 148.787 222.763 148.787 223.347C148.787 223.801 148.696 224.201 148.514 224.545C148.333 224.886 148.083 225.167 147.764 225.386C147.45 225.602 147.09 225.756 146.685 225.847V225.96C147.128 225.979 147.543 226.104 147.929 226.335C148.319 226.566 148.636 226.89 148.878 227.307C149.121 227.72 149.242 228.212 149.242 228.784C149.242 229.402 149.088 229.953 148.782 230.438C148.479 230.919 148.03 231.299 147.435 231.58C146.84 231.86 146.107 232 145.236 232H140.264ZM142.725 229.989H144.73C145.416 229.989 145.916 229.858 146.23 229.597C146.545 229.331 146.702 228.979 146.702 228.54C146.702 228.218 146.624 227.934 146.469 227.688C146.314 227.441 146.092 227.248 145.804 227.108C145.52 226.968 145.181 226.898 144.787 226.898H142.725V229.989ZM142.725 225.233H144.549C144.886 225.233 145.185 225.174 145.446 225.057C145.711 224.936 145.92 224.765 146.071 224.545C146.227 224.326 146.304 224.062 146.304 223.756C146.304 223.335 146.155 222.996 145.855 222.739C145.56 222.481 145.139 222.352 144.594 222.352H142.725V225.233ZM164.736 226.182C164.736 227.451 164.495 228.53 164.014 229.42C163.537 230.311 162.885 230.991 162.06 231.46C161.238 231.926 160.313 232.159 159.287 232.159C158.253 232.159 157.325 231.924 156.503 231.455C155.681 230.985 155.031 230.305 154.554 229.415C154.077 228.525 153.838 227.447 153.838 226.182C153.838 224.913 154.077 223.833 154.554 222.943C155.031 222.053 155.681 221.375 156.503 220.909C157.325 220.439 158.253 220.205 159.287 220.205C160.313 220.205 161.238 220.439 162.06 220.909C162.885 221.375 163.537 222.053 164.014 222.943C164.495 223.833 164.736 224.913 164.736 226.182ZM162.241 226.182C162.241 225.36 162.118 224.667 161.872 224.102C161.63 223.538 161.287 223.11 160.844 222.818C160.401 222.527 159.882 222.381 159.287 222.381C158.692 222.381 158.173 222.527 157.73 222.818C157.287 223.11 156.942 223.538 156.696 224.102C156.454 224.667 156.332 225.36 156.332 226.182C156.332 227.004 156.454 227.697 156.696 228.261C156.942 228.826 157.287 229.254 157.73 229.545C158.173 229.837 158.692 229.983 159.287 229.983C159.882 229.983 160.401 229.837 160.844 229.545C161.287 229.254 161.63 228.826 161.872 228.261C162.118 227.697 162.241 227.004 162.241 226.182ZM168.784 222.392V220.364H178.341V222.392H174.778V232H172.346V222.392H168.784Z" fill="#05391C"/>
</svg>
