<svg width="272" height="236" viewBox="0 0 272 236" fill="none" xmlns="http://www.w3.org/2000/svg">
<path opacity="0.5" d="M46.519 193.344C46.519 193.344 12.7146 169.272 2.98293 128.299C-6.74877 87.3256 8.10541 37.6406 36.2774 12.5448C64.4493 -12.551 115.151 4.34953 137.687 25.3493L160.223 46.3491C160.223 46.3491 181.736 58.1305 209.905 57.104C238.073 56.0775 263.173 94.4877 269.825 124.713C276.477 154.938 260.606 194.881 260.606 194.881L46.519 193.344Z" fill="white"/>
<path opacity="0.5" d="M31.1548 199.487C31.1548 199.487 7.59209 186.682 1.44646 156.977C-4.69917 127.272 21.933 100.123 24.4959 85.2726C27.0588 70.4218 21.4231 51.9781 44.9825 37.6372C68.5419 23.2963 110.541 28.4188 126.419 24.8327C142.296 21.2466 160.736 -3.34594 192.505 2.2965C224.273 7.93894 254.991 24.8327 256.527 61.7099C258.064 98.587 246.285 99.6168 258.063 119.587C269.841 139.557 274.454 153.391 268.822 173.878C263.189 194.364 251.405 200 251.405 200L31.1548 199.487Z" fill="white"/>
<path opacity="0.5" d="M80.35 192.835C78.8841 191.298 57.3878 148.272 81.3263 108.835C105.265 69.3986 165.352 74.0078 189.291 89.3786C213.229 104.749 224.954 124.719 227.396 145.736C229.838 166.753 213.719 199.487 213.719 199.487L80.35 192.835Z" fill="white"/>
<path d="M209.063 175.726V129.631C209.063 129.631 209.576 117.219 203.045 113.626C196.513 110.033 168.985 111.948 168.985 111.948V175.716L209.063 175.726Z" fill="#00BF63"/>
<path d="M160.384 68.8082C160.384 68.8082 162.062 82.7667 162.689 83.9039L163.33 85.0579L166.533 87.2351C166.533 87.2351 160.384 95.9403 152.83 97.3492C145.275 98.7581 145.916 94.2764 145.916 94.2764L147.07 91.8443L145.533 78.5265C145.533 78.5265 159.234 72.2668 160.384 68.8082Z" fill="#FCC095"/>
<path d="M170.502 88.3991L165.507 86.2219C165.507 86.2219 162.306 91.4719 154.879 94.5447C147.452 97.6175 147.325 95.8262 146.939 94.5447C146.73 93.6556 146.775 92.7256 147.07 91.861L146.52 87.3759L143.551 88.3823L133.239 171.778L159.74 173.059L170.502 88.3991Z" fill="white"/>
<path d="M146.04 87.4598C146.04 87.4598 144.249 91.5994 142.585 101.331C140.921 111.063 139.381 127.453 138.999 138.721C138.616 149.99 138.358 175.726 138.358 175.726H104.939C104.554 175.726 102.256 163.049 102.256 163.049C102.256 163.049 116.852 150.543 117.623 148.497C118.133 147.128 117.878 121.818 120.055 110.167C122.232 98.5166 125.047 96.1684 130.937 93.2666C137.023 90.2643 146.04 87.4598 146.04 87.4598Z" fill="#454546"/>
<path d="M128.63 161.053C128.712 161.053 128.79 161.021 128.848 160.963C128.906 160.905 128.938 160.826 128.938 160.744C128.938 159.829 129.103 146.823 129.274 134.243C129.445 121.663 129.592 108.654 129.592 107.742C129.592 107.66 129.56 107.581 129.502 107.524C129.444 107.466 129.366 107.433 129.284 107.433C129.202 107.433 129.123 107.466 129.066 107.524C129.008 107.581 128.975 107.66 128.975 107.742C128.975 108.658 128.811 121.663 128.64 134.243C128.469 146.823 128.304 159.832 128.304 160.744C128.304 160.786 128.313 160.828 128.329 160.867C128.346 160.905 128.37 160.94 128.401 160.969C128.431 160.998 128.467 161.02 128.506 161.035C128.546 161.049 128.588 161.055 128.63 161.053Z" fill="#7A7BA4"/>
<path d="M195.215 157.927L195.47 175.726H156.557C156.557 175.726 154.879 160.63 155.55 159.208C156.221 157.786 195.215 157.927 195.215 157.927Z" fill="#454546"/>
<g style="mix-blend-mode:multiply">
<g style="mix-blend-mode:multiply">
<path d="M151.89 83.5349C150.307 84.813 148.137 85.8395 146.446 86.4601L145.533 78.5399C145.533 78.5399 155.822 73.8434 159.314 70.3177C158.586 74.303 156.791 79.5832 151.89 83.5349Z" fill="#8182A9"/>
</g>
</g>
<path d="M133.497 42.8268C131.772 46.0006 130.684 49.4808 130.293 53.0718C129.784 58.7075 130.293 73.1759 134.903 79.3216C139.512 85.4672 149.116 83.6825 153.47 79.9623C157.466 76.554 161.411 72.7902 162.434 65.3631C163.457 57.936 160.257 43.8534 151.166 40.908C142.075 37.9627 133.497 42.8268 133.497 42.8268Z" fill="#FCC095"/>
<path d="M121.944 167.678C121.944 167.678 122.397 167.678 123.084 167.658C123.245 167.658 123.42 167.658 123.608 167.658L125.885 167.598L126.432 167.578C127.237 167.578 127.922 167.658 128.566 167.621H128.586C128.72 167.621 128.921 167.621 129.079 167.641C129.147 167.646 129.216 167.646 129.284 167.641C129.582 167.573 129.868 167.46 130.132 167.306C130.652 167.071 137.69 165.498 143.413 165.535C149.136 165.572 154.262 165.951 155.097 165.25C155.933 164.549 156.439 157.353 151.565 156.883L145.56 159.161C145.56 159.161 131.853 157.534 126.828 161.241C121.803 164.948 121.944 167.678 121.944 167.678Z" fill="#FCC095"/>
<path d="M128.596 167.618C128.73 167.618 128.931 167.618 129.089 167.638C129.248 167.39 129.424 167.154 129.616 166.93C131.162 165.354 134.903 164.331 136.258 164.005C136.317 163.991 136.369 163.953 136.401 163.901C136.433 163.849 136.443 163.786 136.429 163.727C136.414 163.667 136.376 163.615 136.323 163.582C136.271 163.55 136.208 163.539 136.147 163.552C134.171 164.029 129.981 165.246 128.794 167.242C128.747 167.299 128.646 167.491 128.596 167.618Z" fill="#FCC095"/>
<path d="M125.885 167.591C126.063 167.591 126.251 167.591 126.429 167.571C128.106 164.488 130.884 163.606 134.299 162.506L134.5 162.439C134.559 162.419 134.608 162.378 134.636 162.323C134.664 162.268 134.669 162.204 134.649 162.145C134.63 162.086 134.589 162.038 134.534 162.01C134.479 161.982 134.415 161.977 134.356 161.996L134.158 162.063C130.545 163.223 127.64 164.153 125.885 167.591Z" fill="#FCC095"/>
<path d="M123.081 167.658H123.608C124.634 165.505 128.026 161.898 132.511 161.06C132.541 161.055 132.571 161.044 132.597 161.028C132.623 161.011 132.646 160.99 132.664 160.964C132.682 160.939 132.694 160.91 132.701 160.88C132.707 160.85 132.708 160.819 132.702 160.788C132.689 160.728 132.654 160.676 132.603 160.641C132.553 160.607 132.491 160.594 132.43 160.604C127.811 161.462 124.081 165.236 123.081 167.658Z" fill="#FCC095"/>
<path d="M159.361 59.0127C159.361 59.0127 156.543 57.6708 154.561 53.8902C153.378 51.6886 152.782 49.2199 152.83 46.7214C152.83 46.7214 149.247 46.1444 143.866 47.7446C138.486 49.3447 132.088 51.5219 126.711 48.4491C121.333 45.3762 121.343 40.445 123.957 38.3852C126.895 36.0907 132.729 37.4862 132.729 37.4862C132.729 37.4862 130.488 35.3091 131.703 34.031C132.917 32.7529 137.338 34.4134 137.338 34.4134C137.338 34.4134 142.706 30.1262 152.894 30.6361C163.081 31.146 167.939 38.2544 168.516 46.1948C169.093 54.1351 166.211 62.0721 166.211 62.0721L159.361 59.0127Z" fill="#161616"/>
<path d="M138.71 60.9416C139.287 62.364 139.27 64.0145 139.418 65.524C139.529 66.6982 139.753 68.0668 138.67 68.8585C138.157 69.2376 135.725 70.2574 136.976 71.086C137.452 71.4013 138.251 71.3141 138.794 71.2906C139.166 71.2906 139.545 71.2571 139.918 71.2302C140.29 71.2034 140.713 71.0792 141.115 71.0759C141.165 71.0777 141.214 71.0955 141.253 71.1267C141.292 71.1579 141.32 71.2007 141.333 71.2491C141.346 71.2974 141.344 71.3487 141.326 71.3954C141.308 71.4421 141.275 71.4817 141.233 71.5086C140.585 71.9145 139.636 72.0387 138.885 72.0689C138.217 72.1411 137.543 72.0249 136.939 71.7334C136.523 71.5254 136.117 71.2336 136.053 70.727C135.976 70.1668 136.389 69.667 136.818 69.355C137.301 68.996 137.895 68.8283 138.385 68.4794C139.056 67.993 139.005 67.1745 138.958 66.4197C138.844 64.5981 138.425 62.8102 138.261 60.9987C138.237 60.7203 138.62 60.7202 138.71 60.9383V60.9416Z" fill="#F38757"/>
<path d="M133.474 65.1953C133.665 66.2754 134.45 67.0369 135.228 66.8994C136.006 66.7619 136.483 65.7756 136.291 64.6954C136.1 63.6152 135.315 62.8537 134.537 62.9913C133.759 63.1288 133.292 64.1151 133.474 65.1953Z" fill="#161616"/>
<path d="M143.272 64.3399C143.447 65.5039 144.279 66.3526 145.104 66.2218C145.929 66.091 146.483 65.051 146.312 63.8736C146.141 62.6961 145.305 61.8608 144.477 61.9916C143.648 62.1225 143.098 63.1758 143.272 64.3399Z" fill="#161616"/>
<path d="M135.755 60.7471C135.158 60.8477 134.554 60.7471 133.95 60.7873C133.806 60.7873 133.661 60.8175 133.517 60.831C133.373 60.8444 133.708 60.8008 133.564 60.831H133.474C133.397 60.831 133.323 60.8578 133.249 60.8779C133.118 60.9081 132.994 60.9551 132.866 60.9853C132.747 61.0157 132.624 61.0315 132.501 61.0322L132.303 61.0054L132.427 61.0289C132.345 61.0272 132.263 61.0182 132.182 61.002C132.016 60.9528 131.875 60.841 131.79 60.6903C131.704 60.5396 131.68 60.3616 131.723 60.1936C131.75 60.099 131.794 60.0103 131.853 59.9319L131.934 59.8312L131.86 59.9151L131.941 59.8111C131.973 59.7536 132.021 59.706 132.078 59.6736C132.125 59.6367 132.172 59.5965 132.222 59.5629C132.392 59.457 132.58 59.3821 132.776 59.3415C133.135 59.2484 133.505 59.2 133.876 59.1973C134.241 59.2012 134.605 59.2303 134.966 59.2845C135.299 59.3218 135.619 59.4367 135.899 59.6199C136 59.6822 136.081 59.7723 136.132 59.8794C136.183 59.9865 136.203 60.106 136.187 60.2238C136.174 60.3413 136.126 60.4522 136.049 60.5419C135.971 60.6317 135.869 60.6961 135.755 60.7269V60.7471Z" fill="#161616"/>
<path d="M142.585 59.0329C142.665 58.9859 142.749 58.9423 142.836 58.902C142.91 58.8685 143.108 58.7645 142.957 58.8484C143.011 58.8182 143.065 58.788 143.122 58.7611C143.369 58.6416 143.629 58.5483 143.896 58.4827C144.484 58.3376 145.092 58.2956 145.695 58.3586C146.32 58.4093 146.927 58.5995 147.469 58.9154C147.55 58.959 147.625 59.012 147.694 59.0731L147.821 59.2442L147.788 59.1872C147.871 59.2459 147.939 59.3238 147.986 59.4143C148.032 59.5048 148.056 59.6053 148.056 59.7071C148.056 59.8022 148.029 59.8953 147.98 59.9767C147.931 60.0582 147.861 60.1249 147.778 60.1701C147.68 60.2132 147.574 60.2355 147.467 60.2355C147.361 60.2355 147.255 60.2132 147.157 60.1701H147.493C147.334 60.2053 147.169 60.2053 147.009 60.1701C147.009 60.1701 146.838 60.1265 146.949 60.1499C147.06 60.1734 146.775 60.1298 146.745 60.1231C146.714 60.1164 146.516 60.0996 146.718 60.1231H146.607L146.315 60.0929C145.892 60.0594 145.473 60.0392 145.05 60.0258C144.628 60.0124 144.255 60.0258 143.863 60.0258L143.36 60.0459C143.262 60.0459 143.306 60.0459 143.36 60.0459L143.252 60.0728C143.185 60.0929 143.115 60.113 143.048 60.1399C142.91 60.179 142.763 60.1666 142.634 60.1048C142.505 60.043 142.402 59.9362 142.347 59.8044C142.291 59.6724 142.285 59.5249 142.33 59.3889C142.374 59.2528 142.466 59.1372 142.588 59.0631L142.585 59.0329Z" fill="#161616"/>
<path d="M139.545 76.8324C138.91 75.6572 137.889 74.7376 136.654 74.2292C137.727 74.1185 142.793 73.6489 144.071 74.3768C145.5 75.1886 143.806 78.4526 140.844 78.617C140.555 78.6317 140.266 78.6148 139.982 78.5667C139.959 77.9645 139.81 77.3738 139.545 76.8324Z" fill="#F38757"/>
<path d="M162.947 69.9622C162.947 69.9622 162.434 71.9448 159.489 74.2494C156.543 76.554 152.276 78.2413 152.276 78.2413L151.941 76.7485C151.941 76.7485 156.359 74.8263 158.408 72.723C160.458 70.6197 160.713 69.459 160.713 69.459L162.947 69.9622Z" fill="#D1D0DE"/>
<path d="M151.407 75.6415C150.513 75.5841 149.628 75.8545 148.918 76.4021C148.208 76.9497 147.721 77.737 147.55 78.617C147.385 79.8314 148.526 81.19 151.189 79.9958C154.51 78.513 153.793 75.7522 151.407 75.6415Z" fill="#3157A5"/>
<path d="M161.089 55.2992C161.089 55.2992 160.066 47.9392 155.134 42.9442C145.725 33.4037 137.72 33.9807 137.72 33.9807C137.72 33.9807 137.784 32.6388 140.793 31.6123C143.621 30.6495 144.893 31.1628 144.893 31.1628C144.893 31.1628 152.638 31.8035 159.17 39.036C165.701 46.2686 166.402 55.4736 166.402 55.4736L161.089 55.2992Z" fill="#796B6E"/>
<path d="M161.806 54.4035C167.972 53.3569 171.411 58.1808 171.666 63.045C171.921 67.9092 168.388 71.6126 163.665 71.2403C153.024 70.4083 154.238 55.685 161.806 54.4035Z" fill="#554C4F"/>
<path d="M164.863 66.5136C165.642 66.5256 166.409 66.3205 167.079 65.9212C167.748 65.5219 168.294 64.9441 168.653 64.2526C169.065 63.5058 169.266 62.661 169.234 61.8088C169.202 60.9566 168.939 60.1291 168.472 59.4152C168.455 59.3901 168.433 59.3687 168.408 59.352C168.382 59.3354 168.354 59.324 168.324 59.3183C168.294 59.3127 168.263 59.3131 168.233 59.3194C168.203 59.3256 168.175 59.3377 168.15 59.3549C168.125 59.3721 168.103 59.394 168.087 59.4195C168.07 59.445 168.059 59.4735 168.053 59.5034C168.048 59.5333 168.048 59.564 168.054 59.5938C168.06 59.6235 168.073 59.6518 168.09 59.6769C168.512 60.3202 168.749 61.0666 168.777 61.8354C168.805 62.6042 168.622 63.3658 168.247 64.0379C167.918 64.6739 167.413 65.2019 166.792 65.5588C166.171 65.9157 165.461 66.0864 164.745 66.0506C164.08 66.0458 163.427 65.8778 162.842 65.5614C162.257 65.245 161.759 64.7898 161.391 64.2358C160.96 63.5685 160.69 62.8103 160.602 62.021C160.514 61.2317 160.611 60.4327 160.884 59.687C161.438 58.2311 162.954 57.2348 164.336 57.4159C164.397 57.4239 164.459 57.4074 164.507 57.37C164.556 57.3325 164.588 57.2773 164.596 57.2163C164.604 57.1554 164.587 57.0937 164.55 57.045C164.513 56.9962 164.457 56.9643 164.396 56.9563C162.783 56.7416 161.085 57.8453 160.448 59.5226C160.151 60.3381 160.047 61.2112 160.143 62.0737C160.24 62.9361 160.535 63.7645 161.005 64.4941C161.414 65.1101 161.969 65.616 162.62 65.967C163.271 66.318 163.999 66.5034 164.738 66.5069L164.863 66.5136Z" fill="#F9F9FA"/>
<path d="M169.348 86.6077C169.348 86.6077 188.043 91.2169 194.574 98.644C201.106 106.071 204.179 142.69 204.303 149.476C204.427 156.263 199.693 159.081 196.876 161.003C194.058 162.925 181.639 166.37 171.649 166.89C161.659 167.41 152.192 166.89 152.192 166.89C152.192 166.89 152.226 164.713 150.689 161.523C149.264 158.554 147.456 157.937 147.456 157.937L156.037 154.864C156.037 154.864 157.536 127.946 159.878 114.914C162.561 99.9221 169.348 86.6077 169.348 86.6077Z" fill="#454546"/>
<path d="M138.361 150.553C138.404 150.554 138.446 150.546 138.485 150.53C138.523 150.513 138.557 150.49 138.585 150.46C138.613 150.431 138.635 150.396 138.65 150.358C138.664 150.32 138.671 150.279 138.67 150.239C138.669 150.198 138.66 150.158 138.643 150.12C136.892 146.169 135.077 138.409 134.057 132.965L133.974 132.526C133.662 130.925 133.279 128.933 134.044 127.561C134.436 126.86 135.322 125.337 136.174 123.871C137.056 122.354 137.892 120.919 138.123 120.493C138.573 119.654 137.154 117.423 135.104 114.36C134.55 113.532 134.071 112.817 133.789 112.348C133.058 111.08 133.544 109.919 134.108 108.574L134.302 108.111C134.812 106.853 135.396 105.595 135.956 104.377C136.18 103.881 136.403 103.382 136.627 102.881C136.929 102.21 137.227 101.539 137.536 100.868C139.344 96.8426 141.226 92.6628 143.611 88.6339C143.632 88.5992 143.646 88.5607 143.652 88.5205C143.658 88.4803 143.656 88.4394 143.646 88.4C143.636 88.3607 143.619 88.3237 143.594 88.2913C143.57 88.2588 143.539 88.2317 143.504 88.2112C143.433 88.1693 143.349 88.1571 143.269 88.1772C143.189 88.1973 143.12 88.2481 143.078 88.3186C140.666 92.3776 138.787 96.5642 136.969 100.617L136.063 102.629C135.839 103.129 135.607 103.636 135.392 104.122C134.826 105.343 134.242 106.611 133.715 107.879L133.524 108.335C132.95 109.708 132.353 111.127 133.242 112.66C133.531 113.159 134.014 113.884 134.584 114.719C135.654 116.316 137.885 119.644 137.576 120.214C137.352 120.633 136.52 122.062 135.637 123.569C134.755 125.075 133.9 126.561 133.504 127.259C132.625 128.829 133.034 130.949 133.363 132.626L133.447 133.062C133.819 135.045 135.795 145.196 138.08 150.352C138.101 150.41 138.139 150.46 138.189 150.496C138.239 150.532 138.3 150.552 138.361 150.553Z" fill="#7A7BA4"/>
<path d="M156.607 151.643C156.648 151.644 156.689 151.636 156.727 151.62C156.765 151.605 156.799 151.582 156.828 151.553C158.284 150.087 165.299 137.936 165.822 135.652C166.107 134.401 165.389 131.227 164.695 128.158C164.158 125.783 163.601 123.324 163.759 122.66C163.997 121.653 165.792 120.197 167.526 118.782C169.623 117.067 171.79 115.3 172.223 113.703C172.699 111.891 172.29 100.543 172.021 93.0318C171.924 90.3313 171.847 88.2011 171.847 87.4396C171.847 87.3578 171.814 87.2793 171.756 87.2214C171.699 87.1635 171.62 87.131 171.538 87.131C171.456 87.131 171.378 87.1635 171.32 87.2214C171.262 87.2793 171.23 87.3578 171.23 87.4396C171.23 88.2112 171.307 90.3481 171.404 93.0552C171.656 100.073 172.075 111.821 171.625 113.545C171.256 114.944 169.073 116.729 167.147 118.302C165.221 119.875 163.457 121.321 163.172 122.515C162.981 123.32 163.507 125.625 164.104 128.295C164.752 131.157 165.486 134.397 165.232 135.514C164.718 137.752 157.831 149.674 156.402 151.117C156.359 151.16 156.33 151.215 156.318 151.275C156.306 151.334 156.312 151.396 156.336 151.453C156.359 151.509 156.398 151.557 156.449 151.591C156.5 151.625 156.559 151.643 156.62 151.643H156.607Z" fill="#7A7BA4"/>
<path d="M181.77 146.33H181.813C181.892 146.318 181.963 146.277 182.011 146.214C182.06 146.152 182.083 146.073 182.075 145.994C181.847 144.384 178.298 112.324 178.133 109.869C178.131 109.827 178.121 109.787 178.103 109.75C178.084 109.712 178.059 109.679 178.028 109.652C177.996 109.625 177.96 109.605 177.92 109.593C177.881 109.58 177.839 109.576 177.798 109.58C177.757 109.583 177.717 109.594 177.68 109.613C177.644 109.631 177.611 109.657 177.584 109.688C177.557 109.719 177.537 109.755 177.524 109.794C177.511 109.833 177.506 109.874 177.509 109.915C177.674 112.374 181.23 144.468 181.455 146.085C181.47 146.156 181.51 146.22 181.568 146.264C181.625 146.309 181.697 146.332 181.77 146.33Z" fill="#7A7BA4"/>
<path d="M156.288 155.035C156.328 155.034 156.368 155.028 156.406 155.015C157.191 154.679 160.67 153.522 165.071 152.036C173.957 149.04 186.128 144.938 188.442 143.733C188.478 143.715 188.511 143.689 188.537 143.658C188.563 143.627 188.583 143.592 188.595 143.553C188.607 143.514 188.612 143.473 188.608 143.433C188.604 143.392 188.592 143.353 188.573 143.317C188.555 143.281 188.53 143.248 188.499 143.222C188.468 143.195 188.432 143.175 188.393 143.163C188.354 143.151 188.313 143.147 188.273 143.151C188.232 143.155 188.193 143.167 188.157 143.186C185.886 144.364 173.243 148.628 164.873 151.449C160.462 152.938 156.976 154.112 156.171 154.441C156.105 154.468 156.051 154.518 156.017 154.581C155.983 154.644 155.972 154.716 155.986 154.786C156 154.856 156.038 154.919 156.093 154.965C156.148 155.01 156.217 155.035 156.288 155.035Z" fill="#7A7BA4"/>
<path d="M160.562 167.802C168.382 167.802 183.544 166.39 195.061 162.318C195.138 162.291 195.202 162.234 195.237 162.16C195.273 162.086 195.277 162.001 195.25 161.924C195.223 161.846 195.166 161.783 195.092 161.747C195.019 161.712 194.933 161.707 194.856 161.734C180.304 166.88 159.951 167.772 156.164 166.91C156.084 166.892 156 166.906 155.93 166.95C155.861 166.994 155.812 167.063 155.793 167.143C155.775 167.223 155.789 167.307 155.833 167.377C155.877 167.446 155.946 167.496 156.027 167.514C156.848 167.698 158.432 167.802 160.562 167.802Z" fill="#7A7BA4"/>
<path d="M22.7986 122.713L47.2771 171.201L118.643 171.714L96.6166 122.032L22.7986 122.713Z" fill="#F0EFF4"/>
<path d="M166.007 171.412V167.531H119.794L98.5387 120.922H24.657L22.7986 122.717H94.9762L117.063 171.358C117.063 171.358 166.007 171.285 166.007 171.412Z" fill="#CCCBDB"/>
<path d="M59.8569 149.473C60.6653 151.892 65.0397 153.757 69.6321 153.643C74.2246 153.529 77.2907 151.476 76.4856 149.057C75.6805 146.638 71.3027 144.77 66.7103 144.884C62.1178 144.998 59.0518 147.054 59.8569 149.473Z" fill="#CCCBDB"/>
<path d="M117.063 171.684C117.107 171.684 117.151 171.673 117.19 171.654C117.228 171.637 117.261 171.614 117.29 171.584C117.318 171.555 117.339 171.52 117.354 171.482C117.368 171.443 117.375 171.403 117.373 171.362C117.372 171.321 117.362 171.281 117.345 171.244L95.1741 122.405H22.7986C22.7219 122.413 22.6508 122.449 22.5991 122.506C22.5475 122.563 22.5189 122.638 22.5189 122.715C22.5189 122.792 22.5475 122.867 22.5991 122.924C22.6508 122.981 22.7219 123.017 22.7986 123.025H94.7749L116.781 171.503C116.806 171.557 116.845 171.603 116.895 171.635C116.945 171.667 117.004 171.684 117.063 171.684Z" fill="white"/>
<path d="M169.22 193.908H254.115V175.085H169.22V193.908Z" fill="#00914B"/>
<path d="M16.9648 193.908L169.707 193.908V175.085L16.9648 175.085V193.908Z" fill="#00BF63"/>
<g style="mix-blend-mode:multiply">
<path d="M169.22 175.085H169.707H254.115V178.544H169.707H169.22H16.9648V175.085H169.22Z" fill="#ACACC6"/>
</g>
<path d="M165.507 175.984H258.211V171.375H165.507V175.984Z" fill="#676C99"/>
<path d="M13.2514 175.984L165.993 175.984V171.375L13.2514 171.375V175.984Z" fill="#8D8DB1"/>
<rect y="193.333" width="272" height="6.66667" fill="#05391C"/>
<path d="M59.4504 232V220.364H64.0413C64.9239 220.364 65.6758 220.532 66.297 220.869C66.9182 221.203 67.3917 221.667 67.7175 222.261C68.047 222.852 68.2118 223.534 68.2118 224.307C68.2118 225.08 68.0451 225.761 67.7118 226.352C67.3785 226.943 66.8955 227.403 66.2629 227.733C65.6341 228.062 64.8728 228.227 63.9788 228.227H61.0527V226.256H63.5811C64.0546 226.256 64.4447 226.174 64.7516 226.011C65.0622 225.845 65.2932 225.616 65.4447 225.324C65.6 225.028 65.6777 224.689 65.6777 224.307C65.6777 223.92 65.6 223.583 65.4447 223.295C65.2932 223.004 65.0622 222.778 64.7516 222.619C64.441 222.456 64.047 222.375 63.5697 222.375H61.9107V232H59.4504ZM73.0098 232V220.364H75.47V229.972H80.4587V232H73.0098ZM87.5905 232H84.9541L88.9712 220.364H92.1416L96.153 232H93.5166L90.6018 223.023H90.5109L87.5905 232ZM87.4257 227.426H93.653V229.347H87.4257V227.426ZM110.487 220.364V232H108.362L103.299 224.676H103.214V232H100.754V220.364H102.913L107.935 227.682H108.038V220.364H110.487ZM128.935 223.71C128.889 223.252 128.694 222.896 128.35 222.642C128.005 222.388 127.537 222.261 126.946 222.261C126.545 222.261 126.206 222.318 125.929 222.432C125.653 222.542 125.44 222.695 125.293 222.892C125.149 223.089 125.077 223.312 125.077 223.562C125.069 223.771 125.113 223.953 125.208 224.108C125.306 224.263 125.44 224.398 125.611 224.511C125.781 224.621 125.978 224.718 126.202 224.801C126.425 224.881 126.664 224.949 126.918 225.006L127.963 225.256C128.471 225.369 128.937 225.521 129.361 225.71C129.785 225.9 130.153 226.133 130.463 226.409C130.774 226.686 131.014 227.011 131.185 227.386C131.359 227.761 131.448 228.191 131.452 228.676C131.448 229.388 131.266 230.006 130.906 230.528C130.55 231.047 130.035 231.451 129.361 231.739C128.69 232.023 127.882 232.165 126.935 232.165C125.995 232.165 125.177 232.021 124.48 231.733C123.787 231.445 123.245 231.019 122.855 230.455C122.469 229.886 122.266 229.184 122.247 228.347H124.628C124.654 228.737 124.766 229.062 124.963 229.324C125.164 229.581 125.431 229.777 125.764 229.909C126.101 230.038 126.482 230.102 126.906 230.102C127.323 230.102 127.685 230.042 127.992 229.92C128.302 229.799 128.543 229.631 128.713 229.415C128.884 229.199 128.969 228.951 128.969 228.67C128.969 228.409 128.891 228.189 128.736 228.011C128.584 227.833 128.361 227.682 128.065 227.557C127.774 227.432 127.416 227.318 126.992 227.216L125.725 226.898C124.744 226.659 123.969 226.286 123.401 225.778C122.833 225.271 122.55 224.587 122.554 223.727C122.55 223.023 122.738 222.407 123.117 221.881C123.499 221.354 124.024 220.943 124.69 220.648C125.357 220.352 126.115 220.205 126.963 220.205C127.827 220.205 128.581 220.352 129.225 220.648C129.872 220.943 130.376 221.354 130.736 221.881C131.096 222.407 131.281 223.017 131.293 223.71H128.935ZM136.307 232V220.364H144.148V222.392H138.767V225.165H143.744V227.193H138.767V229.972H144.17V232H136.307ZM149.304 232V220.364H153.894C154.773 220.364 155.523 220.521 156.144 220.835C156.769 221.146 157.245 221.587 157.571 222.159C157.9 222.727 158.065 223.396 158.065 224.165C158.065 224.937 157.898 225.602 157.565 226.159C157.232 226.712 156.749 227.136 156.116 227.432C155.487 227.727 154.726 227.875 153.832 227.875H150.758V225.898H153.434C153.904 225.898 154.294 225.833 154.605 225.705C154.915 225.576 155.146 225.383 155.298 225.125C155.453 224.867 155.531 224.547 155.531 224.165C155.531 223.778 155.453 223.453 155.298 223.188C155.146 222.922 154.913 222.722 154.599 222.585C154.288 222.445 153.896 222.375 153.423 222.375H151.764V232H149.304ZM155.588 226.705L158.48 232H155.764L152.934 226.705H155.588ZM164.793 220.364L167.606 229.205H167.714L170.532 220.364H173.259L169.248 232H166.077L162.06 220.364H164.793ZM180.32 220.364V232H177.86V220.364H180.32ZM195.811 224.438H193.323C193.277 224.116 193.184 223.83 193.044 223.58C192.904 223.326 192.724 223.11 192.504 222.932C192.285 222.754 192.031 222.617 191.743 222.523C191.459 222.428 191.15 222.381 190.817 222.381C190.215 222.381 189.69 222.53 189.243 222.83C188.796 223.125 188.449 223.557 188.203 224.125C187.957 224.689 187.834 225.375 187.834 226.182C187.834 227.011 187.957 227.708 188.203 228.273C188.453 228.837 188.802 229.263 189.249 229.551C189.696 229.839 190.213 229.983 190.8 229.983C191.129 229.983 191.434 229.939 191.715 229.852C191.999 229.765 192.251 229.638 192.47 229.472C192.69 229.301 192.872 229.095 193.016 228.852C193.163 228.61 193.266 228.333 193.323 228.023L195.811 228.034C195.747 228.568 195.586 229.083 195.328 229.58C195.074 230.072 194.732 230.513 194.3 230.903C193.872 231.29 193.36 231.597 192.766 231.824C192.175 232.047 191.506 232.159 190.76 232.159C189.722 232.159 188.794 231.924 187.976 231.455C187.162 230.985 186.518 230.305 186.044 229.415C185.574 228.525 185.34 227.447 185.34 226.182C185.34 224.913 185.578 223.833 186.056 222.943C186.533 222.053 187.181 221.375 187.999 220.909C188.817 220.439 189.737 220.205 190.76 220.205C191.434 220.205 192.059 220.299 192.635 220.489C193.215 220.678 193.728 220.955 194.175 221.318C194.622 221.678 194.985 222.119 195.266 222.642C195.55 223.165 195.732 223.763 195.811 224.438ZM200.775 232V220.364H208.616V222.392H203.236V225.165H208.213V227.193H203.236V229.972H208.639V232H200.775Z" fill="#05391C"/>
</svg>
