<svg width="70" height="70" viewBox="0 0 70 70" fill="none" xmlns="http://www.w3.org/2000/svg">
<g clip-path="url(#clip0_2074_1117)">
<path fill-rule="evenodd" clip-rule="evenodd" d="M34.9969 0C15.2849 0 0 14.445 0 33.947C0 44.1486 4.18213 52.9679 10.989 59.0573C11.2735 59.3079 11.5033 59.6143 11.6644 59.9575C11.8254 60.3006 11.9142 60.6732 11.9252 61.0522L12.1177 67.2816C12.1317 67.74 12.2581 68.1879 12.4857 68.5859C12.7134 68.984 13.0353 69.3201 13.4233 69.5646C13.8112 69.8091 14.2533 69.9546 14.7106 69.9882C15.1679 70.0219 15.6265 69.9427 16.0461 69.7576L22.993 66.6954C23.5826 66.4357 24.2436 66.3863 24.8653 66.5554C28.1671 67.4554 31.5747 67.9086 34.9969 67.9028C54.709 67.9028 69.9939 53.4578 69.9939 33.9558C69.9939 14.4537 54.709 0 34.9969 0Z" fill="#006FD0"/>
<path d="M13.9113 42.6377C13.08 42.4647 12.2708 42.1985 11.4991 41.8441C10.7753 41.5136 10.0972 41.091 9.48157 40.5869L11.1116 37.6725C11.8553 38.2781 12.7028 38.7435 13.613 39.0461C14.5511 39.3671 15.5358 39.5306 16.5273 39.5299C17.6787 39.5299 18.5729 39.3343 19.2098 38.9429C19.8468 38.5515 20.1647 37.9991 20.1635 37.2858V37.2718C20.1635 36.7742 20.0218 36.3791 19.7383 36.0862C19.4318 35.7808 19.0523 35.5588 18.6359 35.4414C18.0615 35.2784 17.4769 35.1536 16.886 35.0678C16.8633 35.0597 16.8393 35.0553 16.8152 35.0547C16.791 35.0546 16.7671 35.0505 16.7443 35.0425L16.46 35.0031C15.2053 34.8054 14.1653 34.5583 13.34 34.262C12.5033 33.9567 11.7737 33.4143 11.2402 32.7012C10.658 31.9569 10.367 30.9017 10.367 29.5357V29.5226C10.367 28.3105 10.6376 27.2746 11.1789 26.4148C11.7202 25.5551 12.5076 24.8997 13.5412 24.4489C14.5736 23.9974 15.8204 23.7717 17.2815 23.7717C17.9727 23.7741 18.6615 23.8519 19.3358 24.0035C20.0412 24.1597 20.7298 24.3838 21.3919 24.6728C22.0605 24.9635 22.6998 25.3174 23.301 25.7297L21.8049 28.722C21.106 28.2348 20.3447 27.844 19.5414 27.5601C18.8159 27.296 18.0509 27.1564 17.2789 27.1471C16.1957 27.1471 15.3576 27.3256 14.7644 27.6826C14.1712 28.0396 13.8746 28.5412 13.8746 29.1875V29.2006C13.8746 29.7419 14.0291 30.1694 14.3383 30.4832C14.6586 30.8039 15.0528 31.0409 15.4862 31.1735C16.1189 31.363 16.7615 31.5181 17.411 31.6381C17.4451 31.646 17.4801 31.653 17.5142 31.6574C17.549 31.6617 17.5835 31.6681 17.6175 31.6766C17.6673 31.6849 17.7166 31.6957 17.7653 31.709C17.8144 31.722 17.864 31.7325 17.9141 31.7405C19.1005 31.9738 20.0921 32.2555 20.8888 32.5857C21.6898 32.9209 22.3802 33.4748 22.881 34.1842C23.4147 34.9203 23.6813 35.9241 23.6807 37.1956V37.221C23.6807 38.4162 23.4013 39.4392 22.8425 40.2903C22.2837 41.1413 21.4692 41.7905 20.3989 42.2378C19.3285 42.6846 18.0412 42.908 16.537 42.908C15.6547 42.9095 14.7747 42.8189 13.9113 42.6377Z" fill="white"/>
<path d="M38.4398 23.965H43.0953V42.7147H39.8843V28.1559L40.0129 28.981L36.4257 40.6262H33.3075L29.7203 29.2391L29.8489 28.1559V42.7147H26.6379V23.965H31.296L34.8684 36.6025L38.4398 23.965Z" fill="white"/>
<path d="M50.491 42.6376C49.6599 42.4648 48.851 42.1986 48.0797 41.8441C47.3556 41.5136 46.6772 41.091 46.0613 40.5868L47.6991 37.6725C48.4429 38.278 49.2904 38.7435 50.2006 39.0461C51.1387 39.3671 52.1234 39.5306 53.1149 39.5299C54.2669 39.5299 55.1611 39.3342 55.7975 38.9428C56.4338 38.5515 56.752 37.9991 56.752 37.2857V37.2717C56.752 36.7742 56.61 36.379 56.3259 36.0862C56.0178 35.7796 55.6361 35.5573 55.2174 35.4405C54.6415 35.2773 54.0555 35.1525 53.4632 35.0669C53.4404 35.0587 53.4165 35.0543 53.3923 35.0538C53.3681 35.0537 53.3442 35.0496 53.3214 35.0416L53.0379 35.0022C51.7821 34.8045 50.7418 34.5574 49.9171 34.2611C49.0807 33.9554 48.3511 33.4131 47.8173 32.7003C47.2416 31.9572 46.9537 30.902 46.9537 29.5348V29.5217C46.9537 28.3096 47.2246 27.2737 47.7665 26.414C48.3084 25.5542 49.0958 24.8989 50.1288 24.448C51.1601 23.9965 52.4065 23.7708 53.8682 23.7708C54.5603 23.7731 55.25 23.8508 55.9252 24.0027C56.6291 24.1594 57.3162 24.3839 57.9769 24.6729C58.6451 24.9637 59.2841 25.3176 59.8851 25.7298L58.389 28.722C57.6903 28.235 56.9293 27.8442 56.1264 27.5601C55.4006 27.296 54.6353 27.1564 53.863 27.1471C52.7798 27.1471 51.9417 27.3256 51.3485 27.6826C50.7553 28.0396 50.4587 28.5412 50.4587 29.1875V29.2006C50.4587 29.7419 50.6135 30.1694 50.9232 30.4832C51.2431 30.804 51.637 31.0411 52.0703 31.1735C52.703 31.363 53.3456 31.518 53.9951 31.6381C54.0301 31.646 54.0642 31.653 54.0983 31.6574C54.1331 31.6617 54.1676 31.6681 54.2016 31.6766C54.2517 31.6849 54.3013 31.6957 54.3503 31.709C54.399 31.722 54.4484 31.7325 54.4982 31.7405C55.6846 31.9738 56.6762 32.2555 57.4729 32.5857C58.2736 32.9215 58.9638 33.4753 59.4651 34.1841C59.9983 34.9202 60.2648 35.9241 60.2648 37.1956V37.221C60.2648 38.4161 59.9851 39.4392 59.4258 40.2902C58.8664 41.1412 58.0518 41.7904 56.9821 42.2378C55.9118 42.6846 54.6245 42.908 53.1202 42.908C52.2368 42.9097 51.3556 42.819 50.491 42.6376Z" fill="white"/>
</g>
<defs>
<clipPath id="clip0_2074_1117">
<rect width="69.9939" height="70" fill="white"/>
</clipPath>
</defs>
</svg>
