<svg width="228" height="151" viewBox="0 0 228 151" fill="none" xmlns="http://www.w3.org/2000/svg">
<path d="M6.5 0.726497L0.726497 6.5L6.5 12.2735L12.2735 6.5L6.5 0.726497ZM228 145L218 139.227V150.773L228 145ZM5.5 6.5V8.475H7.5V6.5H5.5ZM5.5 12.425V16.375H7.5V12.425H5.5ZM5.5 20.325V24.275H7.5V20.325H5.5ZM5.5 28.225V32.175H7.5V28.225H5.5ZM5.5 36.125V40.075H7.5V36.125H5.5ZM5.5 44.025V47.975H7.5V44.025H5.5ZM5.5 51.925V55.875H7.5V51.925H5.5ZM5.5 59.825V63.775H7.5V59.825H5.5ZM5.5 67.725V71.675H7.5V67.725H5.5ZM5.5 75.625V79.575H7.5V75.625H5.5ZM5.5 83.525V87.475H7.5V83.525H5.5ZM5.5 91.425V95.375H7.5V91.425H5.5ZM5.5 99.325V103.275H7.5V99.325H5.5ZM5.5 107.225V111.175H7.5V107.225H5.5ZM5.5 115.125V119.075H7.5V115.125H5.5ZM5.5 123.025V125H7.5V123.025H5.5ZM5.5 125C5.5 125.694 5.53371 126.381 5.59963 127.058L7.59022 126.864C7.53056 126.251 7.5 125.629 7.5 125H5.5ZM6.39923 131.098C6.80177 132.426 7.33235 133.699 7.97651 134.902L9.73954 133.957C9.1569 132.87 8.6772 131.719 8.31331 130.518L6.39923 131.098ZM10.2665 138.323C11.1395 139.385 12.1147 140.361 13.1771 141.233L14.4468 139.688C13.485 138.898 12.6021 138.015 11.8119 137.053L10.2665 138.323ZM16.5982 143.523C17.8009 144.168 19.0737 144.698 20.4024 145.101L20.9823 143.187C19.7812 142.823 18.6303 142.343 17.5425 141.76L16.5982 143.523ZM24.442 145.9C25.1194 145.966 25.8059 146 26.5 146V144C25.8707 144 25.2488 143.969 24.6358 143.91L24.442 145.9ZM26.5 146H28.5341V144H26.5V146ZM32.6023 146H36.6705V144H32.6023V146ZM40.7386 146H44.8068V144H40.7386V146ZM48.875 146H52.9432V144H48.875V146ZM57.0114 146H61.0795V144H57.0114V146ZM65.1477 146H69.2159V144H65.1477V146ZM73.2841 146H77.3523V144H73.2841V146ZM81.4205 146H85.4886V144H81.4205V146ZM89.5568 146H93.625V144H89.5568V146ZM97.6932 146H101.761V144H97.6932V146ZM105.83 146H109.898V144H105.83V146ZM113.966 146H116V144H113.966V146ZM116 146H118V144H116V146ZM122 146H126V144H122V146ZM130 146H134V144H130V146ZM138 146H142V144H138V146ZM146 146H150V144H146V146ZM154 146H158V144H154V146ZM162 146H166V144H162V146ZM170 146H174V144H170V146ZM178 146H182V144H178V146ZM186 146H190V144H186V146ZM194 146H198V144H194V146ZM202 146H206V144H202V146ZM210 146H214V144H210V146ZM218 146H222V144H218V146ZM6.5 0.726497L0.726497 6.5L6.5 12.2735L12.2735 6.5L6.5 0.726497ZM228 145L218 139.227V150.773L228 145ZM5.5 6.5V8.475H7.5V6.5H5.5ZM5.5 12.425V16.375H7.5V12.425H5.5ZM5.5 20.325V24.275H7.5V20.325H5.5ZM5.5 28.225V32.175H7.5V28.225H5.5ZM5.5 36.125V40.075H7.5V36.125H5.5ZM5.5 44.025V47.975H7.5V44.025H5.5ZM5.5 51.925V55.875H7.5V51.925H5.5ZM5.5 59.825V63.775H7.5V59.825H5.5ZM5.5 67.725V71.675H7.5V67.725H5.5ZM5.5 75.625V79.575H7.5V75.625H5.5ZM5.5 83.525V87.475H7.5V83.525H5.5ZM5.5 91.425V95.375H7.5V91.425H5.5ZM5.5 99.325V103.275H7.5V99.325H5.5ZM5.5 107.225V111.175H7.5V107.225H5.5ZM5.5 115.125V119.075H7.5V115.125H5.5ZM5.5 123.025V125H7.5V123.025H5.5ZM5.5 125C5.5 125.694 5.53371 126.381 5.59963 127.058L7.59022 126.864C7.53056 126.251 7.5 125.629 7.5 125H5.5ZM6.39923 131.098C6.80177 132.426 7.33235 133.699 7.97651 134.902L9.73954 133.957C9.1569 132.87 8.6772 131.719 8.31331 130.518L6.39923 131.098ZM10.2665 138.323C11.1395 139.385 12.1147 140.361 13.1771 141.233L14.4468 139.688C13.485 138.898 12.6021 138.015 11.8119 137.053L10.2665 138.323ZM16.5982 143.523C17.8009 144.168 19.0737 144.698 20.4024 145.101L20.9823 143.187C19.7812 142.823 18.6303 142.343 17.5425 141.76L16.5982 143.523ZM24.442 145.9C25.1194 145.966 25.8059 146 26.5 146V144C25.8707 144 25.2488 143.969 24.6358 143.91L24.442 145.9ZM26.5 146H28.5341V144H26.5V146ZM32.6023 146H36.6705V144H32.6023V146ZM40.7386 146H44.8068V144H40.7386V146ZM48.875 146H52.9432V144H48.875V146ZM57.0114 146H61.0795V144H57.0114V146ZM65.1477 146H69.2159V144H65.1477V146ZM73.2841 146H77.3523V144H73.2841V146ZM81.4205 146H85.4886V144H81.4205V146ZM89.5568 146H93.625V144H89.5568V146ZM97.6932 146H101.761V144H97.6932V146ZM105.83 146H109.898V144H105.83V146ZM113.966 146H116V144H113.966V146ZM116 146H118V144H116V146ZM122 146H126V144H122V146ZM130 146H134V144H130V146ZM138 146H142V144H138V146ZM146 146H150V144H146V146ZM154 146H158V144H154V146ZM162 146H166V144H162V146ZM170 146H174V144H170V146ZM178 146H182V144H178V146ZM186 146H190V144H186V146ZM194 146H198V144H194V146ZM202 146H206V144H202V146ZM210 146H214V144H210V146ZM218 146H222V144H218V146Z" fill="#05391C"/>
</svg>
