<svg width="234" height="145" viewBox="0 0 234 145" fill="none" xmlns="http://www.w3.org/2000/svg">
<path d="M227.5 0.5L233.274 10.5H221.726L227.5 0.5ZM0.226501 139L6 133.227L11.7735 139L6 144.773L0.226501 139ZM228.5 6.425V10.375H226.5V6.425H228.5ZM228.5 14.325V18.275H226.5V14.325H228.5ZM228.5 22.225V26.175H226.5V22.225H228.5ZM228.5 30.125V34.075H226.5V30.125H228.5ZM228.5 38.025V41.975H226.5V38.025H228.5ZM228.5 45.925V49.875H226.5V45.925H228.5ZM228.5 53.825V57.775H226.5V53.825H228.5ZM228.5 61.725V65.675H226.5V61.725H228.5ZM228.5 69.625V73.575H226.5V69.625H228.5ZM228.5 77.525V81.475H226.5V77.525H228.5ZM228.5 85.425V89.375H226.5V85.425H228.5ZM228.5 93.325V97.275H226.5V93.325H228.5ZM228.5 101.225V105.175H226.5V101.225H228.5ZM228.5 109.125V113.075H226.5V109.125H228.5ZM228.5 117.025V119H226.5V117.025H228.5ZM228.5 119C228.5 119.694 228.466 120.381 228.4 121.058L226.41 120.864C226.469 120.251 226.5 119.629 226.5 119H228.5ZM227.601 125.098C227.198 126.426 226.668 127.699 226.023 128.902L224.26 127.957C224.843 126.87 225.323 125.719 225.687 124.518L227.601 125.098ZM223.733 132.323C222.861 133.385 221.885 134.361 220.823 135.233L219.553 133.688C220.515 132.898 221.398 132.015 222.188 131.053L223.733 132.323ZM217.402 137.523C216.199 138.168 214.926 138.698 213.598 139.101L213.018 137.187C214.219 136.823 215.37 136.343 216.457 135.76L217.402 137.523ZM209.558 139.9C208.881 139.966 208.194 140 207.5 140V138C208.129 138 208.751 137.969 209.364 137.91L209.558 139.9ZM207.5 140H205.466V138H207.5V140ZM201.398 140H197.33V138H201.398V140ZM193.261 140H189.193V138H193.261V140ZM185.125 140H181.057V138H185.125V140ZM176.989 140H172.92V138H176.989V140ZM168.852 140H164.784V138H168.852V140ZM160.716 140H156.648V138H160.716V140ZM152.58 140H148.511V138H152.58V140ZM144.443 140H140.375V138H144.443V140ZM136.307 140H132.239V138H136.307V140ZM128.17 140H124.102V138H128.17V140ZM120.034 140H118V138H120.034V140ZM118 140H116V138H118V140ZM112 140H108V138H112V140ZM104 140H100V138H104V140ZM96 140H92V138H96V140ZM88 140H84V138H88V140ZM80 140H76V138H80V140ZM72 140H68V138H72V140ZM64 140H60V138H64V140ZM56 140H52V138H56V140ZM48 140H44V138H48V140ZM40 140H36V138H40V140ZM32 140H28V138H32V140ZM24 140H20V138H24V140ZM16 140H12V138H16V140ZM8 140H6V138H8V140ZM227.5 0.5L233.274 10.5H221.726L227.5 0.5ZM0.226501 139L6 133.227L11.7735 139L6 144.773L0.226501 139ZM228.5 6.425V10.375H226.5V6.425H228.5ZM228.5 14.325V18.275H226.5V14.325H228.5ZM228.5 22.225V26.175H226.5V22.225H228.5ZM228.5 30.125V34.075H226.5V30.125H228.5ZM228.5 38.025V41.975H226.5V38.025H228.5ZM228.5 45.925V49.875H226.5V45.925H228.5ZM228.5 53.825V57.775H226.5V53.825H228.5ZM228.5 61.725V65.675H226.5V61.725H228.5ZM228.5 69.625V73.575H226.5V69.625H228.5ZM228.5 77.525V81.475H226.5V77.525H228.5ZM228.5 85.425V89.375H226.5V85.425H228.5ZM228.5 93.325V97.275H226.5V93.325H228.5ZM228.5 101.225V105.175H226.5V101.225H228.5ZM228.5 109.125V113.075H226.5V109.125H228.5ZM228.5 117.025V119H226.5V117.025H228.5ZM228.5 119C228.5 119.694 228.466 120.381 228.4 121.058L226.41 120.864C226.469 120.251 226.5 119.629 226.5 119H228.5ZM227.601 125.098C227.198 126.426 226.668 127.699 226.023 128.902L224.26 127.957C224.843 126.87 225.323 125.719 225.687 124.518L227.601 125.098ZM223.733 132.323C222.861 133.385 221.885 134.361 220.823 135.233L219.553 133.688C220.515 132.898 221.398 132.015 222.188 131.053L223.733 132.323ZM217.402 137.523C216.199 138.168 214.926 138.698 213.598 139.101L213.018 137.187C214.219 136.823 215.37 136.343 216.457 135.76L217.402 137.523ZM209.558 139.9C208.881 139.966 208.194 140 207.5 140V138C208.129 138 208.751 137.969 209.364 137.91L209.558 139.9ZM207.5 140H205.466V138H207.5V140ZM201.398 140H197.33V138H201.398V140ZM193.261 140H189.193V138H193.261V140ZM185.125 140H181.057V138H185.125V140ZM176.989 140H172.92V138H176.989V140ZM168.852 140H164.784V138H168.852V140ZM160.716 140H156.648V138H160.716V140ZM152.58 140H148.511V138H152.58V140ZM144.443 140H140.375V138H144.443V140ZM136.307 140H132.239V138H136.307V140ZM128.17 140H124.102V138H128.17V140ZM120.034 140H118V138H120.034V140ZM118 140H116V138H118V140ZM112 140H108V138H112V140ZM104 140H100V138H104V140ZM96 140H92V138H96V140ZM88 140H84V138H88V140ZM80 140H76V138H80V140ZM72 140H68V138H72V140ZM64 140H60V138H64V140ZM56 140H52V138H56V140ZM48 140H44V138H48V140ZM40 140H36V138H40V140ZM32 140H28V138H32V140ZM24 140H20V138H24V140ZM16 140H12V138H16V140ZM8 140H6V138H8V140Z" fill="#05391C"/>
</svg>
