<svg width="69" height="70" viewBox="0 0 69 70" fill="none" xmlns="http://www.w3.org/2000/svg">
<g clip-path="url(#clip0_2074_1096)">
<path d="M1.1936 68.7887L5.89338 51.4364C2.9893 46.3464 1.4639 40.5721 1.47101 34.6959C1.47847 16.2329 16.3366 1.21185 34.6002 1.21185C43.4624 1.21563 51.7803 4.70345 58.0344 11.0326C64.2885 17.3618 67.7325 25.7745 67.7288 34.7217C67.7213 53.1853 52.8588 68.2076 34.6015 68.2076H34.5865C29.056 68.2069 23.6137 66.8059 18.7562 64.1324L1.19423 68.7862L1.1936 68.7887Z" fill="url(#paint0_linear_2074_1096)"/>
<path fill-rule="evenodd" clip-rule="evenodd" d="M26.0286 20.1843C25.3867 18.7378 24.71 18.7114 24.1004 18.6863C23.6028 18.6649 23.0287 18.6662 22.4571 18.6662C21.8855 18.6662 20.9563 18.8831 20.1707 19.751C19.3851 20.6189 17.1696 22.7156 17.1696 26.9832C17.1696 31.2509 20.2422 35.3708 20.6708 35.9493C21.0993 36.5279 26.6027 45.5607 35.3181 49.0359C42.5618 51.9238 44.0353 51.3496 45.6077 51.205C47.1801 51.0603 50.6807 49.1083 51.3922 47.0832C52.1038 45.0582 52.1069 43.3244 51.8898 42.9615C51.6728 42.5986 51.1043 42.3835 50.2465 41.9502C49.3888 41.5169 45.1736 39.4189 44.3874 39.1297C43.6012 38.8404 43.0295 38.6963 42.4592 39.5642C41.8888 40.4321 40.2449 42.3835 39.7448 42.9602C39.2447 43.5369 38.744 43.6124 37.8863 43.1784C37.0286 42.7445 34.2675 41.8288 30.9909 38.8756C28.4407 36.5776 26.7209 33.7401 26.2208 32.8722C25.7207 32.0043 26.1673 31.5352 26.594 31.1031C26.979 30.7145 27.4517 30.0912 27.8809 29.585C28.3101 29.0787 28.4513 28.7171 28.7374 28.1385C29.0235 27.5599 28.8804 27.053 28.6659 26.6197C28.4513 26.1864 26.7849 21.8987 26.0224 20.1843H26.0286Z" fill="white"/>
<path d="M58.881 10.1723C52.4011 3.61612 43.7852 0.00377335 34.6059 0C15.6898 0 0.295447 15.5594 0.287983 34.6846C0.280931 40.7715 1.86078 46.7528 4.86834 52.0257L0 70L18.1921 65.1764C23.2237 67.9469 28.8616 69.3988 34.5909 69.3994H34.6059C53.5188 69.3994 68.915 53.8369 68.9231 34.7123C68.9231 25.4437 65.3597 16.726 58.881 10.1723ZM34.6059 63.5406H34.5947C29.4867 63.5411 24.4725 62.1529 20.0773 59.5214L19.0349 58.8969L8.23955 61.759L11.1219 51.1219L10.4427 50.0314C7.58556 45.4352 6.07367 40.1151 6.08185 34.6865C6.08807 18.7906 18.8806 5.85875 34.6171 5.85875C42.2365 5.8619 49.3969 8.86422 54.7827 14.3136C60.1685 19.7629 63.1317 27.0065 63.1292 34.7104C63.1218 50.6069 50.3267 63.5406 34.6059 63.5406Z" fill="white"/>
</g>
<defs>
<linearGradient id="paint0_linear_2074_1096" x1="34.4138" y1="68.8516" x2="34.4138" y2="1.30111" gradientUnits="userSpaceOnUse">
<stop stop-color="#20B038"/>
<stop offset="1" stop-color="#60D66A"/>
</linearGradient>
<clipPath id="clip0_2074_1096">
<rect width="68.9231" height="70" fill="white"/>
</clipPath>
</defs>
</svg>
